<mxfile host="app.diagrams.net" modified="2023-06-03T20:08:37.903Z" agent="Mozilla/5.0 (X11; Linux x86_64) AppleWebKit/537.36 (KHTML, like Gecko) Chrome/113.0.0.0 Safari/537.36" etag="HW0hu8kMDQidXmEWgw66" version="21.3.7" type="device">
  <diagram name="Page-1" id="u1PBVeq4Tu1rf0IINsXq">
    <mxGraphModel dx="1434" dy="1873" grid="1" gridSize="10" guides="1" tooltips="1" connect="1" arrows="1" fold="1" page="1" pageScale="1" pageWidth="850" pageHeight="1100" math="0" shadow="0">
      <root>
        <mxCell id="0" />
        <mxCell id="1" parent="0" />
        <mxCell id="K1HLMdB7QofINSpVEcoK-8" value="" style="group" parent="1" vertex="1" connectable="0">
          <mxGeometry x="250" y="-750" width="200" height="110" as="geometry" />
        </mxCell>
        <mxCell id="K1HLMdB7QofINSpVEcoK-4" value="&lt;b&gt;&lt;br&gt;Database&lt;br&gt;&lt;/b&gt;" style="rounded=0;whiteSpace=wrap;html=1;fillColor=#d5e8d4;strokeColor=#82b366;gradientColor=#97d077;" parent="K1HLMdB7QofINSpVEcoK-8" vertex="1">
          <mxGeometry width="200" height="110" as="geometry" />
        </mxCell>
        <mxCell id="K1HLMdB7QofINSpVEcoK-3" value="" style="image;sketch=0;aspect=fixed;html=1;points=[];align=center;fontSize=12;image=img/lib/mscae/Docker.svg;" parent="K1HLMdB7QofINSpVEcoK-8" vertex="1">
          <mxGeometry x="130.69306930693068" y="8.461538461538462" width="41.27538461538462" height="33.84615384615385" as="geometry" />
        </mxCell>
        <mxCell id="_ayrMGpukAJ04BxwoHGc-1" value="" style="image;aspect=fixed;html=1;points=[];align=center;fontSize=12;image=img/lib/azure2/databases/Azure_Database_PostgreSQL_Server.svg;" parent="K1HLMdB7QofINSpVEcoK-8" vertex="1">
          <mxGeometry x="21.78217821782178" y="8.461538461538462" width="25.384615384615383" height="33.84615384615385" as="geometry" />
        </mxCell>
        <mxCell id="K1HLMdB7QofINSpVEcoK-10" value="" style="group;fillColor=#f8cecc;strokeColor=#b85450;gradientColor=#ea6b66;" parent="1" vertex="1" connectable="0">
          <mxGeometry x="580" y="-750" width="190" height="110" as="geometry" />
        </mxCell>
        <mxCell id="K1HLMdB7QofINSpVEcoK-11" value="&lt;b&gt;&lt;br&gt;Rest API&lt;br&gt;&lt;/b&gt;" style="rounded=0;whiteSpace=wrap;html=1;fillColor=#f5f5f5;strokeColor=#666666;gradientColor=#b3b3b3;" parent="K1HLMdB7QofINSpVEcoK-10" vertex="1">
          <mxGeometry width="190" height="110" as="geometry" />
        </mxCell>
        <mxCell id="K1HLMdB7QofINSpVEcoK-12" value="" style="image;sketch=0;aspect=fixed;html=1;points=[];align=center;fontSize=12;image=img/lib/mscae/Docker.svg;" parent="K1HLMdB7QofINSpVEcoK-10" vertex="1">
          <mxGeometry x="124.15841584158414" y="8.461538461538462" width="41.27538461538462" height="33.84615384615385" as="geometry" />
        </mxCell>
        <mxCell id="K1HLMdB7QofINSpVEcoK-1" value="" style="shape=image;verticalLabelPosition=bottom;labelBackgroundColor=default;verticalAlign=top;aspect=fixed;imageAspect=0;image=data:image/png,iVBORw0KGgoAAAANSUhEUgAAAMgAAABpCAMAAABIxpznAAAayXpUWHRSYXcgcHJvZmlsZSB0eXBlIGV4aWYAAHjapZtZkhy5dm3/MQoNAT1whoPWTDPQ8LU2IpK3yCo9e1cii8ykp4cDOM1uAC93/us/r/sPftVUs8ul9Wq1en5lyxYH33T/+TXe38Hn9/f7tX5+Fn6/7qp9fxC5lPiaPv/s9Xv/z/Xw6wGfL4Pvyl8e1Nf3B/P3H1j+Pr//8aD4+ZI0I32/vw+y74NS/PwgfB8wPsvy1Xr76xLm+Xz9fv4TBv44/ZX779P+278b0duFcVKMJ4Xk+Tul7wSS/iSXBt/U9zeT4iZ9n9/fn1vDJyD/FKdfv4izu5pq/sebfsvKr+/+yNZPUtyf2crxe0v6I8j119d/vO5C+eMH6df48a8j5/79Lv5+vZ/QPjP6I/r6c+/u962ZVYxcCXX9LupX1PQN902G0NDdMbXqG38Kj2jvt/G7U9WLUth++cnvFSxE0nVDDjuMcMN5X1dYTDHH42LjmxhXTO9iTy1aXEn5y/odbmzJ0k6dJK+X9pzir7mEN6z55d5onZF34NYYeFjgI//2b/fvfuBetUIIimWvL1bMK0YFm2koc/qb28hIuN+glhfgn99//lJeExksirJaxAjs/DxilvAvJEgv0YkbC18/PRja/j6AEDF0YTIhkQGyFlIJNfgWYwuBQHYSNJh6TDlOMhBKiZtJxpxSJTc9amg+0sK7NZbIZcd1wIxMFPqrkRtLg2TlXKifljs1NEoquZRSSyu9WBlCxFpqra0KFEdLLbtWWm2t9WZt9NRzL7321nu3PixaAjSLVWvWzWwMxhw8efDpwQ1jzDjTzLO4WWebfdoci/JZeZVVV1t92Ro77rTBj113233bHiccSunkU0497fRjZ1xK7SZ38y233nb7tTt+Ze2b1r/9/jeyFr5Ziy9TurH9yhpXW/t5RBCcFOWMhEWXAxlvSgEFHZUz30POUZlTzrwBf6lEJlmUsx2UMTKYT4jlhp/cufjJqDL3f8qba/m3vMX/beacUvdvZu7vefunrG3R0HoZ+3ShguoT3aePjdjHKWldr+/gvF9f3V8v5NX37szklgVXxs0Pykzd55MoFxa4y7FQd8htpD1XrbECfwI9p1tHu6HNDU6mG+Ytua+yx21pxzUBsBmEdvXsSrgGi/SJdcyZmFpjxruP7Sa4N2tOUHey1erJFm6nTY/CP0jqptxOjvmeY/3Chi2twHw2Y4w9dmKGdTmB7GyF8CbuTcaDll3C22z2u3YMJfljJbRa77msieyeUtIovddDwkaefNAxjU3VkMVFUezuGcl86ek0K5fqt5Yra5tzZ+qoHuZKSTPtTdr27a3czdNcnzyYb3oZwcwnEg+U5X7oFiU7Azx1TUXSSqcESp8h3RIbUZsWTt0lUncUpN1VZrlr3rXO7qeEPFK3UgZrrjdFO9Oovb1gDjuJGRyqrS9S5M9JFM0Jxa0VWWRcjJNToHqNUDNeUFn5cU43Dz3ukmfdifpcrLnSGBQuVb9movPahbLt9LQ72c/Hk1CrYZBjm6WdVSoSZbD0SgRH3ZtJ82XQ1RRAhT+73WBEarkD8UIspaU6FOZUvUqSyyWUTUDpnGk7xBMz4Z5rCl8Yg5ZifeFQiI2GcZPaiJPmvzQVnKoqm4kg13g6DV2Gmo7iDnF5VEAJlnrYUoldRDcAhFvLcG3P0nOsiVWHm7idX408mDJzGXMV6rrFBc7EuTvQJ9YxAMSPFDboAipWV8fN04MQY3HJGHjGMgPNnSi2RlWkMGhBMrUqCWXVkATDqd+YHHBy87ow7Wva4f9/vo4+G8Gf8RDdJLnDYgvdBRy6Qz+0VCrQVSjxSLIJIOhIoTN/AGqfSSbHDoBW7sIjup9MUBTvq5qlHAf0IjW7BfMUWlx3tkBzHuDnZgFgqSrQRSZA15lrLwBAPALIs5idQcdpepd6BGjWbnmPVu3WGWvfHkygvRYJA/pDWkZLABq70vFlJ4AAWJiQOi20Ih1E00omj9N2mrVO3WVgLUkPQTUNMk0qtvk46YtNV4xC6R7LkyjXBoRkgxDcAl6gB8FePaRkAqNA76T36xZJHH7Y+1YpxQB0NnVdp7f7LkiTGilY0uoAz1jqgmwIZyHT59a0D20LUZCYw/iJ8o70194lnDMyXyGafWEXhGClHm5zaJIz4I5TaIH9vVoCoLG7eCi1d8f3Yp/+fi5WUKBaioXlXloIOqoWJsx412hgJEBNuOj9Qla4M5W5QdQSe552TEAdxu1wWjlhmRoyULzbgbiRzKK04EI45EYQuhUSdDMFt08eM5DZ1gIJbhTV6OQYqOrcT5kTWfLv3SEpN1OC1M26YwuTS2ntbBarIrZdAPJD8ZZ5ghqm+F3vRt3VPl7VgcbbWW3Z9y6n2J+epkgmbZekmiuYGyFapWcDEPmMWYdXPkgmz40TocJQZO1XxQ9bJ2Qqj3EimGPIeFVEsO7hB4gCIGeW8C66RHXqgVlgiwao66KPwMqNfIY3L8WJftfPCfQAEToFgHgqtRHgstAPm944Y5MVKgikh+0iVZFdKT5RYmGBbPwJUJ6HlYotHg+yBRMhnnzDnkQwJ4s0LsR3E40e1IuA1riuKrA9w4SpLNqREELC4xIIO/egnOqiy4xb0FWoqk1A051jGhUFVRJwnlUdySHYhpEBiUu/Bc5CJp0JdC4kWw+wO224DQUPRhwfqJqr1gMz6SkWXRv6KJGIQAcshBcjNRAzdiQPeNL3bBkop3knDBs6C4TJ7wGWTtez5kIndjtIRyfRAtOjMBiUJmUIMBWekXm5kH5tUCdVXoa4l0XDeYd5TKobTiKp1OvopN8GHUvJYNBAKXTqnEQBHUeDVW4dDFUnWowA9kdek445XrXEM1K6HTxzeUGwsK0XZ0ILNPeBLOBoseOgwhN+0V/IIawDV9JimwleEOuCPiL7BK87/A5l5y9ds7CUiUgERNpFuVDeuQklYSkaFBXWhe6wDpoIJQdCSLJgIA3uB3PANiZEiQrWDFYLaCxqTp9lndB9A+dApttBSeCLzgsT6Q5rJwQxOFPNIWUFL01C5I4hWFrkifgAWfWDPw004x6mJ4bL5R+Ayhz6YY38fVz6/jQSj3fxBxS5DrtSGPc7ym/Yl7KZG7U+8GQcnhjhNiCoDLSC8tOKNwkycjxR0PIj9LZveRD3i1VEnpfWTzKATT7dI5qoGUt3Gy7gFOp/RFCZSu8q3fg4Qz3M9CaRIWXwPP1wEEmAvWPyDAiuemDlAE5w5dS48wqbbgKbhqGJGmzlI/0sJl62YY8K0Nhc1EpMzoBL6vEmNBk1A3JTbgtRQ0kt5E1JbR6EcrByCqmCnijP1VB7cFXOvceIxGNGPg2QKhQa41Cd6Njm0W5NItrfyEqAUiowI7GD1CK4C9yqzidUcSZVRqAc9MUytrE6OGON3mf1QG730rVpk3yJpS5aCz3RiGcC/G+fA4hHbEck9DYH4QZUHxED0OAXhjgbwZooW5iRGVLCcDsNm6XVsCN9rRIlz6s4ea2L0MxuzQJvoXqkaxRin8GCs4zOuVRTb3Ec5Ard2zo8nyO6oqdiG6sDp0tzbj7gsAzCUhrzvs5mQSgOwKfSIngqvzIlyFhgDPDEmhksICHCzGJzPFAhMLQIgGai05t6a1H3aC/nUul4gUOBmqwDHLcGgtxGQePSLR6CgEegq0na9nakrspw4SSSlAbthgKLzLq+Dx/mcnMU9eSB0L0yo2AsJnDgkT3ibwZUEgh5keCgA5hx50G9whvEgSIYQm3gEKnsVexUuHgsIhkWeo8lIaso7Wo5TgeK0YwmMm6quElvoAW06SAnZJEZa19GqALpZ8QQVsDAtorhRTNBq4C5OWa3gDXyO9AGaz/7mDeVuNoGCxDbpAcLQdTiVxx98SBjln8Bivur9PkYzh/osR/s+P1iyud3kKlMNFT3c2P+XgRQzp9o9EWZ+ocUe0P3+7nmdJG5o7sfGGLdNgZSMgwI6Dhe+p1qRCOH4y0iP5EnlKayh+uENzWlgGJjuoBWAPtktSJOBzpqOP6jbgXMmB7GE7NPpKJ6h8rAETY5DpJIDTMGMFIANdz8Bj4OFo0+DxIH+GwcGwCmfRG4KOHxb6BHcScejLtYT9Af3USGow2HE9PeCqiKwO+YMrIIk0FrTWSAkKZ2U0H4oZvg8UeQaa+x6IiIK9GGxUrT0XZAJcs9uE7kCMaygHVwkp01D8vpOSHpkFELpkY82p4SU5CbWhygU6lh/CI0BF5ehsWLDfDrUkZcaBcdc7TjOz1qkzx0EoL+4IpHh+wIHB4KbzQm4uhL1Omj5CTvSomjyygzWpquBMbiyU1Z2wCaVUSB9qhUsl78tAQlRNWVHcF7BF+X5J2J+VD5SAhhCLoMnZUABTgqKfoj0o8XKs7a8YDzCaXs+EH6oUYw55nRhP7lhZPJpCiJpcYFnBGisLNfTRulF3RFLqMusM4CglqsOjAFxU8Sq/ZaOuGMAXw5m+WicudALmSDu8EUWqAIRZFDJ0eKZQIhgD2WK7pIqFjduwSMPcpjvKjtzrU9ZIF4W9p1UX/QNyOpJ2Ckg/Nd7afB3M6L+P/L2Ggh35u/GgA9iCXfENGlRxCXqGrYWHvSmUSNEeSSnXZT0I9UZEiQNgQi9QpkC20rnYinELzJtbOIBkgyXMX+mfaRwnkx3dUNuojla6eYuqL+jtE52Brs7IGcMW17w84Q/V2sn6V2kkq5RIgsHnDVtjZ9AQ2spmmDz1DeOCNKBJGN9wkbpFxI2lMQfTyclk74r/zaJFMDqo2ijbeV0JCTLkdzMaF4cbfBlxxQ1H09fq4NXTgNCXFDLNqxWaghNa3uuAmRvCts7/AkeCDmE6iWguxhHKPttcPXuvaEhuweRm96SN1PbdxCuT4aKdQOXQaeiBGyQsqxaMcMWeG1h2faXQLAMfs4GASoh94u8ZnxOex6KXCDtgCUHtBRlJoLZXJN+9SkFp+YMWeAU5RZKlubFHgl8A3tj8bVlkptHQRf2rtaGDZbHhsY3dw4vQCvy3pucDA0mJGlYL7Q3vLoODg6Hhov2FRuGKDFZeDLIhSyCXFPRAT9XSUDBgogN0jo0Gt0ZhkXkYs2wqqgYYBdhEdnvvKKLLUawcaqEnYi66r2NrUPt5riZnJovj5SWYwZwNeBEQVyIRFkEvVGOps2N55LXrLBiDs34PcA9kDHoPEAubFkqo3wi80EBbhW6B6i+SGkrwpHg2kTIB5Hp0S1Di3MIPRxxygsYTgNayo9VSc+oPli78Dr7VH6DfJlnAQc1gII4rJ2BJJ8H9VN3T6JgyYHc7Ut/ao4Jbt4Jyq936m9QkTQJbjaiVoolY7/cWEzpBAePa9dIuSwp14Ad2SJNiZwox2+04YRSm/S+uATwEmnURWJTteMuwO8wamiwyCUaumod+4EWqWmpMobSIZOJjwdX0glEU3oM3i4CLUDqVK2fThahS4APDIll89Z3z01nU4sbavlrA0pPLTO77rsWNbmBwMheyqsOOUZeVCDpXbFmQ6UNa2/tOfVDzFIfosY0cYrwkko9qvdUjyw0XVjc6FmzyQ2V1AjWQ/Xnh4k0qQ5A8oQLMM9yoegJJDKUQIE11i0b4MXuNQAgti0UYJvgEWQJrh4ABenXiCiXg+q46KxQYmhQ6880NhoM8QW009ItPq0FfQI9cGqz3m5/I4O0tJmCpmyVrDPKATAQZYCZQmdGMQMfEFw03yzs9U/Kt8mGYgIGDwIvU+x9zS0JcZ6MZ8TRp53TGK/ET83NW3g4vdNWjmJnlaj9w00oh1h4tocHUbokrbLQRdfSwcPKpo8D1HyATBBawQnhgiT8Apfuz4N7G8h8uVubPB1RVuQmHNgsD42FDZU9AfVqyOEoaExZ1kbszg43PUq2kdu6PmCZSbiMZ+LGC1z4IxhK5nDkXgyNnRf+lxcD3rLBLGMo21E4CAP9Y8EB5YAMQUaw0pOWBjkcbmBKUnjkS/dRInjd27w6LCAdETdUEiEDNwEJ7UFUahXDwH5wdKmYDFqf3XMBMpGNAukMWVLmAto1Dq5Q1cxcowg5tFxNu32MnO6Ki9Px5Q3Fofw0YpoSyJpYG1Z6vCDt2xYXypeZwFRZzVcMdoPkqo0PGoMlgGLHb09BBgPzFAZMATWWlsRQXpqJP6b8XNoJbHMd9Keh14gxRvXQKHCsW6z/ugJoDbe4VcoyiD2hILsayg1tD0UFoRn2ttU/xBEAk36Bh7Coxd7d4DMQCBgUxATCIUmlRUxLJQEFij1+qwL7TGqDvxQIQHq0Nlsh5iBPAAITEKw44dANuUeph3Zx3e8gMDAfmO1ItEHPabH8XvbWvNVbVL02G6EFNI3z+bEoRLQWBJqr5aLDMkS5AWQSJ8zPp0OIHx+nelpn2gPYa38oVaauoPIlw8Kmsxr1uGn5O7UKw0Vbw4WHcSUtpzi234EBahb2pOKFRizABW0k02jaCn/DQFjiFCq9BaB8FX7ip0MoKD2KUh/eM4S7DkmVQkxSq+McnFNweGNNLWbUHYJCKOJIy6X+kWTVrF1nT0j1ShmKn+IGlGOHeSB2XOJEQWUbnRJT9LGxAH6k/Zoi2rZ1Jjo/47YWQCvJLNOuIAVwohyn9rpnvMgZER8WAjcKuWZNm6JRxUfa4ZpiuS6dmEseq1BN8H7A7vs5WonlpeqDcK3wmKDwxigjYDn+qgwqpYu+uyEtCDNQXg20ucg1S9KhgYZfku3Iy30wTE0XCvOhCpofM0s4P+7lF6AqGj2+c5vTCoZRwcwFioIqwpsQRllBlqj4czI8UawA30vBtq7Y3VDR7zay9W+gSoabIfPTKdEt28h6sAm1EoICyId81Lqng53OsRSVQoJkND+AXoDvXUKkZEYwhG0KLUOqaHs6A+0VWyq2Y/IwEmaYzx6DA3WxDhlMzJKpALxVFOOvSP7kYExe5rr4GOQ2fykSkQWGp3SRGeVxIOufyd8U6e5eoEKQt2STvjSnf1NXcWdtVnskWMZmqbo09uL09EVGAMqBndzKjQ2BfG2CzOEhmNDlGm/GyTblDiMTGMAR6aTEObEZ+AmM22L0PKH9LplJptN42Nb4Oyt0zCmC0kivWKYGWcGD2Pcktw45cqIlld45bJRfvcApU7/BJcHErXpFGz1vjVdmk9HNyC87dZ2HoK3ndA5CdutjSXyolMtbQ6DZi435vMo7Knw53Vo1dlE4iQNFaSKRPFhVSKdAUcgtH2ljqh6oGPLO1+3KHykSSg6RGFVuCDUe6AVZExwVOhDQg6CFPn4EJDPRvF7neAKAqaO9HZxlI7XfFFphyZfOmKWlzDYgPaiU6Usd72o94ohXNjwbdoSN5Jb4A0+Rs4dbZj5r6JP4I/jtcePfkAcoAxMfQFKGoh2CtiUN1YQsRT5uQh26l04YMsHHhToSW02+KC37YiFB/Z0KLjk1/R+AjQYdZyOmKdShlRjE8ZhvPaSSUWVO4NuLuUBPOoVBySwmJhJdp1fUHd+4AExVkNvWQgDhvZptSd62zvZwRs2ZoTLpegC6AMX1BR1a5DGqQ39DOpiyiClpIN0SuAMPt4Pyo7vJvnVyXfMiaVpJnheOhvsMtAoQ/IL5GfojFQgLH0zJuGiF5ilXqbRHgwEiwKimwpflktgPF0TdRIHfACT54lgXLnMLwEA67L2asGJrYMeVBVN1h/cHelMHXLRtFlABVQAryNeXNGM0lhLEUIhsFiCjpoI1CMycyD+Aq486JBIOwJIVfpouhj0lsSlabXxQUS0vX1pILkrWQHgR3vbbQB/xBOuYU2mI1dWRXW1rM2h4Hg+5rPwE6/v9Kbnr68RUTsR6LXp8AXfx0BCm8/u7ZB1XtqbwWfRtIGC96/1oGra2BDaQ+8neSRUlNQooAghppwXgqCsojeD1JOIkKzXkaB675oORRNYysMGMtMwVTIl6EwaCvUXBPdzwaenkbKOXtfbDCiIt8miHgGjEBFaQRKQCZS6Nu2JuF49wqGyBBQoiDFy0hsrAEVNtCXsAeBvDF+X3KBQmuMRUcf4Uy9uaBkr4akkrQmrlDrl1zO1z1D0O5PKoIg4NHR8XfBy1No/mrtLId4nNWwNvUNx5FhanvjHdAR62pWrSciIbwayEhUFx7P4KkxWvNz3GmpobeaBnNlLB7sqPUA0RHmt9HD0z0/z0aRNGSCJ9MNgOghHcyLt9QqzfLzOiJoKoGmXldSHoXflXqamztLvxqsM/ZuLgCtQS+T1Qgy0qEXQLgIscoSIzBIvemOL65ogDrF9SVGpmpRm+rlk7ufKNlwr3a9zSoi2eIEmUgvrSHy0KfP/npXTtL6zQgG9TUFEYwpfEkj/mkF7M/hGLfwWNYKkpX2C9P08po77tGkxdJY4UEMUJPHVgTKgieVGkuMyySsG87sSf917rYAMY/WpZ/TvQilpv6HKvyCD8SFgMiJaYGQoTx0Q6XW0YdrP5RbUVtqOqYADiOyKZa7yy7CTwAkSU8FT/gNHVqXAepO+YYixdeRisMgSIOEHqjv4IcgF3WtJdJ31fppUKPCVkZ0Yoh6xrWnRHETyeJUIPUw87wI7u15RQ2erQ7T7sPQeFnoZjtPLX3HSxqkC5Kgi+RjU5UDcZb0hX4nzHgJLnXZgF8ipEy/izp6gqh7lgp479C7PoHS1/z8/kDXQBtb/hlk/X93PNyyDqIEkekUGVT71sorH0uJjn8Wip7nzGLlAWuHpkEMoa+Apl9MvIuKg6KNeKUDmtoJVpMn1Tn1+sg4f5OXBsN/Ywo8zgRfy0JYyPQRN0XcjE+wMQ6ObypQ8BS9zRHnqZTK0w3nrMnxaYWIY1ojpQXCjIE6byHIAB2pYekUvZ+05W0w6Df3Us87zVZLxHfrO83E7yRI+JBP+/oDDwwv6Sihx4g5jHqup9L1Q97XD4s5z0YnMhmV2NIRk3ZIJSPd9sL3P9X8N7P42ciCrT5wixj+f/Yi8X5+29kZ98K8P82g+6n4+S4mYt++UwTa9EZJfw5L18T/PGDCm1yy6c977PVX7GKS6SHTgCnES2i8oBWnMEDo2RI8WeR8k3WDMgvjCXxX9Twk82QW94xrBQECnIowm0hHJpUKDQBgZ9OHTc3loL9DAWL6wu94JKnpBZmTt0GRiRMpeUnR8DXP2G/TGC1Vg09ZGCny8LCr61W5hrfduc/8NBgZme9zppFAAAAGEaUNDUElDQyBwcm9maWxlAAB4nH2RPUjDQBzFX9NqRSoO7SDikKE6WREVcdQqFKFCqBVadTC59AuaNCQtLo6Ca8HBj8Wqg4uzrg6ugiD4AeLq4qToIiX+Lym0iPHguB/v7j3u3gFCo8w0KzAOaHrVTCXiYia7KgZf0Q0/whhDQGaWMSdJSXiOr3v4+HoX41ne5/4cfWrOYoBPJJ5lhlkl3iCe3qwanPeJI6woq8TnxKMmXZD4keuKy2+cCw4LPDNiplPzxBFisdDBSgezoqkRTxFHVU2nfCHjssp5i7NWrrHWPfkLQzl9ZZnrNIeQwCKWIEGEghpKKKOKGK06KRZStB/38A86folcCrlKYORYQAUaZMcP/ge/u7XykxNuUigOdL3Y9scwENwFmnXb/j627eYJ4H8GrvS2v9IAZj5Jr7e16BHQvw1cXLc1ZQ+43AEGngzZlB3JT1PI54H3M/qmLBC+BXrX3N5a+zh9ANLUVfIGODgERgqUve7x7p7O3v490+rvBzS0co5E765/AAANGmlUWHRYTUw6Y29tLmFkb2JlLnhtcAAAAAAAPD94cGFja2V0IGJlZ2luPSLvu78iIGlkPSJXNU0wTXBDZWhpSHpyZVN6TlRjemtjOWQiPz4KPHg6eG1wbWV0YSB4bWxuczp4PSJhZG9iZTpuczptZXRhLyIgeDp4bXB0az0iWE1QIENvcmUgNC40LjAtRXhpdjIiPgogPHJkZjpSREYgeG1sbnM6cmRmPSJodHRwOi8vd3d3LnczLm9yZy8xOTk5LzAyLzIyLXJkZi1zeW50YXgtbnMjIj4KICA8cmRmOkRlc2NyaXB0aW9uIHJkZjphYm91dD0iIgogICAgeG1sbnM6eG1wTU09Imh0dHA6Ly9ucy5hZG9iZS5jb20veGFwLzEuMC9tbS8iCiAgICB4bWxuczpzdEV2dD0iaHR0cDovL25zLmFkb2JlLmNvbS94YXAvMS4wL3NUeXBlL1Jlc291cmNlRXZlbnQjIgogICAgeG1sbnM6ZGM9Imh0dHA6Ly9wdXJsLm9yZy9kYy9lbGVtZW50cy8xLjEvIgogICAgeG1sbnM6R0lNUD0iaHR0cDovL3d3dy5naW1wLm9yZy94bXAvIgogICAgeG1sbnM6dGlmZj0iaHR0cDovL25zLmFkb2JlLmNvbS90aWZmLzEuMC8iCiAgICB4bWxuczp4bXA9Imh0dHA6Ly9ucy5hZG9iZS5jb20veGFwLzEuMC8iCiAgIHhtcE1NOkRvY3VtZW50SUQ9ImdpbXA6ZG9jaWQ6Z2ltcDpiN2RjYTc1MC1kZWRhLTQ5NjQtYmE2Ni00MWQ1MTQ0MTc1NTMiCiAgIHhtcE1NOkluc3RhbmNlSUQ9InhtcC5paWQ6MmQ0OGViNGQtN2JlOS00MTUwLTkyMjItYWFhYjk5NGIwZjY1IgogICB4bXBNTTpPcmlnaW5hbERvY3VtZW50SUQ9InhtcC5kaWQ6NTJjNjU1ZTMtMjBiNC00YjRmLWJiMDAtZThlZDkxNDYzMzlkIgogICBkYzpGb3JtYXQ9ImltYWdlL3BuZyIKICAgR0lNUDpBUEk9IjIuMCIKICAgR0lNUDpQbGF0Zm9ybT0iTGludXgiCiAgIEdJTVA6VGltZVN0YW1wPSIxNjg1ODIxNTkxOTg1MDQyIgogICBHSU1QOlZlcnNpb249IjIuMTAuMzAiCiAgIHRpZmY6T3JpZW50YXRpb249IjEiCiAgIHhtcDpDcmVhdG9yVG9vbD0iR0lNUCAyLjEwIj4KICAgPHhtcE1NOkhpc3Rvcnk+CiAgICA8cmRmOlNlcT4KICAgICA8cmRmOmxpCiAgICAgIHN0RXZ0OmFjdGlvbj0ic2F2ZWQiCiAgICAgIHN0RXZ0OmNoYW5nZWQ9Ii8iCiAgICAgIHN0RXZ0Omluc3RhbmNlSUQ9InhtcC5paWQ6ZjNkMmZkODAtYzAwOC00NDI1LTkzNTEtMGU0MmMwOGFjNzI2IgogICAgICBzdEV2dDpzb2Z0d2FyZUFnZW50PSJHaW1wIDIuMTAgKExpbnV4KSIKICAgICAgc3RFdnQ6d2hlbj0iMjAyMy0wNi0wM1QxNjo0NjozMS0wMzowMCIvPgogICAgPC9yZGY6U2VxPgogICA8L3htcE1NOkhpc3Rvcnk+CiAgPC9yZGY6RGVzY3JpcHRpb24+CiA8L3JkZjpSREY+CjwveDp4bXBtZXRhPgogICAgICAgICAgICAgICAgICAgICAgICAgICAgICAgICAgICAgICAgICAgICAgICAgICAgICAgICAgICAgICAgICAgICAgICAgICAgICAgICAgICAgICAgICAgICAgICAgICAgCiAgICAgICAgICAgICAgICAgICAgICAgICAgICAgICAgICAgICAgICAgICAgICAgICAgICAgICAgICAgICAgICAgICAgICAgICAgICAgICAgICAgICAgICAgICAgICAgICAgICAKICAgICAgICAgICAgICAgICAgICAgICAgICAgICAgICAgICAgICAgICAgICAgICAgICAgICAgICAgICAgICAgICAgICAgICAgICAgICAgICAgICAgICAgICAgICAgICAgICAgIAogICAgICAgICAgICAgICAgICAgICAgICAgICAgICAgICAgICAgICAgICAgICAgICAgICAgICAgICAgICAgICAgICAgICAgICAgICAgICAgICAgICAgICAgICAgICAgICAgICAgCiAgICAgICAgICAgICAgICAgICAgICAgICAgICAgICAgICAgICAgICAgICAgICAgICAgICAgICAgICAgICAgICAgICAgICAgICAgICAgICAgICAgICAgICAgICAgICAgICAgICAKICAgICAgICAgICAgICAgICAgICAgICAgICAgICAgICAgICAgICAgICAgICAgICAgICAgICAgICAgICAgICAgICAgICAgICAgICAgICAgICAgICAgICAgICAgICAgICAgICAgIAogICAgICAgICAgICAgICAgICAgICAgICAgICAgICAgICAgICAgICAgICAgICAgICAgICAgICAgICAgICAgICAgICAgICAgICAgICAgICAgICAgICAgICAgICAgICAgICAgICAgCiAgICAgICAgICAgICAgICAgICAgICAgICAgICAgICAgICAgICAgICAgICAgICAgICAgICAgICAgICAgICAgICAgICAgICAgICAgICAgICAgICAgICAgICAgICAgICAgICAgICAKICAgICAgICAgICAgICAgICAgICAgICAgICAgICAgICAgICAgICAgICAgICAgICAgICAgICAgICAgICAgICAgICAgICAgICAgICAgICAgICAgICAgICAgICAgICAgICAgICAgIAogICAgICAgICAgICAgICAgICAgICAgICAgICAgICAgICAgICAgICAgICAgICAgICAgICAgICAgICAgICAgICAgICAgICAgICAgICAgICAgICAgICAgICAgICAgICAgICAgICAgCiAgICAgICAgICAgICAgICAgICAgICAgICAgICAgICAgICAgICAgICAgICAgICAgICAgICAgICAgICAgICAgICAgICAgICAgICAgICAgICAgICAgICAgICAgICAgICAgICAgICAKICAgICAgICAgICAgICAgICAgICAgICAgICAgICAgICAgICAgICAgICAgICAgICAgICAgICAgICAgICAgICAgICAgICAgICAgICAgICAgICAgICAgICAgICAgICAgICAgICAgIAogICAgICAgICAgICAgICAgICAgICAgICAgICAgICAgICAgICAgICAgICAgICAgICAgICAgICAgICAgICAgICAgICAgICAgICAgICAgICAgICAgICAgICAgICAgICAgICAgICAgCiAgICAgICAgICAgICAgICAgICAgICAgICAgICAgICAgICAgICAgICAgICAgICAgICAgICAgICAgICAgICAgICAgICAgICAgICAgICAgICAgICAgICAgICAgICAgICAgICAgICAKICAgICAgICAgICAgICAgICAgICAgICAgICAgICAgICAgICAgICAgICAgICAgICAgICAgICAgICAgICAgICAgICAgICAgICAgICAgICAgICAgICAgICAgICAgICAgICAgICAgIAogICAgICAgICAgICAgICAgICAgICAgICAgICAgICAgICAgICAgICAgICAgICAgICAgICAgICAgICAgICAgICAgICAgICAgICAgICAgICAgICAgICAgICAgICAgICAgICAgICAgCiAgICAgICAgICAgICAgICAgICAgICAgICAgICAgICAgICAgICAgICAgICAgICAgICAgICAgICAgICAgICAgICAgICAgICAgICAgICAgICAgICAgICAgICAgICAgICAgICAgICAKICAgICAgICAgICAgICAgICAgICAgICAgICAgICAgICAgICAgICAgICAgICAgICAgICAgICAgICAgICAgICAgICAgICAgICAgICAgICAgICAgICAgICAgICAgICAgICAgICAgIAogICAgICAgICAgICAgICAgICAgICAgICAgICAgICAgICAgICAgICAgICAgICAgICAgICAgICAgICAgICAgICAgICAgICAgICAgICAgICAgICAgICAgICAgICAgICAgICAgICAgCiAgICAgICAgICAgICAgICAgICAgICAgICAgICAgICAgICAgICAgICAgICAgICAgICAgICAgICAgICAgICAgICAgICAgICAgICAgICAgICAgICAgICAgICAgICAgICAgICAgICAKICAgICAgICAgICAgICAgICAgICAgICAgICAgCjw/eHBhY2tldCBlbmQ9InciPz50UfEuAAADAFBMVEVHcEwUBwB5QAC6awDqiQDGbQCHTgAdCgBEGQDgggD0lQBrOwAAAAA7FgAAAAAEAADNdAD0lAAXCAAhDAA1FAAAAACjXgCyYwDujQD0kwAIAgAPBgDXdwD0kAALAwAvEgBVHwCWTgD0jgD0jwBQHQD0jABgJADxiAD0igChTgDqfQD1iQD1iAD1hwD1hgD1hADfbwD1gQD1fwC8VQD1gACwUQD1fQD1fgD1fAD1ewCEKACGKADBNgDHOQD1egCLJwDMOgCvMgD1eQBmHwC4NACVKgD1eADqbgCmLwB9JwAVBQD1dgDLWwCwMQCdLABQFAD1dwA9DwCGOgBaFwDPOwBFEgD1dQD1cwD1cgA0DQD1dAD1cQBzJAD2cADQOwD2bwD2bgDSPADFOQDUPQDPPAD2bQDVPgDyZgDZPwD2bADXPgDaQADdQQD2awDbQACvMwD2agDfQgD2aQDpXgDhQgDMPwD2aADkRAD2ZwCzNwDbWADlRADbQQDEPQD2ZQD2ZAD2ZgDnRQDpRgDiQwC7OQDoRgDdQwD2YgDqRwChMgDrRwD2YwD2YQDsRwDzXwCqNADuSADiRQDwSQDlRgDySgDpRgD0SwD2YADySQD2SwDsSADvSwD2XwD3TACYLwDWQQDzSgD2XgD2XAD1SwD2XQD2WwDzWAD3TQD2WgD3VwD2WQD2WAD3VgD3VQD3VAD3UwDiTwDRSAClOASEKgBnIABHFgA0EABXGwB1JQCYLwDvUgC+QwEUCAMJAwH3UgAkCwAAAADPjWi0s7LPzs7b2trFxMOSkpI6Ojr1fz7yvqHo5+dhXl33UQD////49/epqakkIyP1aBtJSUncai12dnb2mGP3UAD1djD3TwD92MX5lV2goKD3TgCyMgC4MwCiKgDANgCsLgClKwCoKwCfKACXJgBsGwB8HwCbJwB4HgCDIQCKIwBmGgCRJQB0HQBxHQAMAgBfGAAGAQAAAAAAAAAAAAAAAAAAAAAAAAAAAAAAAAAAAAAAAAAAAAAAAAAAAADcsR5FAAAAAXRSTlMAQObYZgAAAAFiS0dEAIgFHUgAAAAJcEhZcwAACxMAAAsTAQCanBgAAAAHdElNRQfnBgMTLh/CD8IkAAAMBUlEQVR42t2b7U9UVx7H7wuShuQmxHeri28kBoKKSAzYlqmzDRHXxqd0fa5tebRVuoiIuDxZUEaK1Z2nDBnoONZRwdoqvOUFJjbV1Ke1rWvMqgwPMylqZtvdv2DPwz3nnnvvmfvEMOJ+g2Euh7nn8/39fud37tyLgpAGZWZkCv8PylywYMFr6iRDQb544cKFf2B8LV782tgC5AtlV/BoIWXPXgz0uiQEklPYxUg5xEcO1GuSkhyELlVTBnQBlIEPlyBlzN8FnSkHORunIAc5yczJwexL0FjukqVQS9h3zisjcgZADgg7jPtS+ALB58KhpZIofW5eXt58Sghgz1mSjQ9k9gwKDpWXAamxcqX35S0Dmk9GcApQnDOXKpSnFYXPX46UP3+M5ErUuHzyksAjYfblsOwKVgAVFKyYR6tErpkMDv5yWSuICgryCyStnEcZ4cWeQ7+igNVKolWvOg3Z9KVZdoaeFT1P/qtITu6yZcRKtqnAa7SKSDpjYcmqVSXpb1QIHlvJVtOvXGkCXxY6SWHR6tWri1an3whhzxTyjfA57KtWUxUVFRWCbIBvJSUlRWk3km8Yeh3+oiLEj9gRP1BxMfxXnP41Yi/2RYSfqJhqDdKrNDJ7eqg3sUzPX5YqI7bh12jggd4hMjn7hLMypUZsB55lf+ddqnXrzGXD6XSmLCNK+qJZ0RNt2bLdzNQO4MOp+xuGNgvzC8nLWYV+HQsv6T2o3XSm8kKddCiNOLRGnI5xXR+QvngNnCK/uMRy4N9Vs2N4pO3vbUcqB7MU7tyxG4jvpNSpNlLm5Cwhp+4iyifBX/OmrcLh8FPtlrRzB1F50rICmpB/VMkeyEb0llFhiul3y6L4O6kKdXyw7HJ6nk0ojGgNUplBNxl5GZ1h30O0F4jn4y9EpfRn4+BI8kEdjUt2S5MZmWXZMPA7tPCIHusjKO30lRVU8gJ3gqNSyYeTyZKuky126HVjv1dFj/QxVKO2X1XJkhc4PEK8TpAaUkyczClUngr2PTx2DI9Ug6U1UrVfFjVSDY9gfhxsoj6kqeOv+EJ1twTwnMrZuYOyy6En/B9R/o8pfQ3F//RT8IWkLay/MqLN9QA8qgDrG2eKlBZNXQU/JVaDv8dU8GsIPNRnWAc1c1fUMSJGPkFH1WAUZ0pKSSUndwpZYt+ry16jYYf4VPs0czewkoCr8BGAlTL1iZQROXcHuKVloey57Pr0h4iOALWoJz/OChtxSEcVgpOkqhpnhEkecwVTvqe8EKp8DiJ/SEGPdRSpsbGlEahDWvXVnawQr7OVHlUfltSAf/uwrP3Uxx6T8DW68AcP8iPPskN9TtUhCTup7WIFeZu6pYNuUHetRLi4mulxa7NsxBy9buCZyB8yRd9xjOjUGWzkNCtAV8ceNHRTodXdKR93ypVFuiXhr6HtEnRLycBn1MFB6uAQNXCE8h89qjXQQfmPUQenwBfSyZNSbXkZuZubutz0ICwI4R6qLrSg5OMeaqQlZWWfJPhy9CV4bIBIwvAnkxcMtrllQSdh5lhe7PsswB/hwFtn/5Kqr49s8f5IErnUNoETD3MoG2nhrlkm8BT/KKX//KgevRE80VdffdVH+rAnxBcG7Qkw6hcE5ohp4XNXNknoJX0NJF9z8X0EeaP+Nvl1hDHSaA3+GAf+JAc+GTvWBaxhSuHlGvFIo91JEhbqYXdVw5o/xon8Sf3I89gJ/YXzRBdliDAPs5cO+5MYaWCN7INFT5plh7ZyTnEq50vK39dH+EHJ9xF64uACjf556uAi/Ic0zFC4tZRMSxICuqWH1ZGqsv9aUzpM9CV2qCGib1iMoJ6PJDlhf6XlzKyXrIpdH37oG6orV0aZnHh0ffBXURhbaGw88yrogS4zGh0exnZ6FYz9msvzLo0PL7JxzCb8BV34IQ78FQ385cvfUn0H9K1LHXMf54OGK6Iygn6ajsCr6JXwWFexRtG+RwkDLv6H2H5O7z1jk/78EKyF0WT0l4ZHRoavmKMHuiZpQLHtuZPefAsza17a1Vu43fIC7Zbnabe8SKI/NHRx6Jcfn/y8Qdyw9c8jlzh189OP//hZFK9/MELYCf/Vq5T/GuUfg/+g7t5l10DEo3ePuo02YnLrodFO5fzr9r17tx+KUG+PXlaX/S9g9P5NMLbo7Giy2EvskgFJPqb/9hg9efCxKwTqvPUl+xMgBU4eICcfjDKFA6mbvoej92/BwbeuGbDffUT1eIBZ6oY+6OZIr3xHrHfLf95DuomMiF8oq374zn00+gQNthvRUz19yvgImHgYdCCk+t1Rk51eXrI/YCM/YCO/DyvKZv1DdvQ3A3iiwcFBD7Nxh8081iKrKUhW0yWL3XJEMvI9NiKeZctmYNdNxahLj10S7VEB1eWugQbIgj+HjbuShp7fLb+4ociIuHmUKZt2UZER8e+69IoLP7rT9Zp9yjkg7+7wJt1wcvqr2n4zNrZNivkTyYjoeSQXzlnx1n12BT0fZPBDOmryGe8fGjEXy36fLzk9p9+M3XX9/gB3rVvESBNTOZtF8QbT08Tr/pA5RRSXTmal+Kw1+HjsqslODyPfJIoP70s7BdYJuXACG0TxAVhDt++QweaQNfmtPUN3qa77H98dM9XrgdoB3Z0bNygpMCJXjveP8Ad3Hj6gg2FrPryCVWk+iw0+ffzITK9sF9VqZwrkunqw1pIPt2BdHt7nxqfG3bIiS83KBv3f6sFWS0Zctv5Go4vnxLBbutVB38Umt141uM1vrbS6bTnh9UOWnd8vN6lY32LXm+cN5eAmi2vdxiIBGykIOceJ0VS+XUrWasXoesXY1k6rRkKBNss+DDepJHIqop5QNkDvc7bqqm2cPtRlzYc/ZFtOJie/qttf9/tkKOtFg73zW9pLvPx91Zw8ayXWN9Zr78/4XqChRS+agnYjFQzb20YCtZOlzUFrM23aLG79td7HH6w/u77UZ+qE3uaqsvEJZ50qrwFbPrqeTQE92++1ln+vPxianYKdpdNg5lh0amq6tDNow4jifl6nEJ9Cmi49fC6UPgUaytC0M0IUf/Nrb8Cb/eROzEenJE06WiN2oLyO+j85LGXUW4XqYCoKpkcvwAUg94GHvlQt4iU+50toaKPzuFUvgb9tQ5tGvdmERo5XTuIpE2B2VBBxtk58dq5O0E35uBSUeBTnpc5Kc/a+TRruC7eZldFVjZMxFY0jGPgyxhZ8wF73RfZjuEwFIRHD62WitttkYiJrmcuVgOFuVzUulXEM28BBVDCFLe3rqg4RJacThJkoWTBtvSYaU/UiZi8/oVuCrSQXsg0cwzj7bMTizh5RXTuTlAgoLZKX6cnKtl6Dyq+t37T2+W//2Yauit9PlsZIf520LuSaEsjEMfS3QTYKS/lwCL8zIadEkReQmbLqw16jmgkM9Hcfr20/wWtdgdNtjo3TXBdgHjItaaUHrBoJB5UPE2eYlEjVG5ui2jjhbOvyW+1nwYC7obpso3yaWFyNEZUKy/RdX61qg8pkxpQpkczImQGV9mzCUdXQdS5iuHSCkXNdDVWOskn5zSAVCS1EXCossosE7HywqlJtpFF1SsiSic9MKTQ5PuFwVh1oaO52owsV/BWKeN2nO4/X7f/QUTo+qXzHTDwJQ5QEr5fzhNZydQXldZf8l+OxmdgUR9PT05NQ4DtvODYzk0h+0gQpLMHqVsh30k9PGzN6Szwei81Eo1MGigLb8YQhQJRM6LFzV4vjpI1WbML8m2fiiQQou5gs+JP4jPkzJNC1Ft0Ng4IwWyd+2gyj6fx/XFEaN0sXvXpOfPTU8fT5SNDm0mP39pzGSVAOUvqMxKLsdUZktqcLK28opTElUy/ZT3ouITVOPLTNpsuH3BYC9rZ0fnXRWxdpM0Incs2q82qc0BpNV23FmYQEU3RO5KRHeDVyzWJL1zqJsMsNfrT4rziH7FlZosje9PSm8NwRpk5FnpQPRrJ0TyZmiYZiboVEUhqliPx4QkyHmLtsrtTmO0CXXFqNBM0/WTfvpCeNRogTex+mDHbGYPqN9MzuWjHJH3Thk4piGp30uueiLXoCafSBnYTmpsF3c3zApp+CTQXtTVorvrnaq8TUYJtylmV6pv8BTc+kKp5XgqsAAAAASUVORK5CYII=;" parent="K1HLMdB7QofINSpVEcoK-10" vertex="1">
          <mxGeometry x="11.766831683168308" y="11.423076923076923" width="53.18923076923077" height="27.923076923076923" as="geometry" />
        </mxCell>
        <mxCell id="K1HLMdB7QofINSpVEcoK-14" style="edgeStyle=orthogonalEdgeStyle;rounded=0;orthogonalLoop=1;jettySize=auto;html=1;exitX=1;exitY=0.5;exitDx=0;exitDy=0;entryX=0;entryY=0.5;entryDx=0;entryDy=0;startArrow=classic;startFill=1;" parent="1" source="K1HLMdB7QofINSpVEcoK-4" target="K1HLMdB7QofINSpVEcoK-11" edge="1">
          <mxGeometry relative="1" as="geometry" />
        </mxCell>
        <mxCell id="K1HLMdB7QofINSpVEcoK-16" style="edgeStyle=orthogonalEdgeStyle;rounded=0;orthogonalLoop=1;jettySize=auto;html=1;entryX=0.5;entryY=1;entryDx=0;entryDy=0;" parent="1" source="K1HLMdB7QofINSpVEcoK-15" target="K1HLMdB7QofINSpVEcoK-11" edge="1">
          <mxGeometry relative="1" as="geometry" />
        </mxCell>
        <mxCell id="K1HLMdB7QofINSpVEcoK-15" value="User" style="sketch=0;outlineConnect=0;dashed=0;verticalLabelPosition=bottom;verticalAlign=top;align=center;html=1;fontSize=12;fontStyle=0;aspect=fixed;pointerEvents=1;shape=mxgraph.aws4.user;fillColor=#e6d0de;strokeColor=#996185;gradientColor=#d5739d;" parent="1" vertex="1">
          <mxGeometry x="472" y="-560" width="78" height="78" as="geometry" />
        </mxCell>
        <mxCell id="K1HLMdB7QofINSpVEcoK-17" value="&lt;b&gt;&lt;font style=&quot;font-size: 18px;&quot;&gt;Rust API + PostgreSQL&amp;nbsp;&lt;/font&gt;&lt;/b&gt;" style="text;html=1;strokeColor=none;fillColor=none;align=center;verticalAlign=middle;whiteSpace=wrap;rounded=0;" parent="1" vertex="1">
          <mxGeometry x="320" y="-860" width="242" height="50" as="geometry" />
        </mxCell>
        <mxCell id="DFvehgmt4rnnELiml5kc-1" value="" style="shape=image;verticalLabelPosition=bottom;labelBackgroundColor=default;verticalAlign=top;aspect=fixed;imageAspect=0;image=data:image/png,iVBORw0KGgoAAAANSUhEUgAAALIAAAFBCAYAAADT+/VrAAAm+3pUWHRSYXcgcHJvZmlsZSB0eXBlIGV4aWYAAHjarZxpjhw5koX/8xRzBG7G5ThcgbnBHH++xwipSkIJ6G60slWZioxwJ2lmbzHS253/+9/r/oc/rVtx2WorvRTPn9xzj4Mfmv/8me+/wef3389L8fu78OvrLofvj5Hvie/p84v+4wOH1/k5je/r35uEH+//caEfP4TBT/bXL/b3QmH+9vr3grH9fqHvCFL43Nnv70C+F0rx83rIn3/f70BLb/WXqfGP92P5fn/r8/2bk8VsOVjO12Ia0ZdactxlVF+s1OhrSSGexJ1cbNVqYrmPfsFyj6zvwzyX+Ly1pBh7XPwcqpVQVuk1VxYxMf/UGDPTdfM7lbcOispv/86Vi2/jnlzupMDdT0rpO+2kvymN5B334xsD/Lw8kqXMf0P6RNKTGwyFC37XIsbvEhCdf4zan/78q+vktFD/jXVyWijfCevR7f8a6t9G+ksGt/2HzP7542+Zvcv39fRr4vny8/tvCfn9RbDfPpB+3jn+/c57/bzxL6+7MOKvy/23hLx3t/vmzCxGLqxe+U7qx+TfT7xvOsXlfazwRSDIn8Z3fXW+Gmu4KI/tF1gw+bmHSG7ckMMOI9xw3vflApGIOZ5IdGIkLiksXmupKkrKMPKKr3BjTT1tRSitl5Q5RY3lDSW4d9/+7rdC48478NYYuFjgI//yl/t33vz3r3uXlij49lknR14wsCjQYBiKnP7L24hIuN9FtbfAP75+/6O4JsGIvWVuTHD4+bnEtPBXbqUX6MT7SHX/waVQ9+cCSmNubY7BhEQIfAnJQgm+xlhDYCEbARoMPaYcJxEIZnEzyJhTKsSmRd2aj9TAW5VHFj+vA/xEwqirSmx6GgQrU20FKGmqQEuWzaxYtWbdBiWYKdxCGTdHqY6aKECrpdbaaq+jpZabtdJqa6230WNPEIx1KrW33vsY3HNw5cGHB28Yw80408zTZpl1ttnnWKTPystWWXW11dfYcacNuu2y626773HCIZVOPnbKqaed7s645NpNF7i55dbbbr/jZ9TCt2x///o3oha+UYsvUom/9WfUeLXWH5cIghNzihkRi2AgEVMISOiomPkWco6KnGIGY1IVFhmkKTY7KGJEMJ8Q7Qb3CR6x+yty/1HcXGn/GLf470bOKXT/YeR+iZs7nbj9Q9Qex68XsU8ValF9ovr4/WkjtiEBMOKEv8KOrlfr8wA9l1Vn1mmtXNKezV/+epsx1zVbrEx/I01uHqMx1H7jqjWkynrNYMDITuMOazvmdtYQ3q1ioRdWP7TCi/6kfijM2wJXmfqhXht93m2lh3ruCum6uGdirN12PCOdWOoma1nF02qdDLQsVntAeeX2DmRypxTrMQug5a2DBTrJluOqZ0+SYDRjCuuA2zm1dcdJw0iuOKP5fce+V4gRB4MARsvc5456ckf33ZkBtnzz8qPy7jTOAecq+V1aC6zX3WTn6IQqE8oz8h159VHW5WJvMmR1D61v11uas526yyyHmMc5Uhl2kCVkVmuFoBqzXtsXeHuEXuuRMGx+kgOvYAjUclwiDnh991jO0fDHZVR9x7bv+/fUDCqJsW4bCnvsPYds/E9C7vvd/f7Cj+9GyuZ9426LvA1+rZkyGqQE1j5sj4bYm+TrOXEb6458huMWq2e7kgiFNK+hz558L40qI5fgpwbZEUBIzs4erc59i9I37rV4oRZ3CN5NhxVKuW7AeGfyhmKMq4Pei9RKl6JeVA9ZowS0WT2pQvj7OD2t1EO+zlPEi9VqKxF8lNI5HrFEIQ2wIp7S5nzablLNZPWwaBVE0Or5NvYGVUj05cqedfQVWBDoolDV1OXZYArvYBEO8ktYBGWwdEqumqgPggy0bAJXNKyVHCID6XTnMiiTOQS9heon3fxt1FmuStVscP3mTqvlXBggkE9tplWqnAaYfRtSlRrMB+AZbWs23GmTybuWOCZaA75jzMnIKGr6U/pk8TH/soHaHtH9+OEP3/dnLcq8HvNzzfo1whm7xJJNqmgChCyuW6MGQK3UAZ2sdqZ1MgGspb5tr0o4zVMraWEZJpqYYJbJQImov0jYXfldPS7WmTuJ1QLLviiL7s9efZ8BkHJ5Jnu7UTgHcCFLUr1AWD19L/TsyB0Q3qFWdxrFNW+Pk5JMY1JR81o/vrRjlxrmDgd2AR1zXitF1F8lXdsV+nKbCRxDMw5xuVDcQIHlGw8APPYh25nisom4iDYRaKvGlYX/USNKG0lYSGqqAFTp1IAbAVREwwNmAjrAr1llRQvj66xPuYuqRZTmyeVWCXlCI2TdYuqRwV8+E0t35QZBKsy6RRn8Cg60CQEYyL1qwOrVJj4DR05cxnBJdrgV+1rRrlRbT2e6tspOB+S4wdokqKBRUFQX8JyhrVsmMAgFgG8D9I74p2SbdDgNuD+oXFskJKAP5AYorWygzsPpHd+6cC+sNXC/KOcApncCGBoLuaEzO9SwkpYsPXPWdYERCLC8gieNWUuWJN2VSA/Vcmcd6hZPnAh1w9Zk+mmh3qlFAFMMBuhQdpV2i+JP8g1RFxsagbIBi3EbgEHxjRiAVT1A2wiBQWz7K5Z7iMOdvXv7IOTy3HaCKyd03oJuuoWqRxakaRsczx0wOHmPBeNN6akACYKDhwwn9eYwR433XlmNMDalnhtMezeo3LFmG2ba9b2bXF17TRINFOUCg3u1ZERioD9GcEqbFY17rbEqTGfk9ZBPBTIC61QwJKTYnsrOFEgc0pCgZup4VgoXoXwq4WdI+jTpfFehKsUw5dwUZiV4jJB5r0BCewq6TdQjF+kgCsjK0MVRXLC5208hEQpSIjFK6nQTz7tDv6vzKhWVWCyUCXAHhbc8wYE7N1yQoD8qApTbzZHube7OQsBwoL9dWdsz/CGXR7sn1wZ+h1H3JptgQYaCJ+IugEgAb5ZFD9TGk71cymmZaW0yrV9kJMtWKI5g5wIPeeeIzeKGxZhslI6BT+AhWM0/X+PUFdm1JSYkWKMWsQpmUpN3HgD89jEvjgKwZSnBbwgU8ITN1bLJAtBzbTqk7ICLYcJp+IxNpoLt5C9Sde3RQTCAE9DMwBqXSOjMssj92KkI9QIAWsQumI06uciFyT33ASphbMQS2raHOTcAEoWHaVNAS/WBjr1odj4Y19o9kQpgsIQWwm4YehBqRB9JS5IHtVppPQo4LnJK+gMcXxQMeCuluq0GEtgGJGVALRLqUPi+IOUKXLifAtEsAJHLy6rSDog3qqLOB7BnI0eY4S6XQodjKGbnSQ7CF/Rx2Cb2Cb1lUCtXv1qJiUUGwBMBhY8oCdTm5fJhQoWgt18bh3eqAzTKeqNAho/MomQA0HNPqhGQgIzgqyaFS9I8zXaxDW3brVBKAESZRL2OfOI2oVRIXWnWZXBlWZDnzWcykt/zNxsoGSJ+YHPvVtC+hA65LHG0xnUsPNbjEDXZBLAoNqzRtuE3sc5kNdp7d5EgK53Q2Uhewgge7fMWhAVl6VwHr4HwBUWt1CKs1lkKATZKR02/GCrrvGrGWIK7DT0WD0JVAu6gVzxmpKTmKOGh1EwoRkDzssK8z0t3wEoUBVlDdY6M/4pyR2jKeDow3Y/qsxq6CBR2ZYD+ADQVAsr3tJVfiUK+jcRCByPASGaqtZQhh9O9NAGDtQ2bz5DITGSvQ1ORdJQksmiOJrBv6CFIPRA1iq568k1UBO+PDhuWm41qBSbtrZHNY+k4MI90QPpi1CvriTK9IOtiQvUtZQ9AKmiBUEU4qPdKDaErwkJ5eihPo17mGoCTDyG7Vl8qyd8V2bGxX+W/HGPEGxWOOmHYYC+sGsEX0BVxDGKt7eqQmUGSJfCjySKUTubWhkiGr9GAeClT/2dpRMOALxK/lmYnlCaJONG50WHTiPyBAfeU+qIep4kmQ4OFcLYMGaMV0d5YTV2SK+4kQkVogc+dmYPyLnPBOqTIcSBPb4IYNRMs2ADyJkOpToQrPh6RxV80LWALqG5AjOxl/WqK7mQIb6OtSTqI0SSOmNfN+GJqAxajNmq36Qe+GAR4/VMIiBoHP0FS3yC24mQ6KXuhJZNucOVMkdq5BhohdA6LPjZZwXLpIvBn7+rudOZEanTVWxmEf4HyiHM8D4tEmkqsgVtQ/MwZE3lQNEzABJ2wA7rLI+GQpAAsBhUFik9BaKHWqHIWGU8Jo1Z8KRmF9LDJNTaEnQBW0lxenOyNXSOMVU4aGO0Zhoiod/BoPyhofLKAhRMqR9tCW4yQMUC6GA5SbmZUBIw0lVcLiLKKzCXDPH7xRGdIv6UWRCR3Xruy1InrwId97DomHc39pBVGCOMMbV//5gjaIlGxJiCFQ2YReaw7jlxem5JEdcPHd3myCbhC6ym9MdcI1cBFL8uHoorqGJFdkACozBpNKUecBYvFNBkwCuNspBeuNseN1AeNSM6gQhJunA2nRuwa1Qm5QISYPPdEQKZsQerLmIAjwlVRXUCZBGRgOgbiJFQ6QN/wphBo06LDIqzXRmq3jYNUEhXKM0C2RaqA+EPIKpeOKWb1eR+KAHFJeAAbhkHNI81murChUfWruo+vDgplChkVtkA/VTRYdytY9voamwm/xhG1RGZszyiB8NfCwMBg75HHARuitW1IQIaP1dzPok9RGKoci32lIY1lmUgOVOagbmFk6AhDVFiKNh3IfjHyoV1Am8BDsdtgIi6Cg4F6Ua8Cg9QpsavuyjTcKO6iU4qk8e3M6DAiJCDoxwTJsIFd9hQHLFmxZOQxkAAGl73lq1ccESitgEE5B6EEkV4KErxPDm0PlhZ8AaB3DvWGeNzqyDCzgV29CO6pwc2Joj5HiQCF4xTqBuQQ1vivbSj/ra4YyD41547Rh1fU1EMrTPkpSqSiCO4aDC9XsqhPbARMoR7TJtM3GMGFOmL1xCIVQzWr70dMemNl4YWqHETl4NGk5tOTSoBaS3CHTw1vSXq2gxgFuO21AxoeyIB2qdfS7mQOLY9icVGWsDhKkXLppGE1ZjsRLBG+WAdhv7wDQxeyGA8NJ4+MxUp4gASMX8oXgdrIeSx8BUyYAoVW1QLSghNumdWgBRnuNTnI5CKYxAtSbOC3UDKPgd+QH2A4Y4C82AvSyROFliljQZXSGTmZp0sMAp/E4KrHjBU8BqOioIskIyCIFuyMYl/wfiaSJHryDt6xpn3IM+TA7wFGiMvCqZ5PKaUocyjDhA2d3eBSPNdEVe3Mahju3gPrAC/olJjhLmMOYASa1rKq0T4zGThwaSugsCJz0lYIYfJhrAb2XIB/qokmbADlMQwNs4B+i9VhpK5MKaCnyoUIDgRPsDuBJ78gIfKaYu9qO6kZk9W4i2iIKtMBdAJ1vbiDCtqvIUaAfzTGqA+psOopTexQkctGiI2NuRrgu3pEw0evvqThf1Eibkt6EADWlqyP4kSSFna/XftJ1ByxodwZ8lKrBV2jFKBaIAkYNS8EU9vJsQqWhIJNyg/29O0SKQMgsNU9k37YvjjlizFkQa14mX/1qiCYQyG1wqccdhL9SJqg8lCj1Da/F6JsYnEyCoSIqUSKZAEma0BwAHOSC0ljIV6GjKcD1zrilTKWRSE0J6VLlUA2SYaA1eoJOoX/wbuAs+wTu/tSkYwBhYaMgXeQnmwHFRiIzb5chgTIgRK6aqBtigt3fQGZxu8JLAA9w+rqgGfE+4YmEdcOmVg/qgxrHxDdEttVauggQ8ao/ZCzEcOWJg6RlJ6C06uNWgg+ytsiVY7LkrIL5gScBoYNTXHxBXdO1Jna7MymPoXeRBFkJgFMCTqN6C+4lrWKc1bnq7S9GHIBgl2ZCyhph4ECEc8qYkcNGyh0an/hBPVroixrheQ88EYeOEwDuBHSRVmAZbK0eFbVa1E/FsYvhuMsK2YgW4pjILkw8CEh48IgDizC3g67A06xHGpLL5aO3AzrCsgweoeC79IP0Cj0ueXX/IHvwb5MvSJKkRV42Otw3gl1zWRxVKQc8AtR8amFQKmkEAoGdA7iWpQ9FcNyA9Ml5UD0EyaQBfCwiGlTFR5DCQITS5syKnjeKYlsIOTKGpn65AgfvLAQqFd0dRaVk+g49eSuFkIFV1SewCragbJiaQfJSfmjm4+6e0LMErkhjt8D1iS9cM1jr4j0dM98QusAkPYRutRej1P7LbwAPIn279s7kD3D9Jo2dqQjkJhqLeI7CaQLcvzYqnRPMu2R4Fqg23OaHAvK66rHTrUFPFyjdjvqFqhbr9Xob9XE+pmUCHlWm3ZJkPakCzzGXKP63Xj9DTNbJvQH3f+EtGSq+nLcvT7uFI0j2DNqEnFxZsgND579whVjqll0eAcQ7QDiwmRRbxifS/D2Rm1Abw27bas9s4CnnUgt6mHySkCYQiPaPCH13mkFsIX4CrSimAobm8Bk0M6DUw1FcVRsAKvDDXZ+bEIKNM0HbCFhez8ha+soFyY46EEWwTqrWF52ZtSzttJ6LKyMa2BRUoOPNKF410n7zbxzBS/gJsX5KChpw0w9ooPgQnZA/2siohP6lIRxou6mgXq1G9olgTJiLiMNB0iDlBMLaM8N9dYZINowqVTUZ7uSyqVGGNbpatwIXYw6EQqqKYo8XihqzASMV0aSUy8bvtMGQgWY1GHiRzgcbUue3+wGCUbZFDEDCItUlhR7LQ4cFhIqKzEZJ6xY4FC5cVI9oIZu1zZcno30XA74Dky2qGHOykR18xER8k7LpEZQtWVGL3Ga0CSRmg9+4LJWz7Yozto0d4forBQII6KySrjaJI0Ff6wRTpO6pp74UPLUG6robEwDodZRok5qjo6gwa5vA55OoLgjZva2Q5wxGsBJbFgUcqiX61ucoasJdqg/IsOF1Np6GrJ3bZ+6UtT3O2QBpDRKUccLt9C0JcsEKretE9kEmqBpE2KcgoEFmc1n20cNRmNqrFYky6+2i2xTPYCCsQ68k/E0ShmeLwldtqxXrQ/83dXM0qEriX3Kjvs5tRNsCmkZLWzC60sHduoksAdEjED+BGsQRYKyg1rNEUEeEyLPkxpd25rRIaepHAwIiXYp+RPqfGdEmpRrQhRv5MQrGO2t/6yc37+7WrrGhvQcm1QBY7GJF87CVqAKJl5U+05V3SRK1LQ3sLSnhy6hYL0a4RsihPtHjTExD0OczSC42/rY+LFDd4zMHgMmJTns0xUcXmilrTLMQlXL0YkICkr5CFnw9pCmelsaYMKIcjuPNYAWkecobm1rAt0DCAk5J5S6OrRIOccnpnYKJ9o0L8aTPesIJqU2lCF3CFvxVq+bhsIAGm7OKDcAUCcMAMpDFTlWkwLClkmZF+oJU4XPAekBjaTVUS8WFAf9mBr8gu/DIOpzrbZeUU7mx4D7yfGkpqp4ZcPyVDmViJ57PS6wGZTNVGGSBmMhsYZAHFDj32uMA05MyBpse1OpBRa1b76XlHSSCR06YkeSIV1sAe2UUJBCMegREALiI7COEyS5WaMk7T/x5FVd+Cy4xb5bKOiuHH06CH1KDEvBgLQv1+UQtQ6qTm59pZyhbIi1SHciqRL6Dxl8sDik94BzD/peFLxVamQ5Whp5Xohik6JvJPxAGeBZHFU1UbTwTBSQ37fTg85KXPwkGS18F/Sq7bfB4BfqFHESIJb9dip5W/jjZiZq9fqAP8C6SaNP3I56iBoqyBlZyepfK7CjgODaMmRFyURVvRAW5z2iz29jqQqUNjlOMPV2agMvg2jSlgpGBE5WM/qC/qkc53NWu4+PLRlyHaQAtlFbKJmg3XMomUuiTfo8ZehsyOW6LGZ91Jv4xMZfU/3qYjP8fW2rdPBIIWn/FJcvozUO6yoKZYm0Oaz9Mm6SDyYQMUIKUVJru6mONQurg2L4i0WQkPxYOJTER5RvnV7ZgjFtZcpg4BQomsOPiG1ICgluDt+8I9WbN3mK5Cl+f48M6dYab2J9J1xdtINoRsVTgbiGmahqNF0a0sAO/wjkqqHX1H7oUgZbHWHcJ8p/kWXw/CRusx2DJHTolBFCENp4h8FYu1SCQ/ISgs4aVjVpIEXQrIGo2seS5cOvquGo3ssYqV4+jI2GPfFNZEfIqWjv2kEzvL2hP9WrN6VvZyELqpFBELYrRTZEP5Z2XQlNQMoHDGynmjEMoP1K2PUN6hlZd2RSF2SmU2VgyMSAvJ0BJB36Lh3c6UAS4z+0Tfe2yzH89WILyRqHTtf+hgc/bsI3gRLl6rSAzqDe0rAtrQ01TiggqhuFQgIBfSgg4AXHqNM7czveTW2eBXSzlA22hoqYgk4PoYQWMddk1MtSo6NuNVAJrCge0S4WMciiuPCHgyOGI5iX4ZOsDCagLS8wYbIbiNqSdf5jIRBkcqrUiHb5iUmuUaoR+WIId2wAAdlBnfUBYyF7DuprMJtFIuH6GqiLWNGeHKzEiNQJH7N6HVYK6nkS39dEHWpbosCATWSKlBh6TIc9yD+1CBnIEbhqj5HidbDcFqTirlrrQ2JRXTJEH9a+NrUSKHNkR2XQDNfIXPXQ8dfw4EWzaXO5dIerxGaRFoHwLm3UII5Q+cb88RQpBR3WlO7RvkGcVOPBT6GkM/mCcUYyA7ka0dYuZWOwWtl3JgAMRSWc0AhfWFW7zCCuDQQbY5GBJyFIV3DrkN+t572cejLlJpx4ZPxKcUZspKD6jNluoDql2XfAskT0O8INTRqp2P76BzpuR8KTkEwW9T4nawKvqP9YcOwxmhp/ZolcbjqrJOFEOCdySkducDqMAF067sVSOmxmrTrvg+rE2JM7Vaxq2mC50lM7QvbaCaIkgY5Y88Szw2pl+ajdtLgaxswlPHNp3S8k0g5osNfKLmrKmdahyXLNnXb31J2P4eqwG+leX/ze7lFaLTnVEGwQi3wR+aCzXoxaEFhgohNvlvZ8+zpMtF3gQlAOcC+Euwf6Jaaju+hSAuu1h1lxLzrnN18jBgsaWjjok4lXkQYrQek8PqfXsPCgM1ZLDiBo69C0sV4qggMeRmSHOIavGO2ydWnlBJMNkDMKWcea1KRCXSGHSXN/MIusvUtq6eCIp5gkqmO2J4R2IdV3JFAs3/7hFJB61Ys1WaQRZJUdwQgAona7inYVD04SvZOetrdiclt3kQlGTXfYf+e3j88a6tyYjmkNghedzqMaWomVI+p4bXXkoS/YJu+qs+toOcpBzmtr5IhGEAEITBFBnyDPEsBYh78A0w1pJrmAEwf1GXuFGqYwWwJUey0mRsAUYS7Bm6kT4No2bGr+iM8cvmQv2TyQY29f0Yhn69C1jl2+/tiFfHXaATOHguE9SBUSB7WuTofl+s6quIasO8AhaKTtxOB1fgNtdzFp851mxGHzFq+zLabuclSjvELjC0b1n60/RoQ5nDegoxD6xg21PXe02YftCDHJzKyygNog6qSwj/80c+QqgB4x5arLVCJjq7/KXPlRPo14Yc5gY+FB9TAlumjqBBnqFYkjwtURR6XR0a4JEczuqJvZtchbtFFDfegPn4IcOnc1dBbtoHk9+KAjlDgg0IREkyLQ4Y9NwiD9htZVPXLtWL6zO4OaxWqSHbvYO6wDyOIy1PXV0dlF8tzVUZa4RaYidPNu9oAzuF7mykeVLcywdHjSAv8GQozohoox0+Ym0SZbog7/ETl5FegcqJhO/Ye0xSS6RDLt9uiQHlSiLWRAixBDt1WH8QjIwacgIOxtROOFdOaKlHxMG7TJhKRkCugh7qtDI0lJMFl/rL5pz/2m1kzjRpSAqFvbEdpMhMSthu50yFFn5/B8rxPBSiAP1VVizXQiUWdcSTAmjacdoEbRxlY+Q6dhQIhIhYPtDiBfUojUEURFrLenyED7i1qEtrVd1XfVLkQ6NUFzibuyZgeJAYxFHTlEO+v42fsBYKGWn1rfOt2VKWMCTzaXDcSvhx8D9/8TSW6GH1k8Fn9ZcqBqRsdiUMChoVLzOnFHZFg1Hfjr5/mxfinyU8AhpEgsarF0LkBiI9NsXPJIW09xqcWLc5SP6cxvQCrqB4iodSqP0AqLgwyFaYsWMDsITJhJB1Z3FkEGdWupMoAIKdxq0e7ZfoTU5tlaByEUYKA9H6QEueinjqI3LccuL4/0jM5RS7+m2SaLGHrrWiimBMlW7XLA1CWiFtTvRzRWO1dnAphC6VMHvPBkDtK0rHPkqEs1mcfLYItR+9JBAlXb6FWHBVTn6v2wjtgyCACVEmSduwR7VesEaYyw6OqKxI2tTdpa9+LwpFMxOhtOteB1da5FZr4eBoWyjGqM6Sj1JLN7RBarXX91TFN2kMWDeD9ujFr2Os5HhKPyeTf0H6BNykT16tD2QT7IgXQsmUcAqEFMEmpG6gFgp06Ij6gQA5DOARmrHqgp1HsjM2SdsVAF4XkaYhSfqGZ3rRlpWGXEgT6Aevqt427MvNyos2h4AOgGCAAKa7xqulU9xKM9jeVgx6KOSEYyaFDYQMxSKTp6Hb16LWq4kum5qYM6tc29ZJygZggGM6G2gbp+JPHVuUD1po+2OPAKZNRCVcKYo/FhncmJyAJESSWCc6gddLGNh9BkBoFExoqiWnAZ4n/IdplOKZS3c7fVA0SazuKlqCn31+x+J34nRN+OVAf6BgbOrjwX1RFB3BrJtG/XGVCdHUIKqbfNO+9uqAdT3y4h/7VnEKippMMehEkmwX2lfu79b+1ZjdVfaBuf4FmWrlYtdwfDa3+HrqbOXyavJmMgyMccEEhZ6dyfr/ltKOr5nUH5JNPhg60juL1KfIeD+2A+xn1hSTioxrTVlb2YmqxdLTRR6Pwq1DF1eG8zGe14JznzmqllbU8jy21oy6WXQP11/D4jUAMeX++8GjzaJKLoNjG3KnBGiuDGtCchYQ5gLQKi3Vfu5O+AgrJ2FQ3nTBqwmrgjKVf16FkBvpC9AOM7VItChJ6U8kvPP8hNIeqbNgEkheZDkFQz4h07gBhFaPasJy8e7MG1S2exm/Zh2gcsINYCSCcdNNH+FlR0sTrof/Aqhmfr3TtrxKuwc8ZKcKt4oI31tt+ODlMNHZrQSRBy3EtIJgOf9m1qSAD9UAVW1mEPmZAMunaTtEO459GOhmRU6l8lqZYAIQQ1QsqLrGQZ1wIC+MVBGKXoUCuv31TSO7iXmJgCNbSrRhmgkLld8K/XIZ+KzrxDC6MePskvywNEeoQWyaPTLMw+6xQAoK57U6nz6owa7oU8JYeBAFQNMMyIkRWShJOB2jH477qsx04GEJNBRsJP3SatcNCJil5T0BE7ICHLLnC3LXvcZFGJpapN57tZdGcJj6A2v3ZiohpY2By7ehAF5EeLeT3Qgl3Z4tveYDGd+5cYoaIZXnuPMlwX1YIa72Ghdy6jggTQOeoTJNM5WFIfkglyUPFKI1Ck9jbZJFOyPhTwoE6PFpo8Bm8Nh/wquX22YHIVtuJJF0WLhct1tUIKMYJVtpr70ngBkIeIkvs23FBy8W8PE+k7uUAQ9ZDEMIwWpNRzxo9j6r0EtZ4+wa2okGpPTv2wh6F5vk6kGog6np5DgarTJwUYdnhHHpJR0PxRH3O95reHprS35I7OQvCe3CRgAjSFIIlDj3bxkg5BUjHaIwabGcFCJdwp5D7agC/HtHVnozr8JzA9Rf2Q49WTDU8YIh0R8AHxhdZTow1eLEOrHVEhsizdUtMgyIhU8SIJg9nUKDxXjyChDpCXQx1EFl+PioSgM98sMiEoLNbQO7SZgeJAXuAGNvXvdPzu7Ux/FZS+Pot9s1qPWfuugF5L5Knuo/0hNX8XkMyie2aHPElOB2f12FFWs2IOnaVeW63IxIwec0mETJ1MBLgAjSYcgzBHIiIDEUTSLm2KB02AFSuYaGpF5+u9GqoQpcju6hDHfW0uHWshukg5QAmevZ/GGdoS0+4IMZ+Lffu3V0YiSqTKHNu+kFN+Rw436ASxYWZLkFm1AxK0TOYLQ9UxcUM7onq26+JYBKbpHjVdr36oXUeYWS+mIB1gbS7mDpQtlfV5W/E660P1o+oipN3AAz4Zknb7Ys4dHEJrIUabHhfRnYI6dvBD39HQAjhvndyv2nBPMzmuwKCG9rHVjSvrtR3VZ4xqdujQwjtWQvj6+uuBqw0Zowm2TT06kIw80pkcJgytM0f4ilCgFjqcCAB2PW1+RLzUrul86avTnVilppOIXENPJ4TjzKCTdIseN3wnPnXumvTQsZTyVk7n4QwRCQZMLTODncglPVNw+eB71MKmm7gjlAo6HAP+eWgrSPCDr0cbtEFubM/owbmmg1p6nrnrkQDt3HYNKxgy0GlVddJOm52EkhEweR2zaDo7KhNIsoJAFJ4Bjf3ZAS7f9XAUhEIREQOYNom2ylSvBPgtTe0tbUHAkXr6A/aPwTc4UZgJdOrhEt20VbRD0sG1npBCiAhAfZClLJ5OYurAJKPoWWQSDKVYWSvEESmPrHgPDKrJ0iusgRUdMg0sznQNow8HkRxT5z8IqDb51pMDOmCEitVzbXHr/+tASi7pEaLxruwl6fwzLcOBJ5RqfIfRwcf9fRoL6a9nDbJOTevI9X1P+ZEiH2wo9kOWBWQ8nB2dzvaqCjH8kEaEzLkvkobI6UwFORsKSiGGy/08OeopWkFlmF3nQhI6C8zb2qY/ahXMWEZUJwl0I+NIAj2WWwBQor2iV7+PlQx5PJ89qlbkmvQ4gKuG5mzqwFJOiOck1NB+neQsmhl1xySXDlxzbdQOclAnnGAYdMt4z6yQLtBMdLg2lF/bOrGdtb+bFWA9yNUi+RX1hAAptTAdJCxziXo8SxImaxN56qlPPSGFqtW2sh4MjjLZeu4CqA8QA7fRbu14qCS1vyhcrzYvpGtvCym/xwCpzH0xx3qipPQN5SU9oILlQL+hn/FbF2uEkNAD1Pv1rmUryIkVPLJj15qGzjY+xYaDBav8lQjrvCbLGvRAa1R/EERD+UPlTLm8s21D9LN0MPbq0O17rrezvjqfHaPlpCd5zmOghcJ8T9VRQ1KVaGw+izjhQ/OdpK11a2cFzCSeV5agA7Wf3eXtrf1xe/n37/WduFifTvGFkWEuhyvzEyxDz8ukabcBH3o0IlQ2XuRwG3AKUY05/yjYcfUwaohZT1PrsFfrnwO6rMk7Gk/2Rh2lgApxdr0hHtRwy9rDl+u+n7gSKh1fYk5EAFN/RDxOD2BEnZhsgDtqXdvRKkNYHnGkx1708DRqRfJeRzYiHlydGsQaLN3VMMJVTsffq2dhIFC4Rkc/ei9oPL+0EWx6Xgn817ODtUsmmrQWVWzS59gYKn1DPwj2LXXvz9QWrM7xB3jPMyQ9OaEWKww237MLHo6cJeoa2iHQU7hTj6sfNel0Glrnm7NMlYyxNoWbUka7g1MW9hkGgfe3iUfhXMSb+3/WnBkyCElkegAAAYVpQ0NQSUNDIHByb2ZpbGUAAHicfZE7SMNQFIb/tmpFKg4WFHHIUJ0sii8ctQpFqBBqhVYdTG76giYNSYqLo+BacPCxWHVwcdbVwVUQBB8gri5Oii5S4rlJoUWMBy7347/n/7n3XMBfKzHVbBsDVM0ykvGYkM6sCsFXdMCHPkxhVGKmPieKCXjW1z31Ut1FeZZ335/VrWRNBvgE4lmmGxbxBvH0pqVz3icOs4KkEJ8Tjxh0QeJHrssuv3HOO+znmWEjlZwnDhML+RaWW5gVDJV4kjiiqBrl+9MuK5y3OKulCmvck78wlNVWlrlOaxBxLGIJIgTIqKCIEixEaddIMZGk85iHf8Dxi+SSyVUEI8cCylAhOX7wP/g9WzM3Me4mhWJA+4ttfwwBwV2gXrXt72Pbrp8AgWfgSmv6yzVg5pP0alOLHAE928DFdVOT94DLHaD/SZcMyZECtPy5HPB+Rt+UAXpvga41d26Nc5w+ACmaVeIGODgEhvOUve7x7s7Wuf3b05jfD7YqcsIwkl/SAAAO4GlUWHRYTUw6Y29tLmFkb2JlLnhtcAAAAAAAPD94cGFja2V0IGJlZ2luPSLvu78iIGlkPSJXNU0wTXBDZWhpSHpyZVN6TlRjemtjOWQiPz4KPHg6eG1wbWV0YSB4bWxuczp4PSJhZG9iZTpuczptZXRhLyIgeDp4bXB0az0iWE1QIENvcmUgNC40LjAtRXhpdjIiPgogPHJkZjpSREYgeG1sbnM6cmRmPSJodHRwOi8vd3d3LnczLm9yZy8xOTk5LzAyLzIyLXJkZi1zeW50YXgtbnMjIj4KICA8cmRmOkRlc2NyaXB0aW9uIHJkZjphYm91dD0iIgogICAgeG1sbnM6eG1wTU09Imh0dHA6Ly9ucy5hZG9iZS5jb20veGFwLzEuMC9tbS8iCiAgICB4bWxuczpzdEV2dD0iaHR0cDovL25zLmFkb2JlLmNvbS94YXAvMS4wL3NUeXBlL1Jlc291cmNlRXZlbnQjIgogICAgeG1sbnM6ZGM9Imh0dHA6Ly9wdXJsLm9yZy9kYy9lbGVtZW50cy8xLjEvIgogICAgeG1sbnM6R0lNUD0iaHR0cDovL3d3dy5naW1wLm9yZy94bXAvIgogICAgeG1sbnM6dGlmZj0iaHR0cDovL25zLmFkb2JlLmNvbS90aWZmLzEuMC8iCiAgICB4bWxuczp4bXA9Imh0dHA6Ly9ucy5hZG9iZS5jb20veGFwLzEuMC8iCiAgIHhtcE1NOkRvY3VtZW50SUQ9ImdpbXA6ZG9jaWQ6Z2ltcDpiYjE0OTJmNi02ZTVlLTQyNWQtYjVmZi01YWZjMDQ3OGEwNzYiCiAgIHhtcE1NOkluc3RhbmNlSUQ9InhtcC5paWQ6Y2UwMGViOTItNDkzNC00ZGE4LTljMWItZTgxMTc4YWViM2JiIgogICB4bXBNTTpPcmlnaW5hbERvY3VtZW50SUQ9InhtcC5kaWQ6ZmExNDZlMzQtOGYyYi00YWExLTg1OWQtMjdjMmMwOWU4ZTlmIgogICBkYzpGb3JtYXQ9ImltYWdlL3BuZyIKICAgR0lNUDpBUEk9IjIuMCIKICAgR0lNUDpQbGF0Zm9ybT0iTGludXgiCiAgIEdJTVA6VGltZVN0YW1wPSIxNjg1NjYzNjUzMDczMzY0IgogICBHSU1QOlZlcnNpb249IjIuMTAuMzAiCiAgIHRpZmY6T3JpZW50YXRpb249IjEiCiAgIHhtcDpDcmVhdG9yVG9vbD0iR0lNUCAyLjEwIj4KICAgPHhtcE1NOkhpc3Rvcnk+CiAgICA8cmRmOlNlcT4KICAgICA8cmRmOmxpCiAgICAgIHN0RXZ0OmFjdGlvbj0ic2F2ZWQiCiAgICAgIHN0RXZ0OmNoYW5nZWQ9Ii8iCiAgICAgIHN0RXZ0Omluc3RhbmNlSUQ9InhtcC5paWQ6YTA4YzhlNmEtYTRmMC00MzViLTg2MDAtYTBlNzdmNjU1MDQzIgogICAgICBzdEV2dDpzb2Z0d2FyZUFnZW50PSJHaW1wIDIuMTAgKExpbnV4KSIKICAgICAgc3RFdnQ6d2hlbj0iMjAyMy0wNi0wMVQyMDo0Nzo0Ny0wMzowMCIvPgogICAgIDxyZGY6bGkKICAgICAgc3RFdnQ6YWN0aW9uPSJzYXZlZCIKICAgICAgc3RFdnQ6Y2hhbmdlZD0iLyIKICAgICAgc3RFdnQ6aW5zdGFuY2VJRD0ieG1wLmlpZDpkYTdiYTA1MC04ZDI1LTRiZjItODJlZS05ZTBiNTA3MmIxYmEiCiAgICAgIHN0RXZ0OnNvZnR3YXJlQWdlbnQ9IkdpbXAgMi4xMCAoTGludXgpIgogICAgICBzdEV2dDp3aGVuPSIyMDIzLTA2LTAxVDIwOjQ4OjQ4LTAzOjAwIi8+CiAgICAgPHJkZjpsaQogICAgICBzdEV2dDphY3Rpb249InNhdmVkIgogICAgICBzdEV2dDpjaGFuZ2VkPSIvIgogICAgICBzdEV2dDppbnN0YW5jZUlEPSJ4bXAuaWlkOjZlYjA3ZjMxLTdiYTQtNDE0Zi1hOWRlLTdjMDA3NDU5YzhlOCIKICAgICAgc3RFdnQ6c29mdHdhcmVBZ2VudD0iR2ltcCAyLjEwIChMaW51eCkiCiAgICAgIHN0RXZ0OndoZW49IjIwMjMtMDYtMDFUMjA6NTQ6MTMtMDM6MDAiLz4KICAgIDwvcmRmOlNlcT4KICAgPC94bXBNTTpIaXN0b3J5PgogIDwvcmRmOkRlc2NyaXB0aW9uPgogPC9yZGY6UkRGPgo8L3g6eG1wbWV0YT4KICAgICAgICAgICAgICAgICAgICAgICAgICAgICAgICAgICAgICAgICAgICAgICAgICAgICAgICAgICAgICAgICAgICAgICAgICAgICAgICAgICAgICAgICAgICAgICAgICAgIAogICAgICAgICAgICAgICAgICAgICAgICAgICAgICAgICAgICAgICAgICAgICAgICAgICAgICAgICAgICAgICAgICAgICAgICAgICAgICAgICAgICAgICAgICAgICAgICAgICAgCiAgICAgICAgICAgICAgICAgICAgICAgICAgICAgICAgICAgICAgICAgICAgICAgICAgICAgICAgICAgICAgICAgICAgICAgICAgICAgICAgICAgICAgICAgICAgICAgICAgICAKICAgICAgICAgICAgICAgICAgICAgICAgICAgICAgICAgICAgICAgICAgICAgICAgICAgICAgICAgICAgICAgICAgICAgICAgICAgICAgICAgICAgICAgICAgICAgICAgICAgIAogICAgICAgICAgICAgICAgICAgICAgICAgICAgICAgICAgICAgICAgICAgICAgICAgICAgICAgICAgICAgICAgICAgICAgICAgICAgICAgICAgICAgICAgICAgICAgICAgICAgCiAgICAgICAgICAgICAgICAgICAgICAgICAgICAgICAgICAgICAgICAgICAgICAgICAgICAgICAgICAgICAgICAgICAgICAgICAgICAgICAgICAgICAgICAgICAgICAgICAgICAKICAgICAgICAgICAgICAgICAgICAgICAgICAgICAgICAgICAgICAgICAgICAgICAgICAgICAgICAgICAgICAgICAgICAgICAgICAgICAgICAgICAgICAgICAgICAgICAgICAgIAogICAgICAgICAgICAgICAgICAgICAgICAgICAgICAgICAgICAgICAgICAgICAgICAgICAgICAgICAgICAgICAgICAgICAgICAgICAgICAgICAgICAgICAgICAgICAgICAgICAgCiAgICAgICAgICAgICAgICAgICAgICAgICAgICAgICAgICAgICAgICAgICAgICAgICAgICAgICAgICAgICAgICAgICAgICAgICAgICAgICAgICAgICAgICAgICAgICAgICAgICAKICAgICAgICAgICAgICAgICAgICAgICAgICAgICAgICAgICAgICAgICAgICAgICAgICAgICAgICAgICAgICAgICAgICAgICAgICAgICAgICAgICAgICAgICAgICAgICAgICAgIAogICAgICAgICAgICAgICAgICAgICAgICAgICAgICAgICAgICAgICAgICAgICAgICAgICAgICAgICAgICAgICAgICAgICAgICAgICAgICAgICAgICAgICAgICAgICAgICAgICAgCiAgICAgICAgICAgICAgICAgICAgICAgICAgICAgICAgICAgICAgICAgICAgICAgICAgICAgICAgICAgICAgICAgICAgICAgICAgICAgICAgICAgICAgICAgICAgICAgICAgICAKICAgICAgICAgICAgICAgICAgICAgICAgICAgICAgICAgICAgICAgICAgICAgICAgICAgICAgICAgICAgICAgICAgICAgICAgICAgICAgICAgICAgICAgICAgICAgICAgICAgIAogICAgICAgICAgICAgICAgICAgICAgICAgICAgICAgICAgICAgICAgICAgICAgICAgICAgICAgICAgICAgICAgICAgICAgICAgICAgICAgICAgICAgICAgICAgICAgICAgICAgCiAgICAgICAgICAgICAgICAgICAgICAgICAgICAgICAgICAgICAgICAgICAgICAgICAgICAgICAgICAgICAgICAgICAgICAgICAgICAgICAgICAgICAgICAgICAgICAgICAgICAKICAgICAgICAgICAgICAgICAgICAgICAgICAgICAgICAgICAgICAgICAgICAgICAgICAgICAgICAgICAgICAgICAgICAgICAgICAgICAgICAgICAgICAgICAgICAgICAgICAgIAogICAgICAgICAgICAgICAgICAgICAgICAgICAgICAgICAgICAgICAgICAgICAgICAgICAgICAgICAgICAgICAgICAgICAgICAgICAgICAgICAgICAgICAgICAgICAgICAgICAgCiAgICAgICAgICAgICAgICAgICAgICAgICAgICAgICAgICAgICAgICAgICAgICAgICAgICAgICAgICAgICAgICAgICAgICAgICAgICAgICAgICAgICAgICAgICAgICAgICAgICAKICAgICAgICAgICAgICAgICAgICAgICAgICAgICAgICAgICAgICAgICAgICAgICAgICAgICAgICAgICAgICAgICAgICAgICAgICAgICAgICAgICAgICAgICAgICAgICAgICAgIAogICAgICAgICAgICAgICAgICAgICAgICAgICAgICAgICAgICAgICAgICAgICAgICAgICAgICAgICAgICAgICAgICAgICAgICAgICAgICAgICAgICAgICAgICAgICAgICAgICAgCiAgICAgICAgICAgICAgICAgICAgICAgICAgIAo8P3hwYWNrZXQgZW5kPSJ3Ij8+gt/81AAAAAZiS0dEAP8A/wD/oL2nkwAAAAlwSFlzAAAOxAAADsQBlSsOGwAAAAd0SU1FB+cGARc2DR6tS2IAAABBdEVYdENvbW1lbnQAQ1JFQVRPUjogZ2QtanBlZyB2MS4wICh1c2luZyBJSkcgSlBFRyB2NjIpLCBxdWFsaXR5ID0gODIKg7FQJgAAIABJREFUeNrsvXeUJVd5r/3sXfHkczp3z3T3TE/WzGg0ypEokEgCg7BlkY0v0YAJBl9s43ixLYJJsgm2kQwiR4EQGpCEspBGmpFGmhy6ZzqHc/rkSnvv748ebN/PNohrMBLq31q1umutWn3qVD/1q3e/77t3wbKW9fiUOLk9Jsnl67WsXwctg7ysx42rLoO8rGVHXr4Ey1rWspa1rGUta1nLWtaylrWsx7UMRixfhSenxBMZ2o/wKXlx97NMqSdF6NyMeLrDoVKVfYNfkLFyzdZTbO64dUEcOLI/U5kx3o/GV/rqPVfMpO59f19vPbK//tHU6K3fyYp3vWw2WUZhGeRfmS772jPkTlG3s82MUeM1OejOitFjp4nRsfluHjx0Mc2gl1idLqReZwRpjB3g2nUIBzB6SnT5n8m8/YovbWgOBjv/4E9OXhBhlrFYBvmXf75XvRP6N0jituQ1Gc3l79nGXdXX0BbDJGIQRCfCzgAeBhdBjCUXsK0MGh9DglQJRnnExgA3sWrtm975yG/NF5DyfbxX/QfzX9bjXvYT5UQ/x5XCMMAr940L3vIawdv+poOP3Hg+x6pXYWQWI7vQ0iBlHSNctE4jpUEbCyELKKkxIiRReTASSDBSYLiMw0esD7998QqzolPxrn8F1zr5Uy1jsuzIvzBd+6bni8H5V4tntD5i89DBF7NYfztab8UYGyM1wrIxliZRNlL8xEkNxkgEGiMF0lZoI9CRQRiJZRkgQagEi3G0qdMOp4Ed+N61XLiiKZI25tZJvYzKMsi/kIHdHY88Vb5L7bTuvzT5Q1ORfwhSYkkXKQXaGIwRaAMGs/S9jEEIcXLfYJRAYpAyQVsthG1h21UsIdBJNyoSKAQYC0SIUMcpyOvFm9f+5Y5n5Jrfev558rcqVyRPMb0CPiAQH1126seR5BPjbhPmyoXXmPvekDvNVHglQjgI6WIApQ3anNz00iaIlu4A85P+K41n1Ujb+/HlKDl7Lyk5CVEPJulFaIGQAZas47qzOLbGstbQMG80H9n39Rf93p3P5W/+ycy9dLdArNSXcNayQy878s+pv3iPxdMvgje+5yIOH/4iRvQgLYMQJ4OHk7ljY8TJfZBCACePMQqJwZURtmjiyjnABRMTJh6Os4gSawlUBiPAtgVogdaA0YikDWEz36tft+dba28Y2rzPgL2c3XicyXrcn+HbX2Pzjnc/j0MnPoewuxHSIAUIIRBCLbmu0EghkEIiESeHa+LkMRpjbBA2SIOwXIRy8TmMFYziyiYGB0UWhQdoLHsCbWKM8BAWGJGK6nTm/PJXn341WnzyGcsQL2ctHltM/JOQgj+66lSOzPwD0spjbBBG/qsTSxwsqQGDLWMsK8DoJu2oB23sk5DbGAyJkCBT2NYMtkmjI1dIXTROPINJHSfSLkqsRCU+2gyhUYAikR64ljGsuN9fKz+3JidO/t1lmJdj5J+uJmURs1f0XjlUZHT84wi3gLYFJAKjQMUGlSiUNhhjkQibGAehXXwzTS55mIxzHI1CaY00IBKDpSNc2UTICGN1GJProJnOUtcdCCNJmToZfxIvtQvHbiOVhYgthI5xWH/jdYfe8NrP3ejw9G3Lfdz/M2HvE3vO3jxHjfOqtWbm+wuXE5sz0MbHGPdfv5iUcilsOLkvAI0mwqEtujHuPE6wX7rhKFIHCEtg+S3c7CjaThGaDIFYhfBjsLrQqgcdxIj4AEa3UNEatNIgAoRRGG2jjcukel/8xbES5XB5sLfsyD9bi5/YRcdtg7204j9aCn+0AG0w5uSgzoBEIgVIocCEaCWIjSAwK2hxQToVj44M6y+6MlkAEaCNSxiP0Givox13Epg0bTOCMh62KQuhKlYcrUHHRVScRevMUo4agxQaaSuM7fHIwiVvfWZ52ZGXQf7Z+vyq18mGu3gR0sohpASxFFJoY07Cq3GcNpbdXoplExBhEytUSK1QOmXqXHDxGn54Yb/+UIHGhKUbTeKGRMdLKbpYJ4QqRxRtQeickSLSlngIoapIGoDE4KCNxGiJkTbGErSji9rNprWMzq8s1BBPGJA3Pm+9iWf0y0G6GPGTUzf/+n2kVFiyASIh1gYVtYUdT+JHd+HFx7HEQtImb0bJXbGCna87h7ect179RcFpf1+o9jxKQZxIgsBBmilsuYh0skZYFpaexigbjEabkx8oBEZItHCIowvr9WAZq+Wsxc/W73LAEKfWcjIdDBY4lkQrCI1Ca0GsO7EQWLQRXt6QtIRIxoUImkZaduxb5RtVcrGK+dG5AdOrhrj/zDy7751Qq45W1dZaItYbHxzfzAsb2/GpJy3WJjX6o0RMq8QCTQohSgbXRmoLlETQtdhnHDhZdFnWLy959dP3H/8gc/fdFpo+pJEYDZajSBKBTsCxJVKC0EtAY1lIq4ah04Sca6zkAJZZEI4oBzHbVZrbZRXZUwUPkuE+DrS62ddQRlZ9/JYitZDQlfFpT3tM+Ov4ShSYsFZLeucXeFGlgaq2ZC/YP8lb6xWuWU69LTvyz5TFlVeuQgoLYzyEWHrEGwHSExTzCZ7bQqtjLFa2kiiFETbCikAIFOtxzDGkaQqB09QURImJpkBLsPISuwMwFkILdKhpaENNChLZz9hcHtFuo41gf+Ty4J0P89wfPxq93hghMRKMPLRthU6WuzuXQf5ZAT1MT70Sy/LQ2kJaAikbCJHG9Q250j5sO6Fa3oDjtYibOZbqyWWkqoJJI1xNlKxN3KTejMhP2Ni+j3IExtJoJ0EaMJFGK0C4GNtGJAbjz6LCFnpB4cZ51OZT+OrBeWPK0+q1aJHGWHf29mqz3N25DPJPB1mgMRSXysoYtBEInUaIGN12mB7fgrQ0qBCVuAiW0nJSuYi4E0scRXi+ifUqKfiOlMzmIci2cZTBOBFKROhQYaIILXJIJweOj7A8bOVgBKiURHlZWq0som8leyszWhusSkoXr/XGp5fJWU6//VT9pNDggBTYrsR2DZiYJLKJY0kSSuK2jVIZwGVpRChB5rFcgxQloZpZbH8xSOT0YDcLbgpPp5GJh6U8pG9j0inQeaxZRT52cAIHq2VjhSAyIHIBMgwo+ALbdRnHGE2p601fuvSH+3seyC3HFcsg/wxHNggkNWw5s9QMJGMwDlpZxFqRGE2MJkGjSIBkqZ0TCHWK0KwwykqhTV0FZo2J6CnYiJ4m9DTQuWAp82wMZF3U2i4WLQvtSoQnMDkJOR/SWcyKAWppCFfO0HISvY98fvElF1wvH/mTeLmytxxaPAZXduUYmDJG9WHZiyS6CyHNySRMgjEahIMwFkvdxqAxJNrGEm2ghEqkK82sVKAltByEAdOMMHMuqikxNpi2jbTyxJ6FyILsEmA5oDSyXcecaGM/EMu+2CdgpGv64vNHzNA3I/nvnh7LWgb5v0hbFNmhZuN3Ih1NFHagNBgVCWPGrAQfREkJbQzCRyCQlsFIjRQKYQxGKhIVZmyOd9mcqLYx2sW1QszhGqWbZ7igHHKKlRAlPqFM0VrVzX3bu9kv84Q5hUgrkuMTeLft462zAWdg8L3yQ4XV977JKh6Ll0d6/1MD/8eYHnp8FkReGxz757+2fhzHYiVG2Bhdd1XyUAfiqI+V14juZqJ7qlqPJK7jIIRA2hpXNJGM0w5Xo9X8lpV8IZfQXJwhvT/igtlZRiotVlZjNmklHKFtK2oqS1k6c3iK55+wmVm/hqsvHmBXXMb6wV5eQds+fSve8T5p/um95yzs/uSLn2/+em6txT9+ZBnm5Rj5v5QBaLxhkzFdXIMkxhPGkfHRnND1LCKuuTE1P+xfL5LbO42ZJ9YKrQwqXAoesukmjlt1iJurXGqLDn13xLwuSNg0kKXZkWKxL82d61PiU6eT/0zOpO6wE3/cSVwI7Z49J3jxQgXn4WlWlkOxQmLdN0fbqve3W7cN4natPlU984cfipfR+R9h4TEPqh+XzS8648uBZ142On3bvj7Qq5wkaftQE2m9t5q33MCIoXQoYoGsNDF9GmwSEaPwSFQ/YUsNiGT/s3q4K5fB6UszvhXuPTRPrhUxczzg7GOJOXO/FYzM28n2wEqOClu5rq8P5EvsHBngUJBgHl7k8rLWq5tC+JPang1Oyd01eMEP42c+5z3in3n/cuZiOUb+6To88A4d3nKT4Mrt7+aGXSfSU2K9bYm+do+ej41pyMAMNrE9DwuHYG9snG0ICQZFHFkpHZaf2c3HexqYlEfb+ExWXCgVOLwn4jfTnXxXF8QDi4G3nYZ6oaWT9mAP16wucLyvnwkMRvfTNPPcGof2AGQfku9949/te9ll4Z3Fc83b+PYyOcsg/2yFr3+HMc+uMf6lc4OLzg1/0J6Sz/S1FTR05HVMm8v6Qi+MceI+nKplwslRbQqRSFYYjHIcNdrtc2hDgSArEHYNHWhkNoXsLxE9M8WXs2mmjrVNMRUESZTmO715Js9bzbHVHcStOlpECJOCkdXcPe0mauHg4mnnzn7Dfs2P3h+8BhjmymU3Xgb5Maq6yMoTgThzUM/e92M7zEl3vF6L4nVhJr2e3MIB2ivX4hzcQG7xNhN31U3yKHbU8AtMn7OSe9IJlmphRILxmiSyhrVBs1BaxNt/gtXr8iyu7eZRN0VVZdB2GhmH0NlCRQGOk8OcsZKFXWWzqe9UHnzt1v1e+pHntuF7CcaI5Tl7y4O9xxDlG1HdOMinO17OOS/ILLScJPZpN19ftx4VMpjNEsoRaIay2mXLVsd25AMjfjy5rZeHV0km+2ao9U0TqxratBF+FdFVx3TP4mxtop/jMb4+ojkySzAyi7Wuhd2vEFkH0QI56xGlMzDoEduKWmwhDwtE7t03GYCxv10GZxnkx6ioB65JD5uLnpFNNq3i2mljLjyWpAeGDbf3YR7JoCvzVtQ37OkHYrB8I2ayAWqbxx5fEEcRjgbHA1loYOcXbKdUtZ1cU3i5Bn5PiNVXRecrWN44Qk6g5DyJb6H9GrpYx5hpUp0xi3OHuXC2grb8pYzb0B8ug7MM8mNU9wdgbSUwzZrUn3w+3w+EaN9L8ruHjb2tA2f/i7Cu/SNf/7UT2aHCXagazHGNMwXadmBW4N/TYpNp4jvVTKpQ70/no76MjDtLfsPN9C5Ku6smnOIC0p4GRlGVOmZnTHqmidI1on6PSqmb8VKGu56+ivaDVy9V85YXZ1mOkR+zBMLQCYN/fobWD6skZOFTEdFVMbb1NepbroCb+9pSplQqcPDb84icl+HICYnuWcC4TVRRM300tLqGdEfbpcvLoKRDy05AoIOkjRKOjuK6rWyVx1uw8SY9kgNjPGuPjbtlDQ+JTsbDGVLjR5FPG1iLMYfFF0FcKZZL1P/Xv+vfR4b/78eJ/zTSfKKC/O8d7/3Xrhe85hrTV3zbD+s33HKsHJgtOxHrC7jHXu6ldn2T+jmPJsmLrIRbCwu4WYWqtCyK2lNZRGjh59vksml8CyLbwzEKW4C7NJvVUiYuKfuwT5/xae+9jzc2a3LbCeB4Q9sNm7GBXt7/tH0bo5Vvv5l3/fYKcsvg/gfY5F8gOt73Mua57qce+L6XbOeIc5jrvlT/pd1Jj2udZ/aJvT2bXxcv6g8HsYx8RKtgq7FIMlhM+FFOuyKNvptM8nDOQnbX0gyTTfVCvp+UP0TRz2J5BSSQKEkcNFhsTlpzjcODkZGdSz0XOxdJRmcY2Vnlw6HFUeXzwWs/mvruF66WZs+PB9jPoSd1WPHCFyLf/W7YcRMc+sFT3IdKt5+KS8/WTdz3nOytld86v6y8iTWC761ZWjBq3DXc7kLzCmHsGow2BJ01ZPdu9aQEGeCtv7+xdN2n93+13hbDBeOMFUUsS565305oRom1sUuIm5uZZEJ4hKmypUZMwV2N5eexMkUKmQE8O4dwPVA2SaBpNlssNqc7qq2Z1SYOe1DEqMV54m9McVZmI3sPzrJlYh+f5OdsYvn11gcF77zZ9v75pg+sGdIb+3tJF7u57bm/yz+/+mmlcUGCIBAQLy1ntjXRKrEgAV43jv3uwV/4NXziLDRyzbXidzf3NE8/m4+6iHQf1rEBY82v1lQG05xIW6qcFUpkBcWMjdXylZmiHc8QhW1Mq4kOFlGqgiZEmAQRt7EU+NKqS+ou8b4cyd488ZEq7qmBtb9zjkymTSf/tp7CkxbiMDxTPJtFcRU7rGu/cJ3wP/X91+tYvL4zT+bip3LvhU/j+Hdu9E+13rlTf3jHtQrO1oDUGpnc8zxH7ft9+Xs/+Dp2piZXT5tfOHdPKEf+k/99tl89dt/wZ78iPr9JO/efKtR0MaNmm11UJ8oMZkOUB3NhjunZiKapW6wxGXeYtNNBNlPCzfnIjI9RWUy9RiuIabUPenPyuyVzdtTJwcokp+UXxW91I46csHWv6eJf9kxx1c87+Pi1C4JPLpv+B+9eaX3lm+NXlmf5iC/Ra9ZinnUp1wU+47vGmOpL+YdVEGwtZOhfu4oxWxNIi3K+k9lzns6E57+6/obPfFLteLf/Cx0sP6FWzJmeDDvu2tX6aKw4Ja/11GZXj7ZSeKk+posutXqVkU5Dy0gioWk3Y1QHKWEhKRNrgzYBKm4QNtskQQLxflkOv+jGl4cSK1Wx1r2gmmW7iJ2cr9e2fKrDz+Lv9jzCk36S3rvfNSCcjBFf/sr8aY06H+vooN2fIt09wPGpOisOH6PzwE4umz6U/M4557D/vHNpl3IUi2kyfo6+oEH3IzvJuMHuylpdDb7x7ft+oYbw+Jvq9F88JW67CXHBxfNxJFm0PXTDM5unXVI5TbxmgdbKAqN2kYVuC+uUGP80Rfa0lHGqsp7sc8rRdHo2mhTzjUnK5f2UK7so1w7ac7WHC4EzPMyXhgf4rlcQPxjDOXC7sYv3hiJ1QlM9ayvHnuwQf+wziK9d8xE5WWkOL5a5Ku3QyLlkOjow7YC+OKZcm2BbUZFeu5L6Weuo+BHaiQkdCdUp8rNHuSSTcOn+XVzuyo+fcve9OC8Nn269SPVaO83zpDH/PRYfb+m3//Iurdz7fHo23NeK8vMHrAW9RS+tPRQ0YrIzTToSQbt/FQ/XJlnhVPAIRF+fsueVSKpz0sTGIjqWa8bSRluA68Ixj6ScIWkUENrFa5LE905XzvQsM+sI9g+s4eqes2g+2UF+1Tr48N/eaX/xQeePoyg6LZ+CDo+q5ZBZv4VbDhxFB2XsYoaeUzbwtWqVwXRCfWEGcffdnFWusHagD7l2hGz/EGG5jZ6+F/MHnXcce9fQA8Ffx6ear83/DfC/f/0Hey/60++a3ed8J1GmywuNWHAcdo7FrM5G1NstOlfMk+31CHrXcSTyCcpa9LnG68wii0UbxzIkjS7CiSGSuRH0fDd6OoeuWJAEOAtT9EqH+c4N5nPBWfztTLfcV3/W6bt55XVP+sJHfgZWzGtaOpuLpXRKRfZlHNwVK3k4UnTPTrIhalAYHKQ1vIYwblP73nd5yle/wbsOH+NC2yGFRHV2Mt7VQVjMUJSGs3bdnGz8zPHn2x9670GOr3otv06O/F/qqhddIn44+bDEcXqSDu9AemNwy+IhXvzgDFvXGsZmpsifl+Xe+wYJ+zZweNsJfeLoTLurblRhTLNpJMPD2yPKsyH6gERXU4h0hNMbErt1gl6Lqm4gwizCS5NMpnTtNW5bPW9q45N+ounRCmS87UZH18QSM5HJ0ewb5ISfY+zhg5w5NclAKY115uncM7SKymc/xUsmJ9kwtJqJc87mlqEhJgoZYgmCBGUSGOxmYKGOvP32E1z4rg37TvnYq4P/3xP5iT9n7z/TlR+8SUzdNmHvaNa2GIutcwXxyPoXm2unb6M3NcVprQojk2VSXdv47kNdqPES7eKEmk7GcU1I4VjCJe1pOuQkh6pp9oyupNyfw+sICAuCRr2OUgkiqlKQVfI5Savy/H3mfef8qeayJ7cjd10OJ3Yd16mdgaOFSStBV3EVhw4eZODIUZJqHTavZXrDWg4eeBi/UmHN+Rdxx7kXsDfrMSEkdmLQtoEoIjs5zUgmg9cziDxeRnz/RpIHj80/un31vxnG0nuMnuiOfLLf1zzrHpGMPyTevm/eerqzXYzufO9GsqlFSsUvTU8tDs8cap0pNXP+BWqH38Y9dpyLD+znUjZxf896FhKbzHSLnmyNVjagFLi0j0S8ohqyKI/zw4qmYARep8W9XZEIxxWbqo7pnq9gwvMvuOr6B5+nPr/5veKjZsgiWmswLvg3nlxr9snTOPQb7/wau5NbZZhY2haJnpsls2sPfXsP4E+Xnd6srdvrN6hxUgT33M1lqwYpjwxTcQRTJgftAO21cHbv4vSDBzi/2aaw9QwO9fYyNlQkOnCCcyfHv1v98edvP+5ufooYGUEXCpgoQrruE9iRL+IQdwDtH5zNLnrN4ncuEtkveJ3cNPoGonSLVb3fNA/PX2nSqXEdWSMP3Fs/Z26lvvmSZ/OFko8ereFVZ+motyn1rGIsOIZql0lOROJZDSM6WsieSIm8rdW8JfWju+FlRtNhBAWlifr7eFvlix8cs6KcXrxrJ3zuzw1v3gz1k0+7mT+E3iePI99y7eXm3I+uYue3wyRqicKRo9IeHRNrE4QxQtpWSqlVq3jg6DHyk+P0n34WR4YGOG77uEGV5uheOh5+iJcGTQaLOSafch7f7htiRscEGtKDA7gL45zfs+lDk5bbkbzujWVYGpDrJ7Qj/82j68WjP9ok/io1xfu/+X/SI1dPXFCf5De8HAtxLphiavxUtpS+xUR8HqXc3SY2/tRsbduXb2DzigHu2j7CPbkS7c5+5ipj9NkrmatVsXTTzJjIjMWa9cZxCrHUVLKoouT6fNGovM9o0CD7J+/ntr03nOeKDSQ3D6DqT3u5eTFbzb98FnHhUxCrex577PbrIv9tzzAi9dlUqmSq2hCH9cwQRljYCa4fGT9H5Qc38ZzaInFnJ+P5IuXEwnv0bnq/803e2t/L+JlncN1ZZ7EnBrsdkkQBbsrF2B5eUGFw/8y3uy+51Jr+8hfQ//re2icyyJmwm3+5c87d7V+cyu0+urE8zYVS4mQG2WdbyXx9urFKTalNuP6EmJ3rsDubY7lL+ETtmOjcfz9vGN3DJb1nc/XgNjMzuJ4pdxjZNcK8txuZbbKvNa0vbXtMsrn7y/Gwd6LWmE4Nbgqr6ggdjSNk/s8HubgrzVzLwbnybeze/fUXx3/dh3m0jrl7Ej2/YyOw/0k1ABy7cqsQ30yJgZWtuHdI3X9wdzUzP5npRrgmTqQsLyp94ACn5HJUpE2lGWHV5zHfv5GXF1IEz72IL/auYTECWwiMkyZlhRijUCIimjnBwME9PPWyZ5751Wv+8l8MbLDMNXsS8eqtjwnmx2Vl73du/D7XOtcWvcnJ02Wotjbm2Jjt58az13FkOEVQlLqhZViW7ZZeuzLc2503ueYoQ3Fv9uE4v/6B2HiNxUPRWycPqvO9IrtznTQig1mboxq1MRNVQaj801l0t3KMF6px6/yZvXqoOp+UZJ72eeezb003OpLYDz5K6fCdbJRV4u4R2sPnou7q/7wa/+jnnzQQ76+mZSq317n1q5Xn9PTogZFVTKgAMV9W/dqkbYuIUknv37eHTb09OI2AYt9KJr7zLS42MdnLn8t3h9Yzj49lFMq00JYBYhLHxiiJ8PLMT7exp6a2P3LJ9rVJYeg6mwfeov78+qsfv45szE8qeNKAhuC5gtQNzFEVb/7s/+Klxy/tX9jR2hJV3VWJcE9xB5p3+E3Tk004GCYUT9tM+VSHSDSNiUPEWMCctPGbRxqr0t5e1VyT230kLLhxs/iCH3+v8amD68OPXXxWdHt/gerKCwjFCvZ/7ybOIA5X49vz+PK49p2DBTesXDhidqeBuIQu9hGUj9JlrSU5MMa6hS/SYf8j8Vrn0njjWwgdRUKGcGUn9Wf/LlFkYwYsxNHbBc/ce7f+3te388LPXSXMna83Hzq7x7xjM1D+PUTH1U+osGTuW79jdtxYR6W/nlVWLF2L0ppeqocOGJKW0c3I4p7747OTEC/tIvo6mXzwfs4fPcS25z6LuwbWcNDKYFkRRgUooWBqnqHaAj31Np0tidx4Fj/qzlHddecNXbuG/vzE7+Enp46WHvdZi6U3mwptzKmJEA/bWp2O/Ng7fh8n8/WO1j/pCxpz+ZW0/bPJ2hP2huRAsj/YWGmQEgkF29DQIbbtkVRjnPnjdALJuacxnjfabcRV7Z8Z/2jvj+2zTTZzvDLmvPa7lZaqr43v2rhFRfPQmRkK/r47bjytFbK2/xTx7Q2nmgNOC2vvbrbl52isPo1RKdBOjNFdhM1ZipGL19FLRAvbdUipBBM3kLsn8H78RrRwqRVLyC1DZvHOhQvDnpdmWn8319KdW7vC53zqJUAPnPlx4OonlCNf9KpPmMte+2eJEZ5JTGM+CPE7eoj6B83RI4eitUZb9tQ0Z+ZtWlIx2WjRP3qcnq4extau51GdQkZt4qCMnJpg1cOHeG7Ko8uBSEMU2YSqip93sWzbdJ25+oYTn+aj5hN/1ff4BPmkE0vANJuw8XTE4YFHmB2eFv9wzWepnviX7F2/r98hGoSE6R5EqkA9DphSKVNgsZVGDbrMyQShYkQVnJqHlFmSUoZ21sHrV5DJQc/GlpdeKa65/xbnAnK9U+3Jypt37InSlXXlHcemzZahs9TOZ6/hHxsNLC1N5AisqSqlofM4ePQ+To8eJLV5O4+sXMns3nG6/T4WJ6cpRGl0Z5FWqUEsbYSXIYnymMSGckw2l8YcniRbr6h454FaHN+DfvGL3nRc/+nftEY3flofescTc23lC141rq//crxr6gTv2bSJ6yKbwYERDh0bba9WYdZKEsckXmzVQlbmYsbmF8g87zLuinwcCc7BfeTuf4DnRIrV+SyUCkxkfeb7+9nrFVkwaRpBE99zWDE89+0932jcH/88Kc4lkJGvAAAgAElEQVRfhSObSgVzz/2IL38Z58Cd273OFPY3XmXOG2uwSYbkS93smtdySjflMLONNaXFeIWzgkbgosM66bRDrRkjtUEHTRAWQRRhKRulXWTTYOdDrNN6zGJlW23HkbvUbxvXP6ir8Vt2f4Xz8sPcF7qGfXXwBEHQwFRjTCMg8Q/QP7CFXVMHWHPkGP19G5gezrHQtpCplSQLC+SNjTGLNCQYnSBtm3bbxg17sObmKDgQLdZwmzE6SEiu/hrrbnjg+NxpV1w6e8stuZjz/9P3NjyeGvf/w7k8vPda2XeRdev07fK9996hf3PdKeyoL9KRSusHG5E6FXwCTJK4yaFjxxno6qdW6KFlLOTkEbpu3MFLtaQj30m8cQvX9/VT8X3adpq6sogSic7FeM0G24aLzi1732qSdxx6q/zwuo+pxx3IJ9MpBmDf4ZT16CPt/C33moseup8r/AHutyPWpzvZNdDNGJ2t5MCPVdEJWmG/QSZdNIIWThLi+AoTGQxttJlCJaBaaezFGDJdGJOANUPkJXC6HycdZy/+8ME9znbVEu1cB/cXPForXJpmhnTew/RYxA0fmQxRN02aykUMbOfI8UfY6s+QDCbMNxVWK4WRXTTqZUqdXUCKMAhQYQtx+GFWLxzFZItUdCJUs2G1Wm3LdI2EFD2csYTOY39PacML6sduNNSfI36+12/9T5vN/7X3Z78hO1dMyWz93m3CsloL8362vTtc42KEUaZDiBAjUqkoseWjB/WQTKzSpZfFd+uYxdo8Ys/tPLu2QPeKDcw+7RJ2dHZyxJY4UqKx0J5A+Bq7HJJNpRHS0pY1a9gwMCMeV478bj4lzmet4LO3iLs32+If6lucl73hVU/L1XjLSDfhupUs1G3c0lbuznhMe5Lagdi3Qc6nMsm6DpdyUzMbpvAqkuaoiyo2Mb2QHBdY01VWZAcZn6rQ1dtFveCilUDpCFEsYDaUmCh58dTBCHPBheywDbatwORRgUEkNiIvEKkYE7qoGhADHYOMzo2zdnAdgadpVOeRaYeg5KGSCrmgje+XqBY01oJLehSp680cxsvNCNGMs6Imo6OM1HpYyPfRsIqIB6/ljKsf5ODfH6OsHkAVPv/D+OKDF1LY6QsM+D5Y1q+wt8MYAVjPpGou/2BR3L01Z3/u6wfP+/jNc29IQ3fPU9U3Z+/j5a167tR22BoXIsmi4wgpfKRtgiTbJd1Auau5db7OyhO72Fodp5Tvp/KM5/LF3kHKSYs4bVAWSB3g+xaiWqU0cYSBo/vJ3zo6Y132g+O8InWbfP3jCeSreD1v4PfFjrPXW9N/9aG1Q48ceYFvc/nwMDPpNKG0OZLNsjcq0M4mNJImOq0bCO2N5lK62JNGNwymXSBqVJEtDXmDkAaZKxCpaYrCYzSaIS0Ei8IgLAGOjZIO0hWITp/4vAv4th1jpSy0bRDSITFyaanwrEa4AmnSCLdNUohQ6RzlhQq5hx7g7M1nclspTxg0SPlplBYEDTBRDa8jQ2vtZg4vnNBrKpVql0pqmVLRTK/YQjXb4lB1hqIap7u4knJ6hMXoGH3X/zGlbU9h9OEX/aV+5V1vMKT/LdwwRgrQQvwqlhwQwmCMmsEXa9bBH7/ffQrN6h+boV6/GeOHSSUgr+9gIbgAK+m3JBUBxCqeMEZ0UEjH2nKnb/52+YpOqf14hp5NpzJz6WV83UmTnRyn01FU6jGzlk+m3qJvZorOmUlWNqpkggZfr/W9t37LzCrEndcmcMmvFuRaHfGDHUVe8pJFw44vi7u+9dbMxIsar87p9gUD3ZxzxgYeisDp6OWhKGHPWJl6c5Gs20HSU6SVb4bKcdRDRcmWnE3OAkfGJGGAZQmEBiMsyKSQKZ9FYsj2MB2HGFy00ShLoE0MCUghMMoghQVCgtAYrcESSNq4aYnI5zFBBpVKUG4bHTVIrCxTcwGiskC2f4ianyUpT5PJ5UnSGZL5GTItTeJp1Ios060phkyHacqYPivADMSEg900U1kaYYDtCEzYgam1kddfy2mNU24/vO13zq6c/6k7dHx4lyj7Jd7TeAV29lcXajwgbuIiLjXPPnWTx9zU39LvjFDVNbxMmDTUGaiGwY8mpEvKMgQipEsnpq0Tk+ggzCH8wlw9rxZUzXQU9ES6jz37x1i1aoQJERGWy+Qf3s9ZB/exaXpCFNBUPd8UV/ZzePVG7v7a7BrjtwS2Sf3qB3tzDyH2PWLD9S245b2pR74485m8z/p1q5g+bws/LGVwEptjOsOhZpm6LagW+mnONHCNwEhHt1KpqFJIqKV8REMiixo9s0BJDNK0bLTQiFIK09HLQhhhhXVs8iTKoKXGJDFaa6wwABMjLYHRGoHESIlptRFWGrISUR5naGgDJ2oxid3GSBudCKxKG7NiFWNjhzilq5tjuSItxyJYXMAPBaLQQ33hKPm+Dsrdgskxi2R+jqwzxJhvkXRlkFJgJIiOEjrWiBmNcTzk6o00FybN2vr7PiDCp33g6POvoDxaRe/v7Epuuf55wLW/EpiPvPsPZXDTGkOlpxd7/lQymSkWmwoT9OHICmnfoZMOHcbHkkivsC0a2iJrEu1ZjSjRMrKN61raklYjpa077uFppRJH8/czrGL0/BzrFsrSsh0dF7tNTSuynk27qTn29Et46Mv+JJdf+EFs/sBiae71z9QvrbG+swhvf+mz4ONHLD59zR8JxVNHBrh3Ywdh0SPEMB2GHJqbZN6LCNMJSaqTuNmJ2DlK72TFlnGZDb7HhLLQymB8DWvWMCYVYBCuhfDAyuVomRaWjImjAJIEYRQ6iSFoYYxBaL20KbW0xRGCaKm0WfQw7Sa5eAHfP4726xAbZJDGnm9SxKBOO4/9+3ZzwcwEK4TAlDppe2niJMTq6KHWjkiXVuBvOJ2FDodYHGbInkNaFsJxEba/9LvxYF4SqSyqo4Tcsplk2wa8I3s574N/yvnXf4nuHycXysPypb+ySQ93vGROmHO2S+YeeCW2E5JyJT1ehoxXpWVKpJ1JSl7bxM7GRFtRaITUjiWNL2yTiUKnEB5BxYmIciqY8oamZjPs32+vfuAhsWXXo3Ld6Kzn1gJXGIvEz9AoFjhBwonLXiFeO9f93PlbFjq4h/9lmHrfr75paOKplzJxzbcdp3DPxrjVemtvJ42tq/C601R0wpyMOYFgSli0tU9SshHtBjotUftm2bjYb0llxGAhr9J2RGynCGsNTNNGNBUiMUAW4UvsQhV9YJFUuovIaKSy0DqPbFnoZhvTamAigVEtlGhAykEUc5BPIZ0FjFcgyXRgnYjpMwG1MCAKFFKkEX6GjniRdKPC/s2rufvQfp5f2sItfidzHTHxfIDndmMzAEmEP2iw8mcwf+BRBsbbdKUM5WEHkRKwqKAlobubwsQ0vshSq5+ga+MK5rqgdvgEA0d28CbnoW/t2pD6Vl0/h8K557Pz8s3+RPS/bovFwnbzEuOaf9daoH6exprHqg0HFzAps43u9G+TsZrEQYiOBKVck65ChbH5LbSZJucsUA/6jIpaOJaLZ9eEiEFgCx3fYVrWU1AeKLLacqVOtECSQakYjLVYlXajrquuS3PbOfzJU8+xZi552fkw/XzzOeBzPA6ahm5bGOQr39jixfcceIGQRvQVOFhMkdgui5bPpJ1mtg0qkBjZILFDdJBgRAeBZVOpHhKnODqdZFJBy7NRQiASMAGIRGIA3QJbCkhrEikhSaEcH52AwEYaC1yJRC25byVA1AOY3MPLT38GX82W0K0qalFjulcwtmcfW7avZbQe4EV6aVqIbWHsmKxtkBmf5vq13HX/fVzYvZUHSis5bopEjRZu2kGZENu0cTOaeOVWJvY+yIYT88T5YVqhB22FURqxbweX2ivYOVtF9vewMO4RFwN01yDj3RuZ1BZisU26lWXu6D6Gr/5xULr86jfumS3+VsxTE7itpKD+S3HsYKguXvbIGSluuPuvyKXT5Jw2lklTDgp0FMdx3ZBM/iiLC4NYOHQXFgjiLM3AxZBVxo1Uyt6PEUMYKTCWQCuDZRuEaYNaxJgjsqP7HVJP9/UMmNGtzzPTV7ySxiXDiYE//n86718ayG/iM5qdp55LVb/FkYrBHvYFLfxijskoRXlaEpZ9pPYhmsfYi+jIwbguKt/JIX3C7iGUbhhgpQu0kxTGVJdS9Y0FMqUidQQqShCyiNTzdLRjJhcWoNSDskAgcQppRKIR7YWllesrHcStFHPlPN5wkShIIAgxeYv5qRrp3hrDff0ck4awrCGbojx6jIvP3saBdkDoOox3r8Te/wiXdht+2LmGI/48iS5jvCxa2BgkOm+Qw6dwZHqM/rkhopJLoiKIawgM877N7OQ0nUd2ckmul4NrV3KkbyVlP0IWYqQVkCwu0FfsY2IhonTNVx487Tc/fGDPzttf0a5sG+XZD3eqn1RLf5GuvOHCzQTfW3weOnMRuew0rvFJ2W0c36EcDpMRM7TVEFo4SBngeYqejqO0wy6myn1UVIpIPhtL1hBiKb61RQthNEa1rZL+8G++Of2ZLS+lvb8qdg/0PdvUy+eJf7x7Tvx3Sve/tDjs0h892+Ho4fcTU8i4uqU13YnC1A1xw6G2IGi2IpLyMfKxg9TZpRjSNohinsgWgTBx+3zXJzYSE0qEtDCWg6rPM2jb6ERjAo3RNlJKsvioSgO1UINQQbtJ2jdkVEh2EaxmGrMQCT/Ky1qtJrImXgKvpmA6QLkZDh4ZZZuXAiGRxqALGSqOpiFt0nETNdci6h9hcvUGbqgeZ2RmL2ttC6wYLSISV6MdDa4NxRK6b4TJoI0TRkhLY/IuqneA/dE0pYwmKWzjhlaM/+hBtj5ynIGKj6kkyFSWRloRTB5hpbuK+kyN0697e/N5x34wYD/w1u3iP6nC/SIk1QvS9kzsvpZivoHrOWghaIVgWwZtbGrBKmzZIJ0ytBKPWtjPTGUrnt9k1cBBMsVxpBsSqk4SnSaMXcK4SJyUgFqhM3v/hnM2h5ubE/QvxDx49zbz9xv/VN95xSf+W2vB/dJAbv/djmGRxCMkiFSKOT/NVKaTo24Pi4sOUdAiyDZoDHdQCSGVzmFnc9g5D9ldwOoeTCqOEzUsmyi0MHGCESerg40ya5AYozFGgkwhhMRt13FrIdZUHSsWiK4+4tExNiHIzIJXdRCJKwUlMR1PU7RqaKuJ0DFWvYLd0cPx2RlGRo9QVAlSKURQI+lMMb5/L1uEQEcJOpciWWszvW4jD5iQTLtGRyqFEDEGjZECfAkFg+6J0SmNIcTKR5BqYXWvoDEyRGVDD4tdCU7Gp92y8KaOM7R7J6ceaJMdD3GLNpM6RIwfYkPnqRysR+Q/czWnbz3juP/NO5f+d7/IXLM/st6M39qbJ5MtkM24+OnZJVjb4FtthJa4ooEjFAW/RiFjgUxo6ZCJSh9TiyO4podi2qKYifFsjWMbXNfgpcDxN5TH4u/92asPfvj1n36z+NYbVpkf/MZVBiHMf/dVFr8MkCUg77gjPWikX8MyVBuiL3GYnWvCXMDxuTb1xBB7ElUAtTJNa3aanDbYdoQSZaKtabV/JB+LVhWabSK3jlmpsEQDGQ+xs5nGdC9i7CYmFpjuAY4ITb0ySWgvEjdCdFOhenuIdMBwUMcpJjhrtHIG0mreWjAdQmBkHtFQdOgBcocqrBwe4pslw4aih1UNCaUNosholDDcXaIgU7CgUDlBNCypDWZYnB3lAr8TP99EFvsQ1jByOgXjHkYOo+0OknpAejYDsylIZ0hKA0Sd/cRr0gRrehnL9DPVapPUA2aDaXIHHuSSow4puZGjUQMzf5BSppsjJ2Y47y/+ghfODlJ46Z8/1Tt8QUOa8BmWMVjGIE42Zj32Kp4x0mDEQ9wsuewZWW468En8Ugk3dYjF6iBJJNFCksq3yJeO4KRmMdImUobENGhHNkYqpN0imz+ObWm00XipMSxLkXJjMpkYYSuEEGRdTbvxmzNfvSZ/8KD7C4PulxEjG0DoUHYj6EMYKWyxa65iRgZTPCQaBPkCYbz04ZavEDkL6Q7TPHCcUscwCwJUvkqm5dHMSqqpBN2TQFqAH0HSQssqTkdCWLeQ9RDPz9Js76cjo5nN+NhI3OoiXp+HCVv09ka0fYcji20gJrA11VSMsC0QNXoPPsClg2fy6X4LMT7BOduGuN8TSMtHFVewOHqE1eU5Vgz4NJMAZSxExiJZNcB0XKVz5iAdOZfjE2PoBUWu3GQwXGCD7ZCWFm5HHxONA/ipFNOLNrOuR9WxaaYyVDpjnNO6kRMtiiqhbQSzmX5mK6NscDLMZzoZm93LptYsOlfgwFSF7g+8kUt6L77n+9/6xHXx79Uu1l7pfoRd//lcbckFjQBeZIwMzn/rG8l7Z2M5Ae2wA5VEaO2gjY9jTZMYm5nyBjRtEiVptrPYThNtPLTJE0R5EEv7YXsdlhWhjcGYEC0C/j/y3jRst6ys7/yttef9zM/zPu/8nnmoc07VqZmCYkYUBEFQQRPjiBoFL+wmIp3YMQ5JzCSCbUdjRIWgRlAQRRRlpqiyihpP1ZnrTO88PPOw57VWPhzbTl+dTszVVKyre13X/rLX/rb/6173/b/v/31boo6UGzjmWW68sYf4nec1kG+CuVCHQEiEsNLclMYJ8UKbZx2BmpibGX1x80vpOljCxczeyvjcNRYWFtk+MEM22WG1HrAXCvREYSkb7ScYd0xQB5EmSBGip32a7grX0z6nZJNOWEHaLqiYwAnIVEa7LfADl92Jw2g0RnkFwzCFLMHccYBzJ45wXgZkyS7h3pTSsE9j2ScdgpEGFhb49OYus6ePcD1JSHseQhuMishPLvHU9TWqj4yoX3iMVwrNdy0dYPO1b+DT9xzmcpoTdrrMFDn2+gYvyuFa1KVybZOKW+bKyVt5hA7dA0tMV3do42NXZujJZS5MUszaZWq+w/VJTLaXSBEs6utmwFzn49kL1f5f/MqPB5+aIt5poPzf/aO2uCr+zUMFv/D33nw/WfRdtKshRWYolEWR26AFRntMJwuMkwppZsiVizIKgyFJAnxfoZQLZEhpSNKQQhuklQJl4tTFqAqWNGBNxE++9ocO/9oqz34NAfdcWWSLQh3BcWwEQhXyhFVSv7a2SfXAEsQZ1rBAWg2UtEG5FFGByWso9wCdtXPMnzjATrDJld0cdnepBccYJhIp0ps+YbdHuN8jcWxEf4P9s4e5KmxGQmC0giJH+D7j6ZSlw3NcDQ1z3Qnz5Qpdtc7MaMztOazrBNuxMHUPU6TIfoEeKcRgm6XDx+gNLNIihkabc08/zbeebHBm0qWwAsyeQI806omHOc4U++w1vpWUV7YbpMdXKO47Ruwrmp6DX55HAMXJI1xOFEZYbHQGOF99lBf11li6s83HE006V2cn9ih3uhyZ9VjtK0y4n/5mGWdjkxqRNtkA8tDq5KnWj/zTq3fK1huul37927Zu3f2Yemj2W/7GPvPP8o3iWZ4RD/b3BA8/8gPMlDzKXo9R4qCyGlpJPJmD8dC6IEkFmbJJlaAoJDkKyyrIc5f5mau4nsvubhsjChAjtK5iyRxtHLTSGApac588+Pqf3nt2+favKf/9XFlkBeYIoBBYRohhv0s9neVCFqAjBy6t0/LHWPWAomKTRimWV2daaRBPqkwe6VHOKuxcXedAmhMPv8yRYye52K6zqkqkYwcz9W4Gf3lMbbRHySkzLDJEPEYLn+LGRQ6/5Di9YYdbWg5qd8xc0OTpShUtEka9DFwPIwVaFSA0SJ/Mb/OXvT6HTysuaEFecdGXJiSpjz43YrFS4rynsNdigotXmZ3e4JW6zwvIWW5WKfYvsvOa+/lKUFDPE1JpYzsOFgYC8Go+iZY4jUVU6X6eOnuBEzsub55t8pnOebpulezwDFMisB1k0MCEFdTyQbo3LhCuDgh2x3Ka2fWptJSoFWcPVN51NvjhD3HlT37radP43lv/Rn03foo/Ne9Cy/j3D0imsYVvzVINuhRZgDQ5rvSwCWhWJvSzMlhDBBG2XcMrJ/R6NSzLJgxypGlQclNcNybKauSqhS1zlOame6HB6C7f892/9qHvsqyXgPpaB2bPUWW2PkAuFarIjLKra6u1E5OS2FnPEJee4sRCm1G1yq726Y4FReGRj0aUOs+yELqozT2yKwPYzTjYk1T3LGv9q1/mG/YC8A4QX91jpV/GST0s2yedbNOuBVhhBSedghxSxCP2TS2ysWCkC1okHGUVcaAnBt48k2QeR9noYorWOdgNHNdD1B2e2ppwqgjxdI9CD2FmGUSJ1eEIHRXYl1LU09fkSn/buTsz9tBknERh24pRo0ZlfZdXJjH4GsdT2I5Ci4I0T4mznKxQFDqDVsD4BbfxtKtZuXqO72u3ubXawOtEZJMEZcBUPES7ipivwqlTTA8usde08kwORnNOZeS2j5Mw4dbpDqWz3/o2fvoIgnNGYox4p3m/+JRBGvNfFhq/l0+rX3zD72q3HD1Ib5KwOljC8Xt4VkFVSJaaCX6oKYcWyCbTpH7TtdAlKuUJSEWS2WggmpYwSNJcorSiUBptFHmmsJCiJD74mtNup3HFKb7WePuaA/ntb0f85E/iGGGa2DISrnoKaaZai7v2JqKUFehT93B+rkxSlWSBJgvLRJUKcTkgJcMiIkgSqlNDbLX5apaRF9XGJCms1uYa1XCWXPn4OwpvnFGUZjmbTgmdKkK3KG3PYO3aOLPHuXBth+Mz+1gbJCw1q4ySITWvb02iMeXtERVVQU0kTALEGHQcwViTVGs8stUlVDEaAyULcWQfl5qCXtVgts9yWo1EmbG/TOy8wCCV5WJhM2u5+M0ZhlpSyl1k4iJzCyU9MulQKOtmNyhjQEqE75C/5IU8ft89XI/gFVfW+ZFDt3HI34c/Npi1PZL+hMK4yLCEtbiAWdxHvnIs77TrmmgPYab4X/gwy1H3jFv6zp8Re/rjZle9m18SP2ZeJ9BC/D9bwBdf+wFz9M77PkqiNeNMEJlZZpoFpdo2k3xCnIXEhY+wI4TQCDNGFym2Zd8swTICWxTUyjuoAoRMEAhsu0DpBCFshCjMXPCln978PfMTa2/heQ/ky5eRn/wkC0ihsE3kl3ThlfMOJedPUmWkjlCWQnlAJYDQBkugbYEKQtKlw2x7VVKvhu1WmNoB4zyixND1jWPtjC5x2quS4pBtrjPbh2JsEyU5dX+BcRLirXc4dW2PfcwzHEe0N3osVypsGU0bm7n+SKk44OLaKvt7gC4jcgszLNBTg4p98Epcf/wpjlc8HG0jXI2ZDdhrhfSGAwJlM1sMrBVkpQfBvMY1WWqLJCWPJ/Snu2T5CCtzsAqfRFVIRYlMuGBJpBBYgCUEUkrIY0yzweTeu7l2/0vYvXyWH/SqrDg17N0uahSRF+Zm6r3ewD6ygn3kICw1KMIJ+shRzo+fpfT+9yQnntr86ZU//+i3NNobv2QlX/nX8mbgYv6LtNyn/E9K3ahy9iNf2iMIPg/WECeYcGPQYFLMEBdN1jouO2NNlNawLY80qZAmFqqwcGSBa+UY7VPkZQw2Ulg4lkQSYHQdSwg8p7dyz23nFjdW8B95FxyZE/+NZM5/a/+5BXKthikKfMBGp81GSZvZhn4aPTxlB4yKCC1z8GyML7EDibCnGDEFr0DJKWKmweTACVbrHqPZKnunbucLYqe7bGul7R63tlJUfYataYQdBchYUUkTvKRKFOVYOqISaaLOlDxVhEmJYVSgQ4mLxb58zoSOS2e4Tc3KwLPBFjdrlGki7MPYi8tc2O1wuBbiKQGOQSQ5XI/RZ2LBmu93i7h+CzP7n8aoQMjck2CjcXbWWHr6Ye76s0/ygxfOcN/aNQ5rKKSNtm2QNkJYSGkjpHMTyKYgtRSRW5DOVRgfO8za5Wf49v1LzN55O2G7jK0TlJKYtcscrHo4DRvpDqkul0nDDDFTI28vILXHzO9uc8tL3p7d9aur7w6/8uF/Kf5LXP/cSaw/+8ybxGuGP+1zi/O9jPuvJxrX6A4U0nqWG3shO2OLQmgMDllhENYUz59i2zZF7mAJG98pCL0Jng1R4mNJRbOyx3zrLCU/w7ULpCya5YVoX2XejE7uwWuWnt8WudXE5AUljNmRpugvtTk3V2fDMVlm58bXOUbnGFMgPRcz2Kbc3yLIYmwEulQhkxlKb5Pta7N5+zFWT88xWamlW42S6oUaU5yhGQp28ykmK6j4c4x0wKC3i5vEFFKzlfRdvXlWLPhtHl/r0C5VuCYElhtSKc1jBTG65PN4KUbXNVQKjG/Qm+e5pX+N48qHxRkuThPmHQFGYAYu5lJF6AvBbGlS7F/BqS8ziu8Qejq3sKLO3nl38ejBw+wtzrIjCuZLgqCSw53LXChDYWuwQQqJuElMIqRESBvLC7EtgbA1hauJDy1zrVGhlk256+AiiystfGuIvnaO4MhtXPFcimST8lyFflVT9RSh+1cHjjLe5TXeMK2x/88/zR0Lb35I5vcm/6exaSAq33AX/n2B8wf/ujj+5V/g3SLX+6lZn8dV59i8EbK7dxAlEiZJgG2PCOSELHGIkxBpg+cX2FaMJWJsURA4KYHTQ2uDYwkWWk8yUx3Srm3i2hYS+9SbD0z4cwtjCXjjia8p7r6mnYbMo78rTrz4D8Sv/CGHJh3njYGt9g6vcCNz6HGUTw0G2IOuMN1EWnnDRJ6FXa+STSOSbgfrxiqNnTHeNEGsXmJfNqR+YI6olOHcdYLdnR0a0YhXDbusWB4PjLeptMuI0nF6u1dYnnTxCMWWFWOn7VsHabc4vHQ6uk6HY7NzXLcibo/69G7U2Ip3Zb8eGOdAg6QqkEIhrm9QXUtQwe1cvvg5XnH7fZwZrnHwhVV21zPUw3Y7vvBY5TXmon47O+rFjLM5ujsvaM0kOwePsn30EOdf/jI+dugAaeATxFP8cpXe8hLbWlQalwcAACAASURBVKCzHGt3wEKlxlSAJcHCYCmD/KvDYiuwpI1xJLrVYrS+xq1+GVMK6GxdZtDPaZcFo9EqduAxKSyEG+IulCiqJcyaIjhzlhdt91jZ2xJzZZ8z82l3789/4gne8+5zzn94xevM9+6/6j/ysP7m/rjxhqgycfXYnueA/wW6WdkpsvbMbLEW7yUzRrklHK8gihpIaQj8GEdK0jTAdhI8e4ovJQ0vpeQPcdwu25NZqpUdZprXmMRHSJVNltYxnF98/5/+2gvzefPhUwfYOv6jz2P6zYYHzzlit1McAlWuB2Z13Oee8DD/drghDkSV8sVi0/pOriWnt8h+ztuvEzvCHnbIHRdZqmPyAm86otpcZrrYZHLxArOLVSaVGua++3jskc9xeqvDST2kPrsirpbLxh0OcEpzbE3PcrQo25dFohLUQFj2VIclpn6Tc2sRjWWBKguyqMeBKDc3phEmihDGAiPB9Ul7D/O2zkU6tRA/sjnTy7CeWCV8fBvr/JXBt5M4fxdpezcT4wVCx925pnnk9iOsK03jiTN828vu5Uv77uQPtxe4dX6WKLNopjHO3pjA9rBR2JaF1hojDcbVCGkw0r6ZMTQCo3OsakBndoZKr8OhwOeqCNg6Ns9m2kGGgtzUITEEdYesJFCjBCfzEf0hK8ZjL55SHU8J0pk9/vE3f/zrzVjeS/pZ/duJsrD3DqPadWXLIXX7CrkVCJlHjsSpOeTUitXuZBirKFihVBqjtcSTPs1SBOEOk2kDvCq1sI80IdIyDNPDlL2MyXiZc9MmUVpBa0mlNEIl6tNC6CMG0SJ5ngd7QvA4LaGlfdB19HYgucWGbDhFZ7o8KJ6x/gn4p/DL8eSqeEltmWmthlpZJr3lNPFtdzDdd4ikVSI5up9RNaRYOcy2CBlPNYXlou54Mf9BSIrhGq8elozdyQGHohQwdR3II2NPOu6e764nQRwfZA8r6RIXDnlkGJRC/IU6UVKUrWSCy1+VQFo2otmkOH0rf7gyy+bdL+Y/apvx1oDiYw/x+geftn9Tp973USpJXPfmXeYpQ93tTCcc2dngxMwcycw8vT/8JG99ZpXG8knWghbFMKJ97jL3JSmV9gyd3XXmVY4UghyBkhIj7ZuBTQY6MZioQCcx6coCV/Ytsvb4Y7yxtYDlDCHUaM9FBjNYqaAeVlGDHHam2Oe+wJt8l0mtyZ4lTP3ZZ3nVT37M3pd35fcV+5upLMtGEHJvRahleoMSDXmJkW5SFT1WrHPBEh+zMuy5KslyM+26XvQl4kSSpC5+eB0tDI41x0xF4tsjjEiQ4Q1G2mac2/gyQ5iIwahEkYFrpRg0llw1xghy5MfSV4nnLZANRphM86f9tkUm7nJsGVuGLC8Q211B0q/eg7IOoKhgZFrs8J2Xz9AO64yLCE/meM0ScrnNdGGR3nCd6tYV5sZjAqeKlgGMEoywyA7dxvvyKa/trHFXj5uZfC9BNmbZcIVyXJTIJqEhFOezKWGzzt5wRNOvcS5V3NJwhDZSluMhZaMQlg+We1OSdOhWVl/4Uj4nawwf36E4ty7v3RjYf1874QLtmSnLc1fY115jvr7OgfJfMK+/PBVUt6a0L57j3uEerbLP2l8+yrevbuHe2CS8cJGDvR38xx/lvl4Hd2uD49GEYDjGVQojb9Y7CGUQyqAnKeLMRQ4oRWwZsnaD/r4VVq9tccSvY3l1RLmOQeHmI5pJhtuZ4F9ZZTE30Fxk1YpxTVs+lFuB2f2U/RGsYJFGOAgW9ZVbT/PxeoCy0zTDBmrWDq4oZKztosDx5vmw57HVLhMthZkq28NPizR+kLU9i27qkTkjCHeI8yaDeIHOZIHOqEmcDUiVjbR7+K6iVtK0KjE6qUI26PAs/NHt/N4vvOD5bZGF8th4aDhDziljibFU3OgMWewOKjPE4jUgc5IkI8lmDVbn8lmOXDxLWC0zSSY4kw7+tIdVJBShpDMzz+Z0Qml1g5XExlMghwm6usjm8iv4X4s+J/Y2OJQNsD2DKTXYrTWMKM8YS4tbxSRZSI2FrM+jq/vZ6Kaktk1VT0QV6XrGkgOVIzAIx0UKFzHJMWPQTzzJ/NN/7P9iFJW/x9RrHuVwRJIVdAcHmMYetnGtYtLZfzT9Uljl6mjCvJCsXbnAXa6kXfYYf+HT3PHwIxzZ2SDbXqNEyvVzZ7hNapynnuGOR5/kjizHsiQ3vZubWgphBaTTBN9IlA3K0pjGDOtnn+Gbilk8t4Vluxg9Qu5f5EYSE0yB9et8k7AxQZl+WOOakaGDXWpQuPsot77KVnR7dTHfqLsEJQsd2KbHtDjMkrPLup5THdFINM9eNm5euDwqckzdZflgvTh6ojrNF+3uR9ntFlzbbrM7qdFonQdnRGqmTGKbXu8I0yIg0/NI20XLlHEqsIqOcNK9FkcF3/bb5u/95C8+P4G8pH9K/LP8zYJ7/6GY0zsSgZCO6HQSnL3c+VDe5UfQpozrZSJOhB2PYhYrfzIq/IObW9TGBs+uM93qodc7VCZjVqwmgWpgV29jr76P3dXzLE8sAncJx59DNmvslWd4aLLN0tU99psakzRiujesBMPQtsg7xpRmss5eRfsOxZJhcwpKe9zwuvoF5UDvCyzTL48wOsbsaIotF71VkH/qC8GpKw+Hv2fs6j3M1Kfsb0zxhI1tKbQZE8cOWbTZPK1/c8lneOhufqPS5PNZhje7xIOJoRRHeNur+GtrjDsDlvs7zK0/yy2dPcTeDrMbG9xapFSsm942hSSf5uhcoKWNtBycFIJpgp1OSVslbNWnev4ZXubWsbSEXJFHGZYjcOMRx8sLXCnt48lej+okwzfbRrGjvgPHtZkrdYn6lemma2UxrhHsM5pm4Kgu3WKBVNm0mk+k9X1x5FuN1bocxct8XFZ5NAgYlh1OLFjmDUet0WfFZDphlAmevHaCG91ZtvorDOMh4+kNkGNKwYiZ5jm8YB1tpnjqAfkK+YlHRt8PHDM/scXzcxb1lvgBsW6/HeQlZo4WQ3zxxcIWG0NXdqeNOYUWc+SZTZHnUud3hI52hNEtTXgimRc7W1s0bA+tKky9CmlQo+j1aa2tspyCRKIOHeVaNsAebVP1NbLlYC3v46pTZSgzjmYD7mov45rF8qiZFaYcr0M6nr++Y46sFah4jyidkBnDqApadKP7hzOudd3FXIpQZ2Pyhy469S9/2vu54TPqV4zlOfiWT6scY3urSFejdEBWtAjdLZr5I4cPZN175tmSW9jWfj55cZPwygaHOgOiyRiryKnvbHOk12FaqTMtcqYb2xzpdEmGPWyrQJgplkmx0gI/iQk3rrNYpDiBQ0xC+JUHeOXaNZZ9QXVlFj/IWLq+yvy6hKKMUxKE6RTXchHlJhMrZcF1kNEaL2ct+XEK7eN4a6R5Swq1rTJjFYYUQWoU7UKJXaamLKyscGrjmCW7w5F7r/eiA4fPOkfH14z/VL/Jrw0VD05zNqY5S6C3yRIJhbpJvXnrHDv289YvvfO0d+/MazlaeifW6PeIOk9LOfq3fJ37sz/8dv+ZQ798kt33OLx//mtP+35NWAst9unHTC4ATr1iNnr489n/npwd/hiLtUsk5juwbIc09bF0w3f1RiNkZzpNT6igXNm4Vrq/tjI5f22d+bkW67ZNlAxx61V0rUm8c51GWKBKdQZByERluFEPt1IiXwhhdIILyTVe6lW5lu1yqrq1lS+EnMml0ucnkLv15ucfiF70DUf1g0cXeWbtGb7OJExdaZ4cryyHfxn0RvJ6fDR60P56RuLbsS2fqrCplzNqpR1yBZuTwwinR6ZnEErIIhrf9XXD3z0RG6+bwPXl2ujqavUlTKZ1pztsHZtR20HBiuNRUxPhre8IOT+vp4nGTYdMdUrDcikLjXI0odBYhUE+8givQ5IsLPJnro391MO8dG+DZuBwammFSy++h/HZC9z+bIfcfSkf9LeYPVjB7hVMglm25YRmuclu9yq35z1uFy6PmkIeA+2jrNxq8JiVpM1UI5KMmi1Yjzq2h8yjppM17A77Rsn6ML4Rtmnv/6oZDBd79nLe645mheucsZJogBm90giVYudnWCwpIvlSvOAJpJl+MH4me/M7mmd/Znzj3NVvfoX6KBs8+etV+VtHU976yZo588/nxZF/8dw0nvma0W9fFY4RwG98JtEP/+iBZy78yJMX1KHaDdbdY0yKBYo0x0rW6zWz4RlO+HkynAa1QbFnfYN9h/jLzoa55cAiq2kX0a4y3ulQzUe4c0v04lWqnS2ajSV6GaSuhxl0qDRKTFdC8snL+Ej2Rb5hscyodYy9ZIQS0khhrImZcP9UVzfjycCyc+ITt/KRr3yaN8VFmLJrn06G3m0Mra9HuguExkFpw75ml0oQszv22ZvUyBEU0Sy6cLCyq/MzfOBFUzPZLAnr89Pmod5k5Q0s1EI2Vudyz862unvHF2pmYAwHCi32On2nujlKL2yPOEbEMK1SXphjYCThKKeGgovnWR7uMdts0iGj1O9xcHOV5ckU2WhxwyisW49z9epVZvyM+pJNsDmmlHiMu2MKp4oZbPIiv85vj7aZzxKUKZjBUjEmL6GyUWWG60HMCQ2xNmwKSciWvs9uF9uzC0xLZfLVveyY2Dq7EF2yv4UT8++jSCuU7cJUDpaLXPWJpx8g2RU4mWAmsLmhHOJshpZ/5Rsrfb5o/5H66BsC1owUr1TKfPSSUD//j1LkCDwVIN4tDD9u/ialpn87c/YMRgiE+f6/3zc/+46+/uzdfOSBTn6/cmprWNEQ2zjS13uhR8NPsWd885WpokTMq7tdUT7QMruDPao1wbDqY6xZxte3qagcvX8f/aKH34uoS4tBMiGvVhnOBNjGRny1T4c9TNOikhScPOexM++TC9+amqllmbn2db81QOygi8PsOFXxVHxJ/RSjbpmykxD4AZ4vCf0+loiIE+js1unHbYLyiIA+WheM4yVRKT5VuSd/+EkH55H1mfvSfPY1OOE+rPIm5faAnrPYj1OjxLDnSs6lE92KjA4fP28XyVBXhLAqosivOQ7t4YRirYvVH1D97Cf4usUmO26Birtkm9c5NB0xUAJrbpm9NKPY3Wbu+i4Hlxd49HhO3YT0rq/D7h7VWomRLPPw2lla/T3m8kR4puH/Hql+CyGPEvdrzhjHr6NFSmw5XLJdDlp5caoiKUouiY4ouT7jcsvkhVCPZVnkgbEYZ1WcTYlbqiLTJnV3k0G/ZO0liTK1AUrOOq+85VqYfBRe8jg/l88TjgJzsebxA/+qwif+Vek/R4r4f6vP+x9Tj3wF8dSH0R/4BfvayV9IHXVp9/VYJqDmfYwsyaVkX6KpNUtm/2ond0xF3Ni4wFvab5a/8tjn9Ktf/io+HxV4XoDev8z4+mWqeUgctkhmLfJogslSbKUwUYqoaNTsBnlljj/vTfg7lRqTkxXaV6tyW5vGGpvXNq3BsBbfS+F7yN1tzCOb3neZeqnLJGkhjKLk7uBbOUlSZ6rqdCezaJnglqY47hSVOwxHLWrWhdYrxe/ODpLKA0/Xvs8szNyJsDQ7E4uzvRewPpphkgoTejvDorZAkU2F0S0k8TR1bsdDiKLwJ+SJGCLOnKXx6Bm+rcgJ6TBdy2EsEc2rMNqmyFJmlg7xxZ0uwtXYDz7CfXGKGgyYSwZ40mKwO6Geu7B6nhfLkNV+IXtZZt1B3T6L692JMJosWSJKDw8CcSPUhq5NgxrXzIC7tcAYh2w8YTmOcIeBfdHkxayd6PtEOoizkr9thF9nL1vAs0fIohDZYC7w0zTJrR2s6ByRXsn/wT8dvO/JF4vvH3yQ2eZvQvuvUwt/pQf6v8irnr/0239WyK3/4HF08cr3mQMnxRZutkPgfwnLsY1t9YqcpoCJI3Bsx12lVNkpksqtj/5Z9eVbHY7HM5jcgzxHigKz/wBdW6DzHJNOUOQYFIYCYVK0TpBuijQt+vYsD+0OmIuu8I1HYh3629twoPYXalRUrg2QN2YoLg4pJUouo/U+AlsT+CleMCApyvTHM+yM2uRMkXIMJseyHECKIhr6J0f/vDNTbzxwYfanjGi9GOVY3Jge49rQZ23QYBqDNCnGVJFBgvYWzUw9wvfKoEtoPTC6SIZTOd7eo3L+AseuPEurt8dmUaHWk5R7DvnFHgvdiBW3wfSrT3LPhz4o7vmd3+elV1exRjGDG3scn4SM1oc0O7vcNfQYTHscSxN0MeJWJBkLtU8TuDtghkh2haufcrbM98Qdmp0YMZrwggAcG8rCIVJl1gYjURnv+PfkVbreEg+UltVDUsUVVFzHVtchi6h714ymludiRmf2IlHqILKnidH/MH+BmWv9phGCv37+Grz//Uppw39Hp6HnbKrT+/gVmb2hmf/FTOsq51fvxehZUeKhapS8yMkIqg02t0ahX5TqBdLOqdpd3VaXa8t51wMlM3Qh0blCChstJEaNMUWKyaaQTNDSQRYO1hDoeOTDEpPxBkesMXfkPaq2x5nOodtj9vZKUS3Zu3GJk9snwqvZeWeRyJzC8xIsZ0qUHWQYV8lQKGMjhcBxYrS6KYKL46l1KP6P1pxMiuu178KpHycRFXbjg0yJSaQNVo4FGCGxLIGxXYSlqLh9LEuRFjUkJUIbk6hFpRw7zawizY0T56Y5jun3JtIbT4yzdpU7xmMGvSmtq+tWaXs3bO91lBXlJh9rdlt38qtFnfFel/Y0orEzINManBrnkzXzVmOsPvNzN+hNTpJnOQ7XrELta7t6MMmIe9qN2qG6FibcoiX1yiE+PRkwP07tTa3K+zHRkqyRqoyWzM2MVc3P2SaaKJknSK0QRHqi2yTCEOkT4lsP/ZPTf3gh+p13HDIf4rf+VhovPmedhjSuOT0/4sBbXn7j+p8+fINoUqZGlGn2AoX2JK2levTolbw+g+uNWO+/yZTSL3U2WG8tsW1nCCHBkghjYUmJUQ00YNQYC42eSHB8TDVEjgaEN7ZpFiPQBbk75SVTmTyA5a1Cqysu9Y5ORywXnayMZ+0xMQMGkzZJ5qOUjxYRCo1rp6hCk8RlPFuRxYq26Kqvv3VLne2+hcRqMclmSFWCoEvJywkci/7UJmOCUS1cN8UYFyG7OLaF440ZRC321T5nHQ0emrl+2d/dthdNGjaFGhth9AtEjm8XZExoKZukF7mjhENftGYu1axpdEeei6sDR1wOD5snuhaT3Ye5r9HkmiPoUEirKPRwPBC2Slg05fBRBsVdTPIVsmQPywlNNXhaTceH9ZTjsqbXpwovLPNUo2C/X4LJCKnLYsJQSVszm/UxssVT5SbXPYWXD/S+cTaxY/JVOvI4A3UfFfEbvOvEv37rO6LR7/kfUK/i1wV/S+s5s8hvOqEFv/pe69HGfrH6uzuH2Vz7ZsrZOTtWs37G7PIiTqqzp7diewaZVcknrpXmi8kqB5sH+bKYgLYQQiJHfco7A2q7U+qbW8xGAm9q8HOfPM1xVZ8GE+a8o1zfPHT83Pi6XAmSyN0Z6VcUS62H5JOX3nTidfknTh/hYqmkh7slZws73KWXnca2MizLkKQltPEwSECRpyW0NtTsglcf+mO21P2sx4fpxi0atRFVbw2hZqn7CePpPMNIkxQuwkgcFBUnR+RVDi6McD3F3rjBcLjYuD346L1fN/zCOksPF/MnviIao6/e9cboN+Yc+YV0yOVyy/S9WR4IX9T85XzZfuKW+3vn64fNJzLHPNxeYTeYY6CmzIkC4VpsFB08rU1Zp9hp5kZMnFcQVjfxSwGTyUSmSdk4IjGNUqcYxfVAsuzb2k1bXCxZrPkpL50qwsKnp4RRhWf2KllhZwNuySayLh2zU3LJ7ApTlVHSfXVSOurp6oz+1Le/Z+Ejt08G+Y/X1vW/+1XMz/Az/H8OyH+w86BIrapY1Vt668PXT7Kz+2pLZ3mm3WmQmWBp3lTwyK7verN4zmV0ZNu6aDg5rbk2XynXySoe+BbakqQ2JGGZcbPN0K0TV2bI9y6xhCZbWWDYnGd44yJHim7SmuypdupwI7EbO6xNT4rh5DW3vVh94miAU4EobqjhJJK2ilybODmE7fSxpY00HkYabCnJlUBQcHxuTMMzXB0vsT45QLM2YMYvsK0aJWsPR7SQ3jY3+nMUmYuPYP/cFguNHvUSaNPjav84WAWBzOeD3T8K2nr3+rnoRYEeTEU6Lm035/Wj73jHZ79X/vxDyz/0oT/9i6e16OzE+/NiuFSExL2neWGzwrRdxWKGgYypCkPUXRckmRxYvmlQ0CiXjY674QmczKbVPs9wfIQsn7Fb6svG96zCuJkaZXc32nxSjTgqG6w7Hjs6RAVlpkCie6o1Z9HsblvHsCuR8orMKptxfyId0TEHvILB6SU+87bvPv3gW49czs1apN/0rX/780+eM/FpVwp+nR8zcjI2hONnccSujLnHIMJIm0XbkFZtEimyc+RJlZJYlQ2+YBnYfoq79ZA87qNGA0yRQbSHP91G9lcJAhflgTn+Iq4v72dkWeSRRWzNshk9Pn17+ej4E9Fc+KjpRq9jq/dDuhClNEe6LqKpEIdjrdrFRDKr/5I595+TJSGeu4nnbWEZizRyqLkZ9x7coxKMWJ/Msjo4jran5KrMJKvfVAaLebDG7I7mkULQKHdot3dBSqa5JNIDLm7dQj8xBP4Ez15dcotNJ0fZfj6i6JZ12xplV1h5/2NlNn71lIkf+5bije/iS7Wm2TINLvevmFldojvpce9wTFNsM9eoMAlCJoVj7MSxPVGjoyUlf5Yx5eAKvjWgqc+gC88Ie75wmrFRVotyZVsL8UC8wUtLNuNc0JoGjKd9ThVT2lbCQlgx40zSl9JsWZPxPYzVXN/4RbrqvjCJRefYCf7o9a+1zja++j35fS/FvPMnnh9DfJ67ZtI5/G/nBubHooctpuMythUbLXyURkuCIiHKdjmxLKYDKcYxZdVDknk+z/Q3eJs1opylqEmKwmBm5phOYwKlCLrXqa89ypHxNZpWSrmnkOdvYM59VH63NuJTByRj/8zgn8k0KossTsjzoNtFuhaqbcH+AnP4kL5gJYNg+Xj/L6Uff4QoXqJZWSMQKSV3g9uWzlHzRhRFyNM7p4iNYByVKUSfUZ6TGoXr6ptJk5FHqzKgUbNA2mwNK1zcOcwz68fppjY2U0yaW2L64AsOsB3EyFqFrTgSngq9XEZj80+rq+H3/einZPW9/7N+bfc7kpe9TX6xnGjkCEtAlpTY7fY4Zca4OsY3mqplaGvypXTIfC6ESY2UVNwh85Xz9nD15swkpGJcvhPplCjJEgZ0Ss2vcz33IR5xi1fniWRK21hgQtQOqLCk1xuBHnoQ6u3qvURyqO9b+K3v+bH9j9npD6Y/fPureD6t5w7IH4CXv3uHQ+ZZOFjuUQseNFrGKFHLLOEMIkLPwhyomIVKmt9jjfN9uSsLHLaqFdauX+CtrTZ25qFFjrYdzCDHT1xUIySpBIy8mMBzIElwnn2AtxplD92j8x83I/ySx7DqmYFt6RjJ1fGuFEWO1C5S+ejBDtVq1ezcuY/0Jfep30Inl5lObufwwoOE7hzTtE2aGbpRgRNE+M6YelhQ5C2UqpCpCoMiZq0/hxACWRg8a0xWOEySKpMYklyjshwTC+GMPnPPq6L3FwVO1aXYr+h7qWkdFwN5tz+K3K9+onXqf/oYb03uMW/+3v+oXvbGE9H9Px1+qXWSz7khT2UjrMmI6t4mt+1tMJv0WHADknDBXFEGpCOnWhkfWWRk47odDw4Kx1wCGRJP72aYtsmGoQqlHiLqHUXbGCb4XIoUo1jRj6dUVIHvzLDpt3mq1OZTVo7FON+1bzv5y0v6DVs/8qpr6h/+o181r/r+hefCEov/iuj0v7b33AH5938eTu3UROgh2O0soqjqwkKn1uHcd55UNh3LR9geB2ZrPB2E9JRnFVmdjdk5zpVCTj76ZV6LxDUarRWmcZJtt0QaDfFCj3y+zcARyPXznNJ97qauH1VqN/fapN/0Hbzj6HHeb7lsY9kXishROeikhrkmCfYEtu0T3xKQn2obXZrXf0wcDdkd30urfp3OJGCcWniOR+glBNJhJpzgYlFyI8JgwqXt9s05ZqUJ1XCX/qhGt1clmtoILQkEzPIZcSp91wvuHLz3dl1YkwCiAfKwIm15qBMWM7dbzJxe3z71s80/s5In/qXAGPHO4N+bfP1zyfe8+q4LLz/JOWE4U2j5TH9LvmY8IRQeq+RkdoqgLncshfQSXSaNM8+ZDPVE3m+cNEXIsVCTCvl41TIjY5Yru2qhudNfd1+cZ+wNc4YTyY3U5opy2ZIO2UwZZ+yIvDcjHpZlHr/14OCLH3jbo6tfzP+OfoarcjN+rXipP2/9/8Iiv/rDv4F8ywCr/56Ce48+JMfDmuVmyrLSaRHnJ6+NELEgnqtRrgmW1YSZcpFjS/brQ5yxXEZlwdefvSDvueE0zD6FXALLHtFCMxONWMwruFc7zG+scTDDul67rTh7yz4144046XqIRDMTzrJbPZxdDkqZG21T5CNEYiP2Jpau+iT9Mfa0AP+geIBQPkl/6JBqsMsJu2kbZWWEAva1tgmdHTAFJS+mO6oyjR18N6YSjJlETXb7NRIt8Utb+Pa6mOXft16R/8vZRrTh1838ZsChjQo16RJW5/AoUMQ0lpdptxXm04/9W+Wd+phECPN9yS9bn33LC3X+/e9TLz3Q6r7lT50/rB7xPyQb/Lt4l9ODHt40hcHQKhWpscOqWvUt4+7f39+acfK655kbVIIbeGyEIk1v8fO+a5keSVQXM+pBWxZtq8fJdpMd12KcwGBa988PKXUTzabfMj3RMadLK1z4Xz7Yfnj7cks/sPBH3MZhnfh/xlWe09Fp5m/47rnnkWvH3yY4+DOcXPkXpvmpf9errP7w+3b+iN9GmVauxd6Wch7eZ/L9dsadviR1C3zXECPhrcGPwAAAIABJREFUyfPi1Mv3mYetMd/odPV9Dz+YxgdPizNGGmmBbMySVKqMhlPCZ5/g64oRvlvSX14JsIYXee3Jb+CznV3CxhGesG/lfHfDHJuZwTZjLDfAmgtR7Ohj1p082VUQuOR2lrmcan6QDb/L9uBN+OURJU+hdIgtM6KkzjSp0KoNGEQuN/aqhG5BPUyZplXGaRklDVBgUqvUSD6xOJ9fKG+Y+9IEkoIwaNNdf5KvL/ms7jTY2Gk6dK3cpNAoW7jvyr+JH7I+gsGIX/ROaID38jLDj2L4UXjDF/Jru7H85c1f4iu7T/HjRU18Xs3ae6JkYmMyYZXpFROOBBUudK6a15EV9+PaV1xttFK8LHT5DwxTx2+nl0XBZ8tVBl6ILMaUkxVuxJtyPyN5cLcrFgJp6vOH+JOX/zBf+Ff/ODRnPnBdwXv5bt77f1zu5n8QgP9G+8+dj1zCUITYCJMnNfNd73TPlqt8UKVUVSYPFCP3R26M5W6s6TiGsJrSKLZ5cZIwSKhuX+465VKJM1bMrdl2/ubfOVc/cn2KmjvAujZkwwRr/QYL2ZCKFfOK2/aba82cSlBj9/oewZe+yHeev87K5lnusA0tk1LLBCXfxl+0kTO+mQwNeeyBdpFOYhzr6MI5mtVnyPJVet1Z8tTDEi5CuuxNNbVKRq4cRolLoS0Cx6Ea7jGahvRjC8uJkNlkoTX649vmMu9IYO7Y5zJfyTnlTVganuPVQY/6gqQscxZU3Z3uXuH27VWODfvcdZgnuKFv+oGfy878337aH78C87p/8LPq7e+eedR7lfgZkZiW7GS3mizwhrY12O3idmPUxjWOF1XrM1hiA19fdRf4iGhw3tfUyiVG5RHlhVv4guMyjBRla4GO3uA2sZ0cIY37ZU98/IWv4T2/81E++nfdvxd/9gOPFTzP13MJZPiBdxojjBh/y9/RP7fwj/P3/ODcv8Hw+1IbQ0GQZ2TGplsP6M/59Cpz3CgMS9IkeVwocX2PuqUpQlf5+Si/r2MIpwlkOVmvINtNGA26HJYQNX103GO/02D94iO8flL3HuxNwjAxdMc93MtP8Ppnd1nqg+ML/FuOci0csSBL6FhSJAUpkSWx3RTPuoyld5mMawi6TBIHxxrTn/pYdkEUVwkcQau2TX+yzCR1QGiEEkE1++LyDGL/DDR9arZiRmiWQ5fUUeClhNNN7nB2WSk9Pb1b9GC0yz5S2vYXH7SeYR34T+y9abRl11Xf+5trrd2cffrb1r23+lKpXCrJkiUk20gYBG6CwTYYB2wDz3SBBAKE+EHeg5BAAryQGB7gJDQmgQcYMDYY2+CAYwO2JEu2LEtWX1L1t27fnX63a618KNnAG0nGS/wCJag5xv5wxjhj7HPW/u055pprzv/EL5a7/9Vl/WdP/VD1f37pdtn8sTc/8UX385Mv+wX9SxwzD9tLrpae4UA6YDMTedJ1WENXI9LiZDrNM+MOT0fTLJOT1Jqs5HsEhWfkI3bGF1ly57gznnYP3PTD1X8cnHUf+vAvsXzHzFLxZT/6H9ws0/5vLcgiePlI5PHPyTUt/lP/+JsfdDd/3V1vjYx7SpUTExXuLiOE44JDyvHCxgzD2lEuzgb5VOeAu7ibs1tBb6ruht14VOw8zYv7A+r9XfSlNTj3hD45Hqv5yrKnE7JeTry8Q7i3q+Zyvy+xaffYYBBPZS15sCfR6lPn5eQT57neBUT7D5AvdfAHj5D3Q3w/SFJ7WebY2LuRmfAyM+F/IsvGnFs7RBhZtNpH5QvW9rocWVjj5MEnAMP2MCYrPZEIM+aDS9f5/xwaZvOcmbLCpzlTeUV9b8RRE7M7KpnaLgm3t/iCaILOJ8zmFVJmdE7mWxTZtuKfbPLzyX+901i8eDfj5bFv+I/u+3/zx4u39YPRH39DeP6h7/cf+cFv5BeO7eMhyZjoyNY4ZH8V62qD1eB1ay7MxzHbhWPS30VtbqO3Sxlv38dbyk0a3/zD/IPvuks++j0f/Zbic89PVvw/vO8X5f/wqL+9HvkvVMV9tjJu6mLXf/Wpu8a3nJx9ixK/szPk+MaYS50p+nPT1HorLLVimkst+tEqS4du4lEXsxN7ggVN/ZhhrzjDifXT3La7zHy24094Z7oTdO47SL1BPN6JDrqppbMYDM3yrA/0eip6nVnz0MAFg2cv0/rMpzg5VSM8dYJ1f44w2AIX10tGg0Oo9jqN1lPM6j9gll9CshGr2x3iZBXRLZxTbPUVe+MpVne6DFOPUZ655PdlyX/M17zxhjQv6FQFzcrSKwqCcQr9CSeiFtnWENke0JhMiEvLy4gYBdOc+Y6X36duiSL7C//q38i71a/9tx/atviNe0Ne/Y9/yJ36lzeXr3zrKad/nurrpxi942089bVv43dvaLCmh1WHm+OfI6kbNzNfbK5ExyYH1UdHdXpDajvpmfp81JZ/+c3v5t8fFEZvWNufvvaXvvUvhREB3+N34Kr3yOav6kaC+OpuL2/jgP+uH33pxR961/u//eIl+aWLpVxe0u62Tp1hsMFJs00vK/FJwlmpMXQxZ2TEjc2Q6CXHOPOxpzm1us10usyL4tx1MudTq1QZNqyPPaEq7RL1cT9qjPc6ks9HAXMmJxwn1eUN0+hfHuhyXzuthwYdO7QrUUWOsS5qUtoOftcTDXb1od0LNkjazAc/ySfHP4HanWdu6inK4gSFbbC1nVBWCu0hCZa5YeH3vBkXe2t7B9uh24wt+xQkzZhlX5Ft73FyqskjVMwP+1inScuU612I2RywoNpM0rDvWpdn7Tcc+ohq6rf9d/WDTz7nHGqfeODPIbsPz1th8+Gbisde9+i9v/JBP/ufPjN56V49+ox7du9QEBdresV/ka/QjXr2J0f/7vwfFZvzO28/dRbA/1OWgTv/chWjXP0Q/5WCDLCP/dzHh9yfPvmH+tt+NvnTH/6O/Of73s9tFgzqHn24yc7GLgfKgGGv4LpslyRskOs+phYwV+Yc3C6N3doLTtVtFtTw7QxGIlyWHDGGqnWsuid/dO9Ncw2/+aLbOH2sTb43IHxiHdm6IMpaM5VXlL5CxRnBQBHaWak4IwdoJ9uYtVVMtmufbl9H3DY83f8OKpey108oyhfSqD9OVhxhkgvKeSK1xa1zP4YQMo67vVpzY3vQX6xPcVpVnEo0B4zBZinNjZT9Wlgb5xJYI3FQOZVDsTFgnXD6/f/233/Q/sl7Tnjf/8LPddz8z6xz8Q++zx/e6BY/3Vq8vKh/4r3DdqHkusfC818zji79NHclmvR7fkTu3eo1yl9465o8lw0QeH5A+9cO8jYr/gSnqB7M7Pv3/7TwLZtvtz/3b3+913UPppoXKTjq+qyES2zpBjVrOYCmiKcoR2PuWN3hERwXKeTmMmNdKbpoH+DRyiHK4ZpNekPjL0QTVFgwcH2KpkPPx8TTc+OV7Q25aXsPVrcp5zxukKB3t/wcVVpnUtZozH4CZkLWB68g5Rb09JjOSMhST2+oGac3gHi8LwkE9ifvw4wcw0mCrmeu3VpPR/3Tg4Lrl7o8OtjlVq+5lJVESpgPFB2rog2CyJl8sFA5H6zn6kPHTrzx3Nz29X712Z8Rwl/Ft4H+/9w673/gm/0PrJYu8po7tt9bvuFm8dxL9v4ffYe85iPHfx/5DXEffLNXX3k3/5jPq2Pjf6iv7nkdI/9Fe4N/UAD0uYgLP/Woev1jX5mbuQM/c/Fp2d2tGMYt1qshnpSqyun3dgj3xgxHjkFjno9vjjk8W69yVaS6KvWJtND78N6jWNMOnEMt1vB33c6fzHTwOiQcN7ETzaRVMTx1qxvN77NuLyV97BkZXRpSXU4JRptcp8K0x+WVfaRrI6oRZJNbsMUiSedhJN6iokT5jMXmp7hu5uN0aue4fvad3NR9kHzcUnYjp1wvOL+3kOZ4K6z2U3YGOR84fSE8mZfNOCuC2DnWUdJC6VZofFsrivLml5594m1fl9/52xlT+9+jzsZG7t78/Nb6TQu/w9csvpOjL/ytKzOHHn6nvOYffj2s3CPYT4r68tfLf0My+Xlpf6Ugv0du95+NlyccsB981w/5o7dPf7JIo9t2M/WpIOJyp0tzUmAmIyKBNKhRjGBvb4T1JS+qBRwWre93ykSV0pEoyY9dV23lIXJpi6MbQ/YVXfYt3MS6FqJS4YIIe/gYtjNN3mwx6M4zlNB3co9bvUjLJmyE5dhF3eEj+/Ru3AiXh0TjZ5FUKPcUo9E8eKETvI8XxO/ggP0Abf8kc+ajnNtr0K2e8pVYMh8yLo7Icfn0RsnowljWPvFQ8J2FjY9htPIq2BhXJoWyEWb9rgnYKCK5zBfe9NhjH36ZfDc1J/o+v0vqPvp5jqC7hW/mZr6ZF/EW7z3CzW+F3/si2P9jHv2oR3rw+U9N9Vwl4Yj567rxP+XfeIBnfoVCnXzBR84MLszP17ONzjRTdsj+yrKWTTGYaBJXMdxb55RO2JUaNd2SB23qX4fyRge2rNfJn32cG9dGctF/hjt2DvjV2YTwwI08srostY4mX/KUactXi8f4pB7SliGhVwR6jq3dT3K77arLJObSThaLF4Q7Wv+Owcy7OdN7M2WJ6PzJWmL/tLhwsVnt6w7QJAzSmAPqY+1wErpAZsdS+rhVnatnfiormNq5xDe5uKbRz40iKOWwt2aesgjEuCpXMInMOf/Sm8+98CuvHPlGoXfwxOfNmEjx/wJs/bnr6ggF/v+2v/bCj96bf019+KbxheWHzn8XM9X9M8Z1wpwbp2o83QuwuwEFjmK4Lc0dF2wMvQvslDtX7emXiPeN5pQ7N3Md73/2aX1TweyeG/k7J5O4t5O3ds/ttmub1WLr0vSpwRNnZmrnL1fzaZZJS/vBwjRD6cKlFdrbaajt0uIFpw9Ubi18gdvwd7NZXU/pW2zuvtzkaXZksXxovun3tYwfjojWbHs6ZGt4PN4/+cRdx4v0huv8dn263J6ufL0TYYeXeFWwZN6fyXRAYAZoPyFU53HWUPqOjaQoY3WPz8z2Nz9y64cf2fgzyzV7/oL8kje2WDz6oP/TT6Qv3jVJtn8qXTMp108KDiYzPLI7ICoNo9yEa3nUbaeZMzOnqtPV2KVG1OD4KfdbZoGV5bOdY2TmOAEpM9OP4Ov7OHT9KvsP7nJmfAuVu97Pm3I8Hs/0stJJm2HpSc6v0cpvWzxL1kx4ZOd1rA2/nUF2N6PRF+j+3i2JztTCjFtdnCVtNChSqIYFvoziMSujN8Qni989mjk1Z9GNCGKLXz3NnUe+lHetPcp35ll4BFsl2LJBqEZEwUWMepzjyTvIyv1R5R/+kZVvfOQ33e+7azg+j0H+7dmfl/d8zUPyqUee8meX5RvHCZ86Nme30zEvqFJGRnGpN6FhGtbqjeyEW66+dgE/no6Ym2q75dvu5N6VPTrrj8sPEKttpsv78GWX6/c/Q6qn2Bi1GKQR0+qiFBeCuYXh5oF9rJdbcPESi/3jyUV/2Rzi8eHd9CZfSV7MIeW9sSnbc1P+yZkpekmNItac39rBr1mzPDo1f5qFaoWVLLHLxYEXvpCHa5YADU8+wJ2zJ/mUnWK88hh3VkMOk2UdDA/TDs+jdZfp6DPS6x9tdstPHT7p7hu8+Zm9R/506xrIz2eQefsvy6s+HMrsV3xs7Q9+f/gF6cjdHNd9Oj3HxZ1dOplnohpMYsfctPE9GflpP+DUi2/lp265mcejgOD+D8sbx2ntEE02qRc95sLLOFvDDp3e3fJztd31+e2zszfUJ+uHT7CyuqVqK8vNU72gWflNc5SH0u8x/fF1DYpeWdrL3ZYdGFiKAparkvnJhHJ9FPY2pLk77tR3qfIay72OdqWrTfz+pVkeaGu819TkGM9eGAb+6UeaL85W9ctI5SA6uJ+GPMBg8mXS8FtE5XIc56t6y1//1T8pf3BX+0jx3net+Gs4Pg83e5+zLxX/JWDZ/fJU5v7oXlnz/+DiOfb1Ozw58jw5dPGwdIHU65PN7rSNmiM+nm3z8qee5s65Q3x4a0jU31NLWNeQLvfEcUaxU87ppd5yULh44ZDf3X+KC3mP8zWPvvQYi4Mtt1+NRs3wIre5AW90uZSdyD4ZK1TlSJKA0TCltrfLDc6zlKM2bLu1zeLiM/g9iHorpNGcm2RxNec/tNzwxXBMUG2LPHRa7sp3zK307VfhdAOlAirVf+3rbv9Xj73rQx/d2y5u7DelhfJHbn8173jTgWO5+/EfBb78Go3PZ5DfzSV572t+g+3eaZ56i//DlZ/ijtEeLx/u8WU2MiHdxlnmpy6OOnrrjNsIw8Y4k0kxf36br/TP8tDWOkeKUt9IwkNhPmxNN9kO2nYUJOS6y+7MUTZ761o9tjMTuV5+qN7rdzrb/vp4z92NcDDucP9wxKlGjVYYElQVzUAx0gpfebIK2bK6ZcnUXZzZuoO5xq+QHHySi5fe4H20m122px5d9t+OpUMWzOJp44mwxHivUJXHam0v3FK95TVf9bE/mL/n40Xz/eYGZ/3X33h98ck3vJrjj2q5huLnZ1fFAnq8XPbCP3onwcyNyO9+G68ZXeLN1rHfixR0gt+xcwcv+sVjwnBrDl/lFCxxZvlmiuoo6EUONt6hR2vV7AG7omLOeSNFVuna6Kx+QzUKjvk0noJigTIdJmWp6oJpNNlWMXaS0a3VuBwYkt6A+bDOuV6fY4XnjIvCjbKcOoqXBOuXKLM5nKvwlSbQIxQp+BZitilVl9KGeGcAj3gkLzLBv+fIl73u21/13q+2q4Nd+bG3nHaTD3+V32Yfr+bGa7Hxf59N/7wCmUd+k2fdB+Whs7+p1r4Yed+/8QfPvpev7W/w3VRkRaEfL4L6AR/aI4TRKmH9GQrXJTYZRw6+m8HqAq6XIUVBFtfYyV8D5hS1ZEIQPcUom2Y8OkKVB2CVOF9pL0OVOKmsdgo/0YEbF4Uc0tpHVRV6PAqxIS7yKORKybuy6CDFWYWrYgR1ZR0dePHPDRAXtAhaj0mLKrG26uDXb1P+t17YkT/8h6dOPu7u+UP/r39w4OTHf0lu4e3qm4TqGrvPc5A/az/zmr8nwzt+mVu/qi2TfU42H5rWf/TvLpy45yP+17zl0KigsjqIMIEgqgSJCUyBUgPEgS2nsV7weh2jplDSQlRFWQZYJ5TiUAJiBescOlKIBdEeQahKjwcCrajVK0yg0MEu6aRNNtJUpUdpIa5leCcUWQ2lAG9xaEFskDuKGC+wK82o7GymY1DzglN1nJsSd3mfth99xZu7P/La8t/uver/eYn+nY/8jL/tzT9bsvfZhyJXFCz/FylXXgst/qo8tEfO8vNcN3gz3/uJN+sLb//DY/fcw48PBrKv8uYWlDbiQOPEIOKg8s/9FwvamSBACeA8zl15qT1evMZrrVAWnPN4dcXLKgVKHFDhfECrXjEz+wClPYGpP05v7zi9zf2UqcVEmjCqKEt9RS7Vc8UbA1qJOPG+ru3JnfFuXbw+6mc/ucpk/7NMDvVwoo3iBmsGL/MLfzzH3O8d+qlXfPiQu6Ua3/Z694ov/XNwP5/qt2sgXy0g/86D8vAXeW7t3gxv/xfqXVtnOf3Bs423PfmpD6TO3OzRhUF0DTUKkdDiAweDCu8z8fsKHUR46/HeY0QjCCIgAg4vV4IZ+VwfsJIrHlmwgCappdSSVfJyH2WVUFRQZYK3HqPBRCWFU3hruLJP8zgrItbVrCpnqrL8KhdvjcjMsyTRF2KeNrjWh0hPfDpQOrQ6e4mrb3wNM/e04P23vO3AB1/493/bUmRCo+sJQ3cN5L8JID/3ECeTO+RDb+6brfcdb/ys/5NvvUT+A5bAWsQrJDN4bdA7DnfYwcjjaw7iErNaiD2MQSmFE+u9E4wPRJm0coJSpRFA8TnAr5SCeay7ArVS4L3gcVekFD14d+W7QViggx5FPod3HsFSlcVMURZfTGPwIoLtu0mefpta+bJ7na9/Kab3FjqfGqGidzN42X2qMDvGp3+nmHrmDcx8Ym5+8B+i9NVPvuaRb3HDpVMQte3zBOSrpozTXI2r0/97wDsgevqTenmDhZ/l9G9k6BMRKssgKHBRhdoucYsRKIWMFUQGHWrk2T7VElR5oxR1HY10kXg0pFRnXX/WYs1AnC+jWJP7K177s1WAQgG+wPsE60CJvjJOHQvqyuGR9ZYyqwhKI1U1Vs4FgZetwHOhDUdPUEz+LvFTGfVg3SUNQ+7O4pIzpLO3QfXWoHhgf2xf9LFMgofYu/UF+J1XbcSvHXD4wsZX9UZf9vHQ3//8cYRXzYumr8bV+b/8j8jjP7CsH/3gE63f+CP5zdLqY32oe0IpoXKQa9y2Fjc1QzKsMKqLvRyBLzGHRzoP2w59C/X0NuKnv4KZnRegeg2y5qsDtXyhCps7lMQ+KN9gGxfvdEHatq6YtconzsYWJblWBB4cVpTFgakQVdaq0i8575eqcHKdSyZHfehPEW4cRNpryLxSZXQ0yPoH7fxloVY/TjRIGS2mUi22KIezIe4WTa8UXztTam4i2XoxsytneDieeeWfnbtt7nY79VO/LH/nJ4Ef/VGu2fMY5FOLWr8qEf7Fb9z3TVVmXpmjgwFiHCZx+FRjTYxrGHETh49PUl8XmL9MPp3hVaGcHPZxeRfNx9qkhGRymd6hl0i5th1lBz9Q2VhZLSdcEHw/cw9/Hc3NWaheSn3z29j30B2+c/6gVe6NrnXuxc6sNr0uEqf8MRtyt082v4T48WmC4BU0HjmBrCWkix2K4AImuCRlGChfu97ObtxNZ/kWaivT+MG2GS5tGz93qFSXjhZ6sBW5zjqusWXRJ2leKigO9d3o3pHZzL/3e16v/sX3yd+k/LL8rw5jr8rQov29b1c/9z2Dm7Jx8H1jXNfhhjFhmCNFgJcI6yOk8j6IxBStQ3Z8/jM+nh5JrHyYVvVCJ0eILx2E3QnumGF0WaHzZlDqJzNtKkGqONGjdLK9SV8HxGmdrAoJsuuRco38yB2onS/CrAh1dz3V6F7Sxh1M9V5Naz1lpDaoVjto/2cMXrhAbhS4l6J23+f9vk+VUesk+fHD8HiMj+9gcWfObD7wbLc6/sSuO3R93n14ZjzMXtDKo48U2dx7uPiiVzF37j9tj970Dd89eQf/Gu9mvKjta5u9/692tekV6EijXnlmiycnxQ/kyIEc4yskdpSpUFU1KttExhGqqiPNk9Y8fkmPZs7KkFmvbFA6fdCH+XGCjR7p4UXUYIR0YnzLiLOnvVIW7ZMc36EeOeKpJq24SzMMqBlNSEAoTWq+S911CF0Hckd6WJFFmlQUzkyRRPtp2Jcw9XSXRnU73dVvJN683avyWa/iz7C3uMykdg9bh1dJTVwF48WSZy8537kM7gv9zGPHKlnthE7OS3psg/HUcLt61R/8k/d3XnP6PvOdDy7/TeLsf3knydUF8ovvdHOLyKt/kldNnL97INYGBDpAJblUvYBikuCyOgw9et8semPBq92zVhYOU67FMtINF6ibqD1ao5qGIp0inMzSTo8ptX3GceAMLg58WLZcSYzr98miPrldoWhcJm1MGEtBWfQpSfHZCJVO00q/lIXzx0nWLzDpeiqVkdYdZTRHkE5R8x3i6lbc5O/gBwGlKsmUIZnpEma/y7mXb1VNV9/uLPcg/IgMT4RM5/OThbVbY9a7mN2zDA7eUdV7nd+duumDx0r/c7dPrtVfPN9A3vu+LXFHvfAnfy/6Z9/arm0Uwf9W2cB7xOfY1KJ85ONurHwZGzfcRC02CYoKq+7H3tlWxDeHfs8b59s004gwqqOXJ+j2CWY215HpBZVlp0W3lI+qaR9mKVlZJ/UVoicUGMK9CFOFRKqJs00sBU57ArNO0b6N9hlHWduimK4RuoKi5ii1pQiauGFO2TJIdNT4bBqvZglsm5Y6TmPvIJ2Lp/Ev8OjFwEWTx4w7kuuJW/TNzalM5HDHLtWicqZS4/ZWGr6s/Lpb5Z1v+u1rID+fQD7p3yVq2JDsJoQk9ukn0pkx3NJHdwMv1lKFxZUMbhA6s7XhZOkIgTtB2FvDzQZKwhtr/uyzpRzdLEPTwA4izHgP5lpEPiYstkhnbFQ0+2BTrMuwUoBEEAtGe8hHGOlBoyJQCuUTVAliNcptkNZTnAdXVvhKCBCUFZQLEBfiS4s1Hq2coT4tqurgqzF57CmDBWr9CVlrGkfLq/SyVeayrLWOYLZMZfRC4NfmIs+lePzFJ2S4723DF930j37m0/oans8jkJ+Sr/M2iH1t/8C/7d7vsr/8MfuKHswMcblHlREqc9iioBhqouOhq49uQjY9E0b48Ihza0mq1x/T9aaSWOq4gcYVGjV7kCR9iuHcPooqM76xYV3UpKJEwpjANZBS4azHlQPK0EIVoGwbM0nQhBgdETBGdSNC9pA5iwoc4kN8llOpADFtjC3wQYV4ozFz4vw0ZT9kUpZkcYOq9FgdE9g5p4Y9p6qzpJ0Wyu/3yaWtXXHnC6JmRBbXBrfxxLmv/unL29fofL6FFt3HS9xPfre89UM7fmXMW/pCYgPtK1zpIQoR28IMGpiNmwilFGs+bbKFkySPK4k277G1lxVUZtq7QYfmpsHrFsHeKRrnTjPaN6O83bKiN2ziDqJ8DR9EgOAih4/B4yBI0EOP1weJdrsEhUEC8GELyUIIWyjbQDLwMqaK+uRhhJg2YjWSeUyKR6a8kimqakwaRhhpcqWqMyJ0S9RHCiPLys/CXnSTn1rZX3XPP1WpaGdEUgtoH1/Tt/72jZ987Vu+ZFGeS5H+bQwz/odSdn/tIHu8yD2hf6z+Tvn2x0y9p1jKlBYsoTWqXuKkjtppUatNJJsOgv7kNOXMQjV37iYWn37Wq/YllZVSUbVR/Rmqbg2lu5i1BmG2S163StU/nqvWZRI7j0ygUJYCwXqwohBTJwhniUbhlXBB6mgXo0UjymDDOlZmcaNZXF9TonHFGBtLXut+AAAgAElEQVRpxBiUHqOiijALHeMGihiRHlVdU5cu9SrEpBGB3Ud90sWZy5VfSOO1+iLdYo5m/SU2Ols5AmDmcOQ6N5X25R/6s9WZv7Drv2ZXtUf+5aeYnPlZ+VW+wX/gwZnrHLotSIH3DnTdGhU63LRAzaFtpmRjRE1eycL9l5nMXRJ/HOV9zYubJdg8gh5oxmEDVctQtRKpcpn4C5UxOZUMIS6xaJFK6SoeqDSoEwXTVL2KqqXwSmHkLPlSSeUCrG6iigmZmSbK+qhWhHjQ2ZiGztFBgJIRPumB6ldSa/hKPEHbgVZoH6I4RGsjB9fB5ImyLCta/YadqUkqxwnSr/BzZ17aYDBd0luf8td9RRTIS+eS137fQ2+Iht//A+olpVX+b5I00N84kL/1BvSxH5QLfKdfn9QP4LwW58aAxrKLN5c8KjToquajTPJG55BvfPIZdqc/zcadmXcjVxnpQD6LcnPUsy8kPKNR9RFW19BBTmVWvErnKX2TsJoi0ok3OtFKF+KUYPSESUtRVhWV9ni3TpEMSEUoxSLG4UpFoBqEQ0Epi1Y5EnucS/E0MRubuLa1ytWlckZMEIB4ch1T0UXbgjJvUuUdL5V2TB62HBQ2gopUBNW4K+JMDkmhUCj3JV+/Iwd2v+W9LzJP3KFyUWrjn/f/NrH5P5R7/usH+RzoB97lf587hGa0z4soL5IgYsTbWFk7pdHxHLWLLVR2iFp5iPqFe9l78S5W+UC1RYQpwp19RKMh5eGAIJkjWH+avUNjSNYrhltIrQO2i867aBJwxvvCOceA0ht0NqBsOUqfY6XABiUlOSUWXIEXja9SXN0jap5oYhnULjPuPkHZDIm2+9DUXruWSN7AVwmVM3hToyKnaqaUQYLNOz6opsUMPppKu/SuOYXbWSdrjvrReDpid9LDL9Sr4Sz5l1/3Ge569Pu/xv3EPdbVT36fuuZ7r1KQV4+d4Vffcp/iofPCxuW70Np4pSPACaTguw7jCqjFWJnDbJ9jcvM61VRujKAUSik1RzyYJZqUlMUZxvtrhPkK+cIzVNGH0Z1pGnmIi3ZJqxIBnMbhY+/LXUqvkTxBjz1UiqDKMUEBWLyLCXKN2Aqn+hRNj7VNhCF5eAnsnzI56KmGgjiNuMBBzesyQHuHBCHiLdRKTORREqJ7Z700HqmU2gHfJBCPDFby+VAPg0vLfdR5T+PQTGVF29f/1A+9vnXwO06Le2N4LbS4WkGe4hnpTO72/Mr7YhTXIwrUlf4h8Mpp9Bjv96hUDV8Y3O4TDF4oGI1SBd5b47EtTBai/GGCp7rodIAPVyn6Z1CNR4jqHpcs4MpAjM5RDHBevJIWphxiKRHtUV6hK0NSCmEZEmQxpowxZYixAi7HSknuYio/RPKHiepnwa4x6gRY18KNQ1QVE2SOgJAwNwRSJyxC6hLTkDbB+FkX1E5XOno346MlpVqUySglNPuqubUygNMTFvoBnTtEtg6ded+XvP+Nn+Qf3fud1zZ9V61H/tqzfjx1CT79sMFWc+AVIh6RyomvoZR4lCogHqOjVcp964FJImlpDDVTOhyFjihSha2OUM8WSHoDbPIwbnoHAidBNRbnp1Q1mPMt39XpWFEz3hkX4/IBiZpQD9qoSYlDKFF4X4LxaJ/g84qiFuBsCz1QRHisDzHphSsDqs2mDOZihrRwQ4dXITbvUYRDbGRQahY9EkTVidU+TB6A3dM6+JjIgQ28mpHIh2Te+sQesklfgxpAPFOnbsfqpY+8cTN83czeNY98tYLc/Sffzf03fhsc9RO8q13p1PAaJRqlFAIKJwE+UMTRg7o8LrpkyvtMVaVV3qGddprAaKQWIWqI0k8zWlimbDsyN+sqjK/0nLZ9hVeLYRo0xdgVgshj+6sU7Tpm6CmsxYqj1DE2FbwoKglJPUyMJ1UKaz3eCoFtEco2k3lQjKUKD1NdHkI0EVer48cZNiooPaBamGyNYnFMoafQww6Vq1sZrfmwntGIu24mS1DlBCUnbOtCXhJfHlNLQz8dTTi08tRWNPdHa9dAvlpB/vijsNMD3vnrJUjKn9dIPwey8mCJsW5AWZ2nXDhu02qe3b6xXlfifJtm3mbaJQT1hKpK8bXH6B3KSPMXYKopnGpii3oZF0NsvZtTNn3ln8FFfUywxe5MxNgXlE7hvQXlQXMlzgkaRLkQWUOCwlRjqBSRmyEeV7hgDy+FDyZN6rs9UZEgvTrRKMFMhpQ6w7oYXWRUcZ9UZlGjKYzMEcouYu+nbJcE5iBxf5ty5iBqIywptwf4WkUxo6xeev8vqpUPXH8ttLhaQX7FG+HdH/xcG+jkucyLIKJBKSpnm5DFyHhN73bvsnrviFOjusm9dkwQbxeIL7ZQqcHPepT2KCbYqCEquFW1tgqcWsJUQtcWBFXswrKLlxJhiJ+JyBsF40ATez4rXwEECIZQLPVoQDMMmPWWVryGbkIgDcgrnBvggtA3xjHdDG+GPSEqMeUSyaUt0rjAFjHGzaC3BxTRFKpaQpUN8mCHvHoP27dvUUQRvtykmk2Iqv15sKyd6u852hv4m9K8itz+pWsgX60gh/Ff+CDqwudSiEocHm8sMk+4ZXGz13tbv1GPJ7veRd4qtc9HCOg5ip2c3dY+9NYOVi4ynrUIsz6ZPOpGzW0py9uRnQRdBpRRQ8pskUIdJexPKJJXEn7K4tKErtGIC5FKIaKutF2risxdZDy3S9qKcOUWk2nBBimTcMxEObxt0nSOptJEo5FHQKc1osGYwitIE3Q+ompvUDQ6BHaKcnsGTxtnDE6epT9VkWNxPiVqXq9aW0Hswl2hs+1l5p5Ve93Bb8uugXzV5pH/0q/RK3iP2Od2XI5UoWQBJgHj6bsdy8pU9Vh8WNO+PkuyPuvCyUmCrYSsnCXY+hC9F60yasdYB57PMGld75V9JdFjCV4vUvSnA0fHVLaDDdr4ytGsN3FlSSQeoaIUC8qitMeLIi9HpI1Vtmo9WZkryJKMvDYgrzksEc7sQ++VVGoO2d3zEuZEziM+QFdbFE0Ftkk88VCWeHWQaHcWqV4uji8Suz0kUyDe4dwuTh1w3d6uU3ODkiL3vlWsH73x9tbvXSP2eQGyjlYRceJBvAtFvBd0qvH1FkWao+vLJclLXLR5k+N0iK3fhBnXsY0Ar84yaj3F8GRKOdugshW5r/DZMYL+DFEqmCRB2F/p7VA7aymihHJyARqaMk5xziLiqXwd3XMYBeI1YTXGRfeydUMVD4IctKfSkCURlZ4hGA6xbSjKWWqpI7bbSDMCWkR2jEsqKr9EuD5GZoYQzNEoDI4XaT+YDYtOgEQVQbMJ+SZ5qIjIC2NXcoJAKNxydFLX7rm22XtegNzp7AE4peS5E75ag/DCADcboYtLhHrL6fwG37yw4Lp2Dql/Oc1PDCjrI4LuA4ynKxyQl0102cXoAicGo0CJYMs6cXrANydHHJsZLh6Jaz1LbzYjkJJKrmQk8Bpx4MUipgDlKCdjXVBGFCMqhNKgJmHL2GqWsFcSmE1UMkWrvI7mxXPkS4INZwnKjKqekgUxtmhAMYBGhmo2MUPwJnaSH6HWDzC1I9QGG9jDFb445KOzO45wzUlW2Qv7OT53jdjnBcgxOaAwSnDeKe/9NKEzyNDim+fxviBwG6jkAtHcLLX+HG3fI56KaPUu4A6DFEoxSXE+QmUhTseEogmpsMEMyXbXN+wCZAJWC25b0rmc0OXkUYUXh/cFPr6iWCjBGNc2VGkSuL2hojumbBaM1Y6u6pkSs0A9bxD0lilbCTWZp1ZuMa55xmGbfDJkHK2TtTxe7SfeHmI7DaRoQJYoSqVJOpiijRq1MeUcZm2LUt1AtI5QLhOEzo7mNnnlNeXO5wXIppZe+VWCKiofWIomejbB7DaR3RRljtDcPIdLzhDEBh1fYGjWyZdyMukyUc6kMnSqdkGVtoeLWih9kvqZBFM5KhUSlwlJkXgJQsR1lBlqXdk+YUuonMUph5cCF4EojUgDnbXxIycu9o6gDtkeo2jZ+Wi3DNJbmD7dhXyVrBWg1Ry6t8eoXTAO19nplIzKJ5hcrwgwhGYG6c3iRwleaaEZKuQC+bzDFXJFIcacJVtYQFQbybaIjHg9dxOvN9eQvdpB9l5wQY6IJy/xgUgTbAPppUxOXKfsBYPSS9Qv9VDxEKM80n+cdH+MLi2j7hRVap0y3chnU15kgKuHyPgAYdogrsAkLXRWx+TGJWmInyziGkdc3NthktRxpUF5jQmhDD1jKnLbZxhfpDi6Vaion6pkDiNnsN0HnYqtj9UMaqTwgSKwBXE+g+klZNv3qf6JjbhcrFSVOEo7pgwWCXoZLm5hRgU+SRTjuiYYI3qFLInBRUhZgW9Ry4yLM1ApKmhu/uIPtq7IeD13XbOr0iMLkjev9AQIXimZJxgrKhVKsbkfP4gE6WOTAk2CQaC/i9m/SH0tuHKQEmhHOV2zckzcWkHhFjGrbbQStD5KeL5GbmqETtxU2UVXiw3XTqSKRoxrNYLS4ZVGmRCrhFw7cukzaU2w9V2rm4UjO4xZfQBZvM+r9hRBZsjdAsF2SlXfI3PC2Aeqal9S5bTSxFNO2SWCLY8VhaJJWPSRepNoOKywiWdQI3Sb2CmDMholOU4NUNb5uk2wVltrXvFb/3e3i/3LL/81uzpALsvPYiyOS5deBQiBJi6VPUR9XUib4iUoXEM3vR3l2EaA7rcp0iZm4rDNFnZ3SDalKGQqqIopjV2Rar5mXHYdZv8MUTrCGsuYKSxC4JrU8uvElc0I76OypShDR6IclQLruwRpE+0CjArRVYGzITorcNUak+p+fCcjtAl6skW+2MVPckbxFqvBZb2xWI+IAkPgLGWNoJwmGlzALw0Rf4iot0o+P0e4t1lJMCxknCBpiagx4veoogmlGlLpTYrGPN7e6vVK/V63b0+Mf64WxV+D+SoC+ZFH4Lt++Dbhu783wVU34hFwvuNUv4bXTdK0i1p/CnP9PHbzyoFF2J8jH9aAGm6nR+9ETqlFvFoylIEn2PKqebzSwy+n+fg0Jt2giC5THjhAPLZ436Os3+BrO0nGDg6lsNEOWTugFKGijbY1Aiqsr+PTCd7s4OOeQn2A4XVP4ccGrQ4QPjuD9Cf4aAFWPylbJ8eNcrGdXBG0XbeYPUwtRE/WKdoj8qKGKbrIcIqgn/u6ckXSq0F/E9ecoMo+Vue4ekDsR+j8ZlT2JqJLX2zD5jq/oTb5dfXz/MQ1gK8mkIMAzp0+Lzz60DzeHUJwUpRl5BntMVzqkE8twd55qtklyk2FNyFBf4li12NbFZNEMVE5vh5iqoYjDj0WidIvYfb8zdQ3ayhZJasl1Pc6tKuC3G3Rb0/RSduD1nIrVzuBckwYBg5qBS4yiNFoRleGgtgRvnkZPyxLdh4M3PRAvOqg2I/qLZPNX8a2Fmlv93XVrGrMmohOEKC81f2IWhERqBnYWSedCfBlgvg6YZVQ36toNQJU0CLIA+KgS5TGmKpFI7uV+ZUbkPO3S9rrELxsni3d5RE5RPrZzsxrQF8NIL/rqf+dI/2vwNz76Rvx3oByxqE0RThDsdxQDiu2EVKOdqm3DH7SJFM1qBLyvkgWDHTZaeGLXe86tTzubQ/NsOlif4z6JCDAYvUTDG5coLYnwIAiCNGbEclI+5neC/y+p0Nf21K4mqCMx+oISQWdb2KDAb6zhfghklxwYWfdSRR6ZD9udxobdmB5iE3WpX8A7efGOWEM45blct8ZFEGREJCg1QA3o5CiSVxq4CDhcpNgL0ZUHYk0mTmIyWqwpzHlKZJokcbuY14fPU69cXHmw41f/vVlGX/iTXhQHy8/cO3Y+moA+V/N3imL7Zo0bfzFiAaUhF4N55BhE9eKBB/rqr5P3OYq0XSJ31aMdA5pzli0eBUrov1SFUhpe6jJRyu1NOXV07tUs4JKJ1RmFtmdx5QVufSxjQFBq4vatZjUEg4HPgmnSErQepNyegm9OkGCLXw7xe2dwaltbPQE0h5b7WICe5Bw7QuoXRxRhjuMW+fCrVOtund9y6RXkBWp7PbR4RZV7HBqGrUXY0cTSrVEsj7AdyM825TzAeIS3GRI6o6gNye4pMdEboazTRrJFFO7iij86O4jJ/uvPczfrf45gHrh5T+75pGviqzF7DQfbKAH5C9ExGMrFyNRG1SF68wI52dr6EOY06AzMMUQaYyw1RrVPiX0D1WU7dCTBOgzZjJ1Ca8qglaC9g2MG0L7BMnuHFElCH1c9xCyGlMEaxSz9zNcqBAOU7s8oVIGXYaYaoKN+/j6s9hgRaGWI6NWED8iokFc7KeROyQOsNVFRvsk8NUgpLtcoddyCmOjEQThGO9znGnjqiH59B7DQLBuhqCfELh54q2IWEL0cBsXh4TuRlrLPdJAY8tDBP0Ikz9DNfcZl163tPJhdj7wNgAvXJvFflWAfNvf/zG/+qv/uQ7uZjxW2dI10DuxlPUAhiOUa8QUW6j9+6itzhC7FmHVozw4pGhUMD8r9HVI3tcUW1arBZqXF6gFJ4lX20jYQSZHqA3ahIC34N1hwt0EvIF0Dbf/IHFpcGxRtFqYPYvyp8n2j/H6HKY9IoAgiAoIA7TZj6kOE/ceZ7TUZxScZ3wwh1YdnCoZmaFeDn1s2wT9PWzdgdQxehY93KaYChHfwmR1JF3CrLQJi2lkb4PJDECLIH+S7LoVJsFFsvAMlTtNNbwk7sWjf7erG6sWwGuf/U1l8/kl0PKpB/6YeadeadDTqvQu9rhZzPY+lO8SFNsuOhBUOOuDeh03KLF1i1WBpP+FvTeNtjSt6jx/z/O845nPPXce4saUETlEZpKZZCaQzLAAUYSysNQSFFvFgbatKhxQy6VLi6JFSwG1lzSoSLdUgSWCgjIVAsmQMzlnRsYccePO59wzvuMz9IfA0lp2r67Kzkxsjf+Xc86Hd613+J397Hfv/ey9l3i6s2rluapgYHOKzcJzNTc3eh7Ta/vwTZ1ipMlUj6ya4yoOvB66GiIzDxULlF1HV2+kvvbddB4rSZW71G4r72IiH7uxhy7PImLrPEOpjcMQUohnIXYOQ3+TsbxLpC8cKitTSVFVZMIEriC2Oda10F1DkYJwAbHXIc6GiI7CUzU8XVCKkgkBzsQYmVM2cjKhMcMQsXk/SfNO0msv4h1ex7/xqAvPvEi0bfBB79LMk8v6poN8qRfg98Jptt5ghS0klC2EXsbl08qqGWG9QNiwXfi7HaaPD7H1BK8BgUuUPdzCbSvJ7IyQ3bKojGfM3GCa6m4NVAs7BONpSjckq/rYXCB0AjLDBVX8vETYXYq5I8STGogRac1dqkE25y4ds+dBvq5sp1TOYpxGOJqUo5fgny5x8ddIbzbKVfzIyaEkFpqi7qKdC8QrEqcEMp5g4h5l7JCiRmCaqElKWWkizR7l8lmGs4airFFxDarlo4zrf8nOrccxS4+RL11L7aHvY+bul9P4yjKxf/9mEPz6OV/c+yH4w+WfuewjP+Mg/53U6vXMc0t5Mz/yoasWS8rrS2GchxYtlK6T1SqBLmtBYRtxXlgTDjaRcz4eHqpIKWenBPVlJybWM0Vo46RPvbiKxjkYriryWgs9bhJJCOUE23IYe2m0qNSXOmkqYbBUcLqGMCmlziGcp76V4lgjrSlsrrEuMTZAIRFCeUL6L6HVXSTI/jO9524JHU9FFAfr5L4GO2Zv1nnbJZ5fEskW3qiGN5zgAJ018CYFLpiQeFUkV9NY6+HmRmiqVHJBxd5HttAjD3JkpUWwvoro7qcwe2wdCBD71ViEPzMj1BWfRv5HcfAfa6+Lf8ANWv4mI+WcmPvW5/NO3ijvdLvHCmjinIsQoorzq0LHgUTvQCOCvUcKMdUmPpVgZvfoyUbQLZ495TZD4UVh4fdC2xluEiyU5PFLsY8s4qIKRD6ezBCeRgYVfGnRKqcMKgj9jdJONY3fjfCKCS708TKo6IcwiwqTp2j7GEV7hJGRtppYqlVc/gYWHv1LJs96jL3mvO/KmRrDw4Kko8UgndT7UFZCkuIcFT9Dq3m8nQTCXUQk8U0H1duhaFqUm6Y5maY9SrHSYvMWbq1P2ZnHXz9Afb1NKAJEGWCzJWR3nnAiHnDTL7apq38Qmwh32b34JroWIrKefBE/YdeZ/FyJkMJBBVHMIHdmlTPKkGuPxLOwYVW9gp5Y7KBHGoZeOVdxGGUq656rhxlBtYnaUWTt2/B361jlg29BjNFhC9H1kRhKd57xXA3XdyBGuDCH0CJMFx1abLqDDnoQHsKde4Bk/4OYmT2MDgx9obPyRTa8+BjdhY/RPTQH2bKDiaNVnWAahb/naAiHiHyKfIIwKdIKlKwg9iaUymL8Jkp76HRMLhTKHKR2/gJlY4tUnmKy0MLbrhL5r6L1wCrhJLy0iugZ4mSVoL/R3X3+q6va8tYt9qk3XS7tfKZBdjjxmf/iBCDGB/ZxC1e8OMc+21zarXy+CpM6zi0KeqoQuVGMa1a4BBFt0j86QIc9ZKtTiJ3WQJ0+6ertGarbW4yXFyncAnLcJMJhbYbzCoxNSb0YkzmEKinshNyLYaQRYhvT6mHaQDrGugtMaluMKgbt1ym9dbLKI8JUSyn8YeBmrkqkWcDb+5S3eX0LNj1hCuFR5glmNJEbwtZysJWAKFHExYDRlQOUZwhUhEh2yVoaE9fwnUOLDUbNiDKLsekOpXyY4QLocQOR7MPvRpRBG0GMl+cE3hKN/hjbPFWk/7z9Zz/jHT/2a+KPxJ9epvibYZFvEV/ne/iKa/V3xDbJyyEIEErgiZWAimji2YYwk8gxjixQekkTbxJj+kPyqRresNAtN5Ov7pyk3F/DHxwhPKsowhmC3KMlSpQFW3oIkZEjSUtBoUuM7mNFhMzB5GM0CjFIKVmjCH0qKYjgMObiukhmHpHF0aEMPIQz1cDIV9FYOy+L1RFC15HVgZD9i6U/yCbVk2dNUxXINCH3FSppE3SnEbsarIaghkxnYCej8ATIGaLRHpOqIXERVdnFBPcwuSJAqn3U0gwZCIyMcekQN1XiqRpVG5KZb6dxR/LhO6b+0j4qPp39xmWKn2mQBcKdjAe82D2f3cdOel2GzzMo7YRx0mlTI5Y1EViLK0vf+dYwjY37B4g2QsJghva2oG4FszsZS55HmSTodo04DaGooAJJ4DfxJw7tKUSwjZnukVQEzkxAWLxcEnsa5wxl1kJs75FWCiwRFTFE1xP2Kl8hm39QUAFhpbWilRc7HuXgQZF02joUQ2w0tMHcWFeHPVuVY0IvJbEKvTWmrFWQ3hx+V2JDQEUIM8EGO4x9Q2qqBC7HRAVWtKll25RLHmwvEk1uoLW5gZvpgzdC+yVlJND4GLlL1oCitveV/Nrxa2fZ+YnFyxR/M6IW33lsWZ7Ir2RjeC7IKQ8WaO2Etg2D6iDGnpM2MbIYCSqhI/GdMgepnruNpcePsni+i1318PInSKoesjKHGp0lP1hB2hm8iY+TbfTkUj2xkQHeRFPxLYHYQ8QtwlFAiEaZMyQrFVxZg3wGMzwMu1Lsba8H44W7nDQXbVU4X3ugUJpynaLVhqKNyJrEZ+YJTwXYmWnczix2zccWTVy/g+u3cOk8YtjCYxp/mCKDGNkrsGVBIhTO1fGzTcqmxZhFKmmE37zUS0OKEOWllGIK0T/LaDZnKCIytUgl7VM0vDXvNa/t3CPe2JOXw2/POMi/+0vSPvSo+MmLY0br3RcAdSuMAayHLKvYvke4tWErkRVkNSOGY2htoBeWCfImJZpRdJT85Ek2wxZufAXRboxJQyw10AItFU5FWEKsyHFVRSBLPLmHrnigwA8LlDNYZwkiD1lYjKqQSSfGjZ6EB6S3H+ELobUxoecXSK9OzJINi6EoNmep5DME0RHCUyGyrVBVhR+08LIq0pSYRg3cLVROzBP0LqDnfbxkF1dbwzYVsd1HY+Mc5QEo7HOpP3qAaIdvjFpYIeztUTZnkVlKWckppI9EENZjvKhDsPqbrzp+tcrf9/8HkJ/M5NN/uJm9zhueY/+3D33BvuP6UTtJ81/yEJ50eDjpJUjOk82vI6fPucohZ5GrWpyTCH2O4miIM4K01oFsP6E4TXagQ1gsEbCKt1Xi6h7GJRgPlLBYX2MiC7ECV6BlQWEvgW7IsZ7DL+aodU8gVjToUuVRqszSvaWorAujrMzBSQG4nuc1NzF7+1zziy1XszdSv3gVUW8RP5gnLKqEXoOK9omDBn5xDdGJLey+GbxxiNQhKqniJw2C/nn8GUdbTDGVtvD3xmTVFr4LUd4Uaktj3QLBYIztxPjBfirrj8IBR0XNUMnmCd3V+JvjB4NX//Y1X728j++ZBtn81O9y5e/czInJzAsUwZJCOoFTnhUqQGYJbpyjzo2Q/lhTrknXOIR8LIbCR2mJVyxRGXrUxAhRW8bvTuPrgKg0+F6MV2hyU5IHDbxSIPwQJXyC3CJMgM1icJpc7pHGq/ibFidPkM0odLDmjeYuItr3G7WgZSBR4AIpRVGUOdL/tBhetYHuHKU6vJ7q2nfQuquGGNWobd9M4/FbmT3VpJ7WqBUVGjbG3ywwXhuTOIxMEJU5Gt0cv1jHRAJl5gl7Y4qgjs1bMHmI/EiGcDWCIsTYITYO8KxEfqP8FJliOgPK6WO9ePHjL2gq7J3iMsjPoPrv/6Q7+OLX8zB736UIMo0TpbC5B7ZFkAiEPcHoWXskk/NW1e4S7oil8A26lWODIdl0DWW2sZ7ATmZxhYdymkBIIhUirCWRNbScIS5BOR+vzFFyiDEX0Ss5ujlhZJ9gcCjEmjMMZxxpUYpx64xLDpzT8rENlA5LUfqF0fBfZ3dog7InmSyPSUa30z+2Rk4Nb/sC3tQeRTUgdCNEzRHUF6nLEuFfJI0Lxs5nlEzIVQ1/0kF1L9JrQmY9XPoE4wZE9hD1jRoq2SCbaWIziRZdimAG1R8ymRptn/YAACAASURBVO3Sq0p0MA0jR6mWCo/xZ9bmLg2aupQxdTjxD3DWyJMZ4fs/dMwzuyx9+bPy6C+8oZlQHHYwVWCVi3yvKC1G61aIb4ckrTE5MbY/K9jYpoiuIHggBjGhaDdRXQnhYar9RarOYGWXbKaBHkIhJI4qdVsjnAwwZocsmmBrGalNKapXIs9m5GEHtgZ48TJqd4pyak+VK5mTowdcsJqSy5Wo+OO9THzHIPNC6ZQqnZCFUN5JZ+cXcLsrZMUdlHP7mSnA1gaIIKbMJqSNaaK+JRMbZEsnSOYrFJEvzNi4NFhmtFnD5V3UbAfbUxRbI7LJBAofnKWslIjCJ+p1iJIRTDVxQ0fpBkyCVZr5AkG6QRiccmkl/VD+r/ntF/3EP3WL/IyCLJ73crf26A+vKOyMQUgnhQACJ0VmsbIKeY4d7UnTnjiZZs4Vd1He+O2ozxZor0fSuo7qxVWiQYvAtfAnBZYN0rkA0z9P2R5jPIUIJxjOkvob5JWjBCctTrVQ5Qr+ZAPbybB2P61BDT3uymR63ojBXYrgBLSQ3PX669wffvhed7018uoMaZ2D0pPhNrb4qi2vvQ5zV0blUAlnL9CbfQXzj1xgvCKw6Yh0cDdpdAd7swaRz3pF6YfMpuVEPVGmVSesVNZTjzF+jsCWmSyEJx9oHbTeYNH6F04iDy7i706jBhlmusBUrsA7fZZi6Sg68QlMiWrME2UH+l577Yb5heRVz9362d865Mj+aYL8jLoWVy/fLPyd7jGJcBICQGBsQVkWBjNS2GoT6fsOcieCxDI1wbBBsTwm84bkaj/B0GDDEjceo8vHmSydYrJwmnL+EdzMA5jpNSbuMdLmvWTLdbyz04R9kHkHtbUB01XYHlAoQTH8HP0jW6GN75cu/pSxUyn5MO3M/9ov/mr8deWJiz7kmrIUaAtWa6XYRoovy/zWu1Q6fx6hRowZkOc9qIDMc9D3kV2RI/cyAr9wwisFga/Y1Y5MOzW6ILW/JZO1dZV1+r6dfayWHbuvPr7t9ureSy6orc4d4vz+gsROQ19DPEOUNPEnY3JfgGgR5rPE/gtN/XRyYXe1vhDwa9n/+k+27uIZBfml67e6AHtNHWdCrJXOOWmEiJySJaZah3IaN5hxng6li3asF0ehHJeKcIeqL7BOMikeZHCtw8xeoN9ZYzgdw9Dh9DZZnFL6Q0Tco3Bt5AWF585jqncwOJwiKwuEG3eSrXYp6g+zO/cVBlcfL4X+FLKzJTwjYvvnXDP78NbyleWzOurfl5TnHca3kGKcQ4iwEFYMlaceEPnSnWzdVoUTZxjWWkQXOtSTFtViCn/vZuLTB/FOzpno3GomHpvNSQ/i7x503mDOqlEOi3WPnY5iUhaIwkO6KhVaeafX2lpcD3ZXW0g5z9RYUTeSMMhxLicQi0QbA7KFA3it/YP8X36+sSVP/MqnBMDHvnYZ5KdVf/zCT0gPGgEm9rG5cA5lXRpCBs6LkVsJZlzH27FORAO8IFNuzjBsnCSfuorqiQpjG1IMp5CBJI8N4zLAWImtGiYEGL9BbAqcF+FkTKC3KSpjdPM66ucypDegcLOorMS0R5B+XYfhGSsz45uHWODuD/31/et3f+Hr4sduu/H+SIgP+kgpkbG0ssCgnbK+M5BbaR9ir/MQ+roHSI7uMSmG5LbEzr6S2skZRHMKnQgCsaDj7Wnrj32cDoXlMNH6fhueXszVmSOpd5+fhBty5D0kJ3I3SERpHW2qWQ3RDc+xPX+OwfQ+1NY2edsRmCn8pIpNqwQLDcs1kf6c/9M/tCLS18H4phOXQX46ta/bB4TUiPLSoBlE0znqaBMJvAQ5u4UXpCgSV/OayqqecdGsHJSnOHNtA68yxVRzk3Q2o6wEhA2JL3JccxZvr45n2njjFFMFoXJEMEAHfezCjUzvVKnYk2RhRjl1JWprHerrCL9E4Su7E827h274dv7kcA9e8rrXmOMb17nfc+/5nQ7Rp0KQPtYJawuEFCjn4RApSpzCNe9idMWX2blhjeHBbZJpgUsahMN5Ktkh2usejTCmUkTU8iNu5okO7ZGmPtOhPXKuFcR0tofFXNyZ7HuItLlTDsTmmbGYOlvtze82zy2ckuuH9sijEUWtIPccrlKnkq4RzGC8lXu2v8t9bOaQWn9ZwRv+2RfFZZCfRr35xxKcKBo5Ms4QvgFZxZlFFFNO5rP4/RZB22JrPmEhcWXuCHdh2vO6U88jOhUS1quUZYMiXyDolXjBItGGQoQ+wqsjRxojFDIDX26Q7Y+Q+XNpP5Yg9L0k+6aR22fIw9tJF3sUnkDvzgm+9pM/yG/8xm8x2Cewf/CbvvvxL79fv4Kb7HM59u88bObjIuGch8PgcAghCyHcUAlOSRd8juSaxyjtGazIabgbmL+wQly8lLnzL2Ph3EFa4300xlcwq5/P/PqtdE6u0LbXMrV7FfFkmXj7AhxO8bKGq58Iy6kLae5N/FKM51x1Q1LN9hGeX2Pc6pNVRthgFzHJkJXJ2vUCo930Sz4peP1XL1vkp1Pzd32nEA6/QAQF0iKEybDU8eoe1oQU/rNQa3WMjihzaXzqmtG9pb98bWR7B7GZh8kL8uV9mFGIS/qoKYFwPs7N4Hc11sswwkdlNbyBQpkWbmAozUfYuXUPGy4QrX9aJNedw+ppYTdFmAc3vkb+6nd+yy0Xng/MT2Hf9h8+6gD+5LcK95Ebvvr1GrwPjFY4MDbH2hwpQFjpGV2EFruBE58VvWcdZ7Q6Ip+qYtOULA4RtkOUXkV8PkSU0/jjBeToCN5mjmkfIdrcj+wdxax/B5VPfyert1dZag9Rwbmy05pNDm6UrlkpMGYX1ThNNn0Pg0NnmIR/Tf+GLsbddfG55dffHZt6UfBXb3r8skV+OvULf/wXpIjDDhc7hAYoUaFBaAV+SV65Bc7GuKFHOaoQSBBRV9ho0bNyV+0udSmiDjL1KSONQyEyC6JAeg5pHb4DRh3c5pCsHUPq4dwD9Fc3mNgQk57CXHPOoxII0QuFsIcWeWf7w++8+P3F25Uz1/6dkLwT3/faY7zip94lr1VT73aIUw5hAaT9RvZBOjGLFleBvoZwsuqkOCGHU2/n+LffwWY7xXUfYncRnFYE5Ukmy4aiDCl1Ru7H6J0KjGOCpEvZ8hH+HE31bObOH8Cdvo7GI3O0hm384SmGKwprIXcBJt2iDC4waaZw/rs/9mJz4A8TWX5klcdGr7lskZ9O3WKuCxyiaXHOYaTnICZwGZmYEX53hPTbqLJKHGhEexZ7OrXCbwtTELpa0eqtgMUj0KBCsPEUdCXOGqyuo3b60Eww3gbZviZ6ZwbVrxPqWbyLI8pojbG8j7SzIZyOAmN3PXfx2fv4T+MP/7L5wfZbSuk99Lc7LoRwN2Yvc9df9x/cS/f9yHaD6V8zOIGSkfWUL4ywytpyScCNyJ0GeaWC1bkVYk2U4UdE71s+T3LrHt1JipYVQj2D3d6lqPt4foCkg9yeoONZVKKQ5ejSkB1bIRsI/EpGUc0YBRJjBEpNU05itEtRUR8ZDbB2iki9Wgg3+S7j7r7tOeL17/tf3GWQn0Z9ifWDGlmZCOeMIqyBUxSmrXQSomu7lJHDFwdp+C383QLqFYKJFDI9kzPvKaKSSaN9ae70niHtBBR+RJlYtNgkmeoy9iW6rOHrWeKexY9von1uE1npoaLzyM49lKrUatsq8ulV/nT03p8f6PFH3Y9dfeffO+dja/fx4L0d+61nnmvfyLs/LFCfwRmD53tOoqRFaielD+NrUacP41+sIGTkORtUtN1Wk/anvP4L7+Zca8yOdwDZO8Vkf04hW6i0gNoQHXuY0MM2z5Lt83ClQIgRst3D1DaxLYWULYKJIVaz1HuOIOkjKxa/6CAXzs+9pfbQDWP+9xfBF19evQzy0yi1x+R6h4scOAROXIoEqEMwajpTmcLPFDI8Su38LP6kjttr4Y0zI6qbJZwtWdhW3UMdxDAgKhw6iCntOvncDGJjjKl72J5HEO2jPu4ilj3QfXR0O8nRDJFYVMUIkVdcoAg58dZ/y//x+dUfdle9/KUWWn/vpD/4Ctxn3vSAu4pXul9/47p1uF8RRk9EXmiU8IrQC05KI+8Vek7h5weJNm4iPjWvlW4W5IF0dt252Y+qndseo9spIayge2Myv460A1iyYMEGBwn6AdZ1SasRlhm8vQQRSUQW4JkOYdpFtuapDCLCvR6i7uHLm6mf+D97f3XdoRf8gThTK3ls7nIc+WnLTgMmoXuTwgaxE05p5ybgSuFkBEEAHCba7ZOrCXmxjEhnMdvLiC2F4GwuvJOpqNSrWiRkNY2vJ7gowuUpTm0hl3y8MkXUr2Fq40o6/QDfCLL+l9k90iPfyNFNZNn3IitTLxu99SX80AvN89Of/mqqP7Ps3E90/75F/psiHM9ZwXteJ379Z9P7F2P3K8qVKUI7nJQjL/YfkH7nK4j5Lnr6VoKHj7n2ycVyqr+/rOyVxgsueMx9VaaL56A+oYi3KWo+QoYou45ph8QmJpQN7Ogi/aVT9A/X8NMEG41w1SXCbg+7IsA68ENEboAW4fZN1AdSiyuKj3+Am4YT+455cdkiP40g+yCud6BruK0Wni0QJQ7WbVjdAnuQ+t7DJEuQ7c1hE4U3V0VQJRjnplZuWSlrMdWxSjoSJVapngkIZIiijTc2qLhGPFzE6xpKsYXtSIw3IrPb6MMVTN8GdpwEmGM38+Nbr4z2hv/Te+wbXrZf9MLf5Xem7v+/OXHhyhfADZmmqoVb8xAvusl8wPP1caV1Ac4Iq8TAevZ+3MyDFPM98oqH593E7H3fzb7bj9F4tKprxWmnljbQtQGlOE6+aFH+Kv4gIW+UlEEFjcPUQ4RYRXUNWaWD6ScU1RBrjhCclpg8Quk9Jq1Z7O4SYjqlWFpydAp/Tv7iL1XkfR8q5T81kJ+poiEHdCQ+Guv56CDEK4ZgKpCdd3EEJuxQLR5ETncIT7UounUq6TaT2hZeMec6Dwl14XoP4iAeVi+O61NX0Ll4ju5ChcxrURQ9XGHw1YCRfwfdJY/OaBqT3kESjBGiCuMdwz7r8573Za+6q/kjf1X+G27827/a/0PZYHC7cMSXvr8LzNA1Ro9fOfrXJ467j06sbVtPKWGct4NL78HVFeVVR8h699C/7kc5cPsNjDfXTbXnyLyUyfQZvJWjyDM9qFXA1dFiRDrVxhUVVKDxbAq+QqsaDktZaDI5ixqeJls2RJM2Ol2kLFdp3ivR4RbZc9mY/r3DXVV85TmfvexaPI2qWmwHcBamHCKrYP0AF+aUXgubl2i3hH+hQ5VVpvd2KQ8ZknqHcJRiVmXm1CAjVxXbfszvzgpawxHexMfTLbxSYo2m8GvotMAOdyimC4LBPcjVAc6cxS2VWtzxvd+z8vaPBu/WT/ZCGu4rvPz7X3XPIv5/bmiTqbzInXIUIdU15fN15NKDJK0zDMJzFFMLhP0t0oVvp3PyRTRPfCtT91bx7TmyRgl6jko2RjYhVh3i0S5ZU5BnS7T3mjRSS6A0QgmMncMOh5TVeeQkxk0fQW0vIns5pnHfe+9dtIeE+aOl9csgP42KDHZZQOER5AZ0HaNaYAza7JO2v0nerqFEhm7tQqOKn1UIPB9TXcZu3uAq929PpNl1eL7Uk01EeJZoVlLJPSpulsbmEFnt4aZbxK4g3/oC3WtH+H4XE2xis5Y3+66vvuC3k/f94eyTv/YHHF7teeal1H8zxu1VHEIYo4V2xnixv0tgTyPmT6PjP2HnWZsUrYSiJpFTEVH9AM2xQlUTDCH+eIDsWLS2BKJCNWugehuUbUckZohHFhnkON+iRYAQm5RTChXMI5OEdHEKkwlMcO6cefab3jaW122vX06IPJ2uhcV6Ahdc6rvmanVpzDTkAhcueaRnSa84QLy+hFv/Gv0bDtM5damllBs6khmJqkjtXXx4JLKDeT07x9bMiDIOKHsXSNtnSFcWCZ9YobrWxTUNk45ipDNSl2DKvjB3fqB85ycbHzyhvjprn/QL0doN1zJ++BA/sDF7/sq6+6UAl3hOCOGUw1kStNxAhSfwmvcykhNKQih3SIXATRSBmScaT7B1izAKle4wVgZKSVwK/KKHblhKP8C4CMw58kUDxHilIhhdQCz6eGaXbLGDGQZo0N5V9s4v+d//5++7DPLTqOsEKA+RWywGEyknPYVyNWmsNjLcwzRzZEVQ5lAMY6KxTyuq4Y1n0ZsGKlOI9Y3Md7NUJ5q9epvx2gwMHNZGuHQFMTiLmztJ0boSdwpsbUjpFdLmuqF+5Vq+39rFs5b3vlM92QspOSsOveCY+zdzt8o3fL/8aAX3gI8trScE0ohCGtUTzm4KqR5isnQC3VkkPPNZ9m7ZovBPks2sEG8aRHVIGU7jNnYpWhMy4+Plglg1oKvJrEQS4ZIMrTSRVyPO+ujKaYrlJv6Wg1GGCuaI90TIgeS+t9UPXvwhexnkp9QO/zd7x27ykKqClJJCRwgduzi1BHYldKPcKiPx9tZwi59g8vwheXSGvUP7qa9tI6ZKRLWC1/PxwoNUzq5BoQjqYNUcbbnMVLckrA4pF86RVA0uOUMyfxxMHyG1lY8fG6w+yL13iz9/7+9Yfu4dT9pHPsAB+5NvvM5+i3h5eXD/VPoCwn8VYydClxptjPM85aTzLEZsKyk/R37tOURjgLl4knLmTnZuyMh0G9E/Q3JVHauXibrnGDbB6kXivU10excrLXXPQ5UaU3YJmj4xhjIYkCOQbohtj4iifUxvBVocXE4fb913+PWXLfLTFx4RhxWi9JEqxrMxysSowsPUGtpFU8hujNF75I2T2GqKqIekwSNsrFYRY0NUdQRpQNO0aaXb+PUCf0/iTwlSPWDoxmi/Sjzoo1sJtn2n0K0HlJ3KkbZN+I6rOWK46eanLMaqWOfQNVvu7Ve64y3EJ+sWIXAGX0mUVNIJkIE8pYz8FINjD2JbBTJrk6w/zvaCIu/5qBQqkcBjgo5TMlVDTgShuR93cIAJp4nTAWp2g1FsEOwj3rQ4GVDSpBw/zGh5gWh4jWmP9j4bTr/2B666HEd+OqzxL/PaQCH2S3AO5xxOaJxM0ZFBN49psWWdN3cFfnYMedIhZR0KQ+k2SeoH8debyL1taAnCok6t2MXN+LjRQeIxOI6TLEwofYlw4A1K6J52srVupJLwxLfx4i/FPLWp25/mrZw1DvezY33bgeA9MW7iaWPRxoBwCOlQHlnkqzWJeFyYhXWEXsC/8AT5wScYL5xlEpwkq1QJE0epe4wjcG6Z6tYYF67Rb4Qou0S1u8OonpDICpgWXl9g432IJCTfG6KnXkb7RP0Bc2Bx49xli/xUJ0IcWnyCuw8rRCNC+TU82cAfhsiBAaMx+QEXbHkocwSx0yYrQ3TDoqvrFCJFiQ2KZ/UZtTSpucCknWMCgY62GR8+iBzGVAtB3G+hL+ySzh7HVh9l7O2iXIl0wjOff15wc96j/5Q9YIcT8sy7aF6L++rL4Y8+VT6ygPlgBeHCXKcYa62vFGi83NjYSvac43bSW78Iixa1ZTB2ncnKCcbzc4TdPcrGScbLl7J3gX8U+8RJtjoGYw5T3Wlhk5P090mcZyAqkY0rCAcpk6l1hqtLkKyMRPWieNxcBvmpWnZ34M2ffYTd93xEXAiH14P0QpSKUOFBmhshytc4aYTLtqCe4gqJHqWYyhS5XkaMH6U4JrDmMHJzGjMaoueGlPEu4wXIaePGrUuNWOyAsqYQxmB7D5G3HqRYHOG0ERizGD08vCZ217L61D7gpMUkF+4jTc9+ujLtrqzI9wa4YRNVBBaHEhJj7AGtJ4eI06M01DhI+Azp1U/gZhtUu9fRPmFxbkgZHUSdzcjVhNKbJpgkZNMW42UUTuFKgR+lmOA82eoK/maKiqaopQ61WFKUEaU4aCpXn/rxt9QuZ/aeIvnvh1947KPua+33qt1gfDjKI6cQzuFMgB+W2KkEM3YO/yKukiGbX2T83KvwnrgKtTNPJLax6yVZrYm/0SOaixHlMtFAodlkXGvT0g7fdtn1NJPqC5h+8KPkh4+Tz2m8icMJ4exafMOhj/3Ux3/uvynP/P+81CAcx/7ml3Zf+xfL4q9vfuuJL33xZz8B5nWxwxW61J4tzTVBOaqUUYKrt71gx50sdX3HWbmNCkJCbw7vwinSzkEq612y5AyDhStpbSn8cJFG7zjJUswk3YHZGYKL83h7Gjl+kGK6JNDPoXPfcfLpIWnrNtd2jxwvpoHRZYv8FCj7eeE2TtX5fPeoMIl6jQQdo0Z1VH6R0WqIySogWsRZBe/CKo3e61j43HnM4iHqoyniSYZqW3xzEhYWCE8vokZXU8k0VghEvp8g2yMNt9DqOlpncvxwA91pQhaD8XH2COG/vWXx4fTpvpE7exPxvR94kTiyz7xDY5MAOQxLW3oY2Q6xS+GgGtAv//mkds+NyL70MnuBQedRdv1HSI5m+HlAnBfI2oi0IsjsjUwdFyi7ST51nOyKGDsG/AmlN8FEA/Ts1xjf8jj5dWuYY31cvUUgeKw6f9m1eIr0z758RPzezX8sfntvpYZQVykoQ1y+SnAhYxzNYl0LIzrIZBN59Eqq2zOEekJZWyAYJrgiRCYgOUlZeQyzuI+wv484vzTHGTMDxYiJN4T2InH/AulUSSYbuNTHBA3Eh3//B3/gE9e++BmYqvjZh+0D5n65+v43bUQV92mFTCtIp42nz2ai7iuXNBCPGzddP+DaW4d0fedaZsdrqIMnKZMTFO0SXxyhdr6P7axRzFSJVRVfdVDFC6k/cIB6f4dysaC0EufNonZmkWtX4J28kcrXulCPkC5wauG1LEi++XOqxTN1Dk8byKvLT4g3vnkZc9/nX46QoYJYYbMG2qtTFgcoyyllnCWPO8jBFEqPKFpTiMRhGJCrOgQrBMUY463jFmMibZHCIGcquAakboe03sKXhpKvyZ0rOyLv+9ggxD7+2gO87ferH5Xvvu5Hn/YwY8Ld4mfia8xfvPywuOY5wa+Csz6iCIQnHrFh2CuFKGD6ONa/itbDELePUHniRbTu65LITSb1dcqZJtWijj86i165tPIYG0LqEwerNIcN2JtggiX84WGi3WX83irhuIdb3MTWcqx+hOGtZ+mKyxb5KVDzr5d556eNYtT/XmGls8hSoqXFugDbvRZ1tiqotKVNHG6hBWaHcfUGwlMW/C3KmQOowSFk3kSkHiL1kXpM4VnK5hGC/gDnZSi1iN+7h/HVVMx47LFSIzrZjrw/PfrdzXEuDvJdh19onwnjc/NfDsSeu8X+8h/9q40m3gckdlJBmm0lgk1FC/L2YwymPaQKKDfuY2f1GGrbx85kGPkE2YJEmCZhqjFpl4ldQV2YQHyGbM5gRAs53kAvSZwMEIHBegqlVgj6e5hKjmKL/KpXfNtbvP0b98g+PQmg3MflZZCfhJ7/A19wX/79kyHOHgJPlLhoGr+coIQmzs5i9k0p9FEXjJfw0wBXPUPS3kddVAnNNmZqBTdYwYyqEO2RxA4drTGZcqR2hajcxe+UyPgUo+odDDs7OWrLhEJTqfxI+Mo/+INfPGc/4L5S/if/e572BEHMTbzmz19hn6dfpl/+uaOiw6GPaoyWzlllrH7IukYu8ixEbz7AeKWLWx4gKsvUiyM0BxLf7lKUCcY7TLC1Tj53lnGlSWRjfLPFuCYY6Sn8rI1b71OGEp3sYaKcUM6g+g47TlBxH73vJ8t6pGuzQY22/LbJF+TH3Du/GRb6yXTh/IcF8pWsEDx2cQljDzpfiAq2mEXU5pGpxGtt4YwtKbpO7pvGyzTGZDDdIjS7lLUadtAmDBTSr2DGhwm2Ukz7HNmsgLGC3GErTYr+J8XgxnVpK2kZRw1bOx6g/uKHX/2u7iNSiJV3wcIzVHngNBTCMmoF7rP87KMK8XkrinHVqGKrEG4d0jH54Yz+IEdGHvWxJPa/lelH91G7OISFBFup4LgadeHrpDdN0LoN3SnE7gTnzxINc7zWEBPXEd0htrmH8aqocR+72GWswNov3P6nB251dftnb8/NVmVFvPSP/nHX2j9tV7dC6EZu8kqECBBOTmPVPszODUQXLaJeIcZZaa6menaZYNIlD6tIG+GLPgUWExtc+AT54imSukHPhuiyTxmWCB+c7uG8U6jGpnJBiJALyFFC3rTMfvon3nyGqlTWAJvimUnFx38l3N2BsjTnXZXvsc9Z3PfzWpQDhS0yF7iHnDiQ4EY9WNxHeK6LXjhD6maIkgJ3YA7/wknyfaDkCnF3Bf/0GsV0AzXyEXkXHSkCLtUs27r8RnPwiyQdhZNNlH2CdL6Fl50r91Yaye+Ln37L/dzPfvw/uPoyyE9Kf/pxaeAtWAfWmlVUfgQ7GpOsLuGzQJhKZLOK782gyhRNA38kEbqHrs2grIfyNskqO55uVCHokTUcwl/A3x1go4R076SYLDUc7kYb96YJdp8gEbdeMf+V3zO7nPgXI/7sE8/U6/nfiU2/9KUO4B0v+avdGW/x3drPVYQyG14YPYSbOY9qdJD9Jungv9A95ghZRWxXMOM9dDxByTrVTKIaY2ytjsz3sNPblGGJcqtEm2OIh5h4CW+Qk6iIUhwjenwb16kSCbPQz6fqf+3+45vPyBLJ7qvf6C6D/N+zrLq/G2Z5k+DNP3atcKomnDSx1WoFNg5RGSa4+AD+RELlKNWLHngxmB5FLUamGchNTHuVSllF2hA1dlqEVxNsTHC1BvFknlp/kzw+4w0X/aCMDyKTq2ltJ0SVXuD9ygc/9++L74uvdY1PRVz9l//VV3uGvUMn+q9adO9//+/8oYzdI77QQ+f77mwQVh+nbOyRhTPo4Yi0PEM620aPe5QLPuw9SLoaQPlsqsc3MHMaKZaIN3YRHYnMY0TZge4uerqKsjOY/gblzCJRWUFNBNgrmtnZ/RsbVbTgHQAAIABJREFUNp4+AuAW33bbZYv83wmx+FuYfxQmoxcLlAdCzdusWMANdqi1fOq2imQJec5Bde7SCAbbRXfm8Uca6W/gwkWqQ4UzJUF4CH9YwTiHYo76Xg+hHlSj+ZFva5ER+W2meV+GVzxIPt3x4s+fWb3RffC2Y7aaVV3794RDiGe+PlcI97w3VlzPf4NYbfJrY4pQpJPElrgz2MrdpIcahOMJZfRnXLzZko8ssppgY03mJKmqEJgItbuLjJdp9papb5wjbbVwpUJHJdr3sIVAVgpENkc1n8V1YTL68zN2WXxxmZe+6xgIYV9Jfhnk//dndunt9BufwHMcpnidwzXRRk8Zv+9Ta5wmn1doOYXYGaOb88TOoVwfTyRIsZ9aPoSggk+AP5JEOsP4x2j0NL4bomuCZHAH26tDa6MgE8Ux3XzIo11/GDO1jf3qK5M39f8h3eCHTyf2FS/gi1JyUYCUDpv6YXinyPc/glkENRuiz9xPfkMHsaEQahovscg4xLk2XrmFnXUoY5HemLKS49QBos0RtDS6jPCzBCoCclCBwu+ezuSh3nOq9MQE97a7xafORJdB/h+AmRdzUk5z49U49zwnkJ6zZgYvqeJ7GcarY9OEYmZIOX8N0bkJ0juHaC0SDDxE8ASjdgdlImSeoIoKDJcIsgGy5jA7X2N7vk/aXHTe2cBVBgdoXziDrN9H1jk7U3n/vhuvfjJZPPF0ZaEG7U+aX/9jJjNzvFXiconTTiq54QfyS+TX76Py1TXygw432aZclBgxxjVG0MjI41lUWlwateZCJFXcoEQyTZS1UEmXNFgm2BlSNDeYREeJTvex7Wc5uTP/wY/7R73POe6rwJ3/8h91hu8pf9n7nwnZ4+yPgbROCBFiZQ0bL+K2OujzAcbWQNeRpsCIMVb0KM0B4qwgNQ/SndmH60YI/yR5JCn8hLylkP09hLdD2fakSCyBrlLLcpT7Oqm+n/GZjQd/9/Yb33X7k7lh7umKeV77/Ffzej7qnv+d8k5PuIcl1qpca+eUPa6c/BLJLYpg2MfVBSadoGttxM4muvUEo0NTlFlCWikpWUVtrJEvDTGhwY8aqPwJsmUfXc5id06yNz2FTgrKqjXi/2LvTcMkO8o7319EnCVP7pW1V3VX76t20AoSYhMSCLF5DBgPxjbGGM/1AvcC135sjz0GrwxjbIyRMWAGY8CLEAIJBAgkIQmtrW6p9626q7r2rNwzT54lIu4HmfHMfYxl+5EEJfX/S33LpzLO77z5vv834o3Lzd/1Rm76zp9b8Y1zrPiJvzVnI/K/Q++59jeKWoSvQEiLlDgImcMmCX3fRyuwxsGNSrjtFK00abpC7JeQUUjq14mdAtIYInOU5sQgvh1BnZol9RuY0igq1Fb6PRy/iBdX0cFDNCrVgexf/eWpPXbzib/5kTJM33a+sPeTZ+IFo72CIz5lMcbB4Gipa0q581gnjzfn4yYpIlglkQ/R2XGK7uQR2jtW6QYBtn+MzvYiYdfH9pfoD4ARgAwRnkGKFHIpRtWJgs3IMwM4Wx6fc6/LPf+l6nMf/Lr8oz9pqh/iMjztjZGnstgDYOb4yYtw2IyQCil1gJPk8eotVNbiDjh4Kkv+TIATlZCmRRz0SPwCThQh8w6eqZAN99IYTunb3QzMzaLyBwmHt+JVc8Kwy5bODOGeAN0/Tj97WPV86ze/sfUrx203Y37kbKY58Qr74Tct6JVEfzEhPRoT9RKbCBGnzSppdp50ZJjMfB6vdRxdfIBuZYam7Ime2U99Yw7TNmAapM4YorpAf9QQJRIRlXCrBk8M468YVBCB83yKvasptS9MC1Pf/LPPVMbltHjr17yzOfK/S0sH3gtorJYijW2AERmEA450cLqA6ZMUFZgssmcw0SRe4qKcOmlaQa4sw0QbzyuRafbQyTS9yga81XV49RGbbeTJtrt4ukK2s1dGG5ZH3fu7i+bkS3/zvfK/Hr3+R3mzTOo6fMSV2iqbai3IVtHuSYz3CP1tI/gnMnjtBio+ggmMMPMRpnhaVtfV6ZFSdCR+dpxsNcXzHNy0g8inJG4JuhGmlAWxDa92Ppna+aZoV/5b7ZzJB74gd362Lc6C/O9R3K/whBeX+AYGcJoZJC4iDjFKoZMa/fFJmKujswp6E7jdCJ2cJsy5qOIOvKNZ3LhMxutj8hbtb0UsLNIPHDJpSkasYC/wcarHiQPvgok/syyrdc75+sMLf/OjnAva7bv4mpIsKIxGWretUCeJhx8nzi9iC3mC3G7Kp3LkooeMs75JttXxTNb4jXyV9qSPa3wcGaNKFTImREzFiEyAooSbrCLXZ/H8NowYZMWN/UvlT11jmzPH1kKP+j9cFD71X87aPOBglQlwbBYZDENngHRVk0Sr9LMj2NOQpmA7bWy2ggzvoTW1SJo7D//4Eh13id5IBYwktQXo9LClZSJ/Em9hkaQ0ili9W8zHp2x08HKn+tDqy3t2k1WmdGv5R7WDZQEOPE49LXp/LgGltbbCihZWtxGNvXQvyWEXBLq4BefMAH7jEcS6ZqL6TU35PlrbH6M+eID2Bo+0F2CSPE4KGRXjBUME7QnyPYtfMGjRIckcIPrxj37lU+XpP62tpXN84ocPshBtAIUULsr4pBkXbUvImsKaOulAC+2skmQ86BqcrIdMG0SxQIgujB6mPRYQznn0a4v0yw5O2kcGZfykiy2u0s1EhOlD5VY446Snf1KIzju/eVze6yJefZQf7VZs7bi0b/2FmyxiQWCNSA2A08KOtbCNObrZBl0PIi4gOeZAfVk7o/U0EKcQ8TdZPW+FbvsuWhfsoz0l0eET7o/2fYgMqaoT5maJB1fRtoYRn7t5+ufzc4+qNQSy/eGDjJAAxhrPEEbD6DiD0E2UHCafThLMrGDLh9E7HVSyidyyjxcKjNqAd3wT/nGw/Spm+BHam2skmUnyNQ+/rXHyx+hUhugnCtGa71IKU/GRn7vFTf9RvDw1Qujbgh/x2cCVrSZt6dXY8W/RSClRiUREXXR0hHj0ONFQgrZZ3I7B98ZIkyzWtLA5sM0Yt3Y30Yb76ftHSZMx8ot9VK6GyEcIZ4Uod4jWaB/FQ+gdEZlkvF54ybde8EfuGgH4P/T8nvrDp8pfIA2F8ZB9bXOZxOk5+Pk54pFtFJJ1+GGHlXIBGqeJxgfINnv0lEPUWUCPtjGZLqnwEb0UJSQ0D9BbH0Ab4qiN9fNk3FHydz+m21usTQ9Zamsn1nzrw4KHalZMbftTe/Lg68EOg8hGSJbRJGjjo4anUO3zcObncMeGsWeadMarROtHyDfqCGcfcdTFG3uQdt4hqedxO0N4jRzKzeJEh7EDd9HdXSbbmCQX/81sEkCn+2wt9p56kIu5L1ELb0Bb2zdWHiHJ5FF5H1l6EbnHW9h8CWkuJThxH8n2GmFpF8mSg8FinQx0Q0QArlvGtiKsE5GaOmbdpWSPe6AeJszdT3VXb2rjzUwfT9bSgp9zz6+JLb/wLvOVU1cscuORmy3pzwuU1UjRw8QpxnMQHEWvexGF2UGU2IZZOU3X60tTVkaWNuNNHyFe1yfNt0la8zjlFdKpJok1QhsPNFb6DaLWy8nUfVTmsXsqG6Fa/SHnvE/br+VTn1pcdNG9QIzBpk5GnRJO8ihmbIa00iW08zTdDmogy4AvcJIWSU4i5Rhec5QgLJJ1fTw/RRQNXiGDLzMIswn/eI7syjHs6BER5o+Jnka4q2stclzzjsiODH9aXLz1LguZm4EUrJVo7eMAvllG2UNY92tEG1qkrsFUCmRkx3jZI1jauMMXUV7JYlYj+oNPTPX3G1mCxSxZ6VnXV9jmLtx0HBO7JCI4fubFZ+23J63v/rc3rV3ugW3jOBIpZIjI9pGNPug9rO48yOq6CCkCCsLiJB4iLBAYn6zSiNw4qpFFxoP4zXMpnNpKcLyFKEhUeAfRzv2kbtcGndSqcxFm31pb8IeOv5Px8CfseS/y9Q287iGF3CueuBtIeQgnwPEErj2KydxGc90Z+skw6fI6gsZGRuZ7BJ1p0uJp4pF5ksIU+aVJVDtA6zzaG7D2zDhy5hK8zn+msH8zopBH+w7ymptP/KV8z8m6Soux/POjVvyl/ewz5S2vjc7e92UM8rrpuTZGLIPWGGObpLZGnB1DNYu4fQ2JIaZL6nbBraDqJbJxDTWUIwk7tAcUkZwk0x8gF+/BbDhKqr5BuG0/karhN47hDtZxM6LeW3Mm/71X32g/kPsL+6nLHrVf5v3xRjIfURhtUPRItCDRDlZYiOeRmUeIy/vol6bwatvx7YVY/yqkeh4iHcTpdXGExHEMiZfFOMOI0jiOv4lk2ScMFXG7hOqO4e368M/+/gWL+nYfB/XoCNKsXCXORuR/MTJ7vHhkrI90pp8o/BTGcVWIkC1UeZDc9CCZaCfZakwczdGdHETZvdQ3zBCOnc9AfT25ahVRDIl7t1Db/i06449jO49hgtOk9hCd0UUiJ8XqzTVnTe5NtP9r0lGGzYzssbAoQBiUCrGpJpEFtKOw9lFCcyvpxPeIp8bpz49jui9APH4BNC6G5MXI1vNwuheQiSew4gL85jl4SYZi6RDq3CPEQx6ydz0Dt8mjp15ykf2NtPpLS/rzJeSl39pwttj7l3shFhFYgzCnsYARFlfJfmJ1Hxl1UZUC2cKF5B+v0S94KDGMJzXRmSrSpgh7gKiyQkyNZMMybn+RlCWk28eKFFNYJCWU4BsRKtT4Wl78fdzLVVy2cKc89b1Yio1OKhAIOQbJGNbMEQUejrcXnQ9oLVyBO76EHdoIy2OozjKRMFjvEoJTFnfdw+h4ErcVkVYyiJWLKDYFJjhIf+scNcev0f3wm4+/eurWz9/c5b1iePqsa/EDInKeDcFGUPlZ4rZAG40vZSLTEiY+HWEKAic9TGeoTTTUJ1ExplcjdUKsuJ3aOaskfhkvNFg1ih+uJ6BNnKmT6BWMHyNSAQpst017TY+GupCfhE/8mOa9+c/Ri3/MoGwoUh8b68149ReQrS6T+PdiSo+gxoZwVtfhN4ZxxAjSPUoqqsSqSm/KQak9dNc38HplOBzSHkgoRwZR6SHmDhANH9NsW5jOZ8vvuvqWyZsww98x9izI/7KJzG0sCJQKQQhhtLGpMKlFr5JUlogSB/oP0NtQRhJj0y+xfJFC6iKiKfD7DjaUpNkIm1ZJiksI7xQdPe85GZtKK4wQrsEIyEekuTW9+i97heD+RDJ62V5x/G6dSpT2lbsYaRHZWOyygbiG4MQOctlb6F5wC+2hQdqpodx4C5XGBAV3lcbAJGbfMexIDT3aJfIN+tw+kfs4rZ0ZVEtgiVD+sgq+JvHyU9F6Oyew4bmr8K2zOfK/oCqVN05q6K9HCSGsjtw4ivt49iBO7n7aqk63MICaLpA9WiG7apBdB9vNIXqWAvO4hVN0Y4no1tDRMXrJopAZEVsDaWIdoYBUokQXWxBIxQ9/xtl/THd8w/DJW1JeemnHek5TezYLRrStKw5aSjOi72wkv7oRm3k9/r7n43ZqSO8ztM+5kdb2ENUWoI+gtg4j9EX4pk1Ij77oS+HUUdEJEaYDyM55lE8kkXgxoT2868YYhDDlPxk+a7/9IP3JL3zAkshJhLDiiYgfYU2isP0Yk/HR1SWaY/to7K5D0SfXbqIy+wknZuiwSuj08IJ53OIxTOG0SFztSmExBiFcYYxwkEmMyUZetMti7ZoF+ft6y3bNQO4h4iQmMSaSmMeFdW+2dvA0JpOlHwdE/h+z+e53kD+0DvgWKyOfpXZ+g0APkJ3bSInrGTy5C2GyMnYc46gaqRrHCTbhZ/LYlQTtmeHxm1649O1n3WiApxzkcy/e5WKjyhNDiKV4wmY2VqJVRFJpE48UMPWIVCcIUycZWSF0uqRpRFttwDkV4/QPE6UJUm+xOTsRY/KgHW1TYUgtRAbrgHkR2DU/QsffcK6mIo5KY2K0NdbxRF/63lF88XkaW3sknRLCjKHF6xEzr8A5vRFrm6KXfUw1191Gd1AiT68nSG5gYN/5xulKdF+Syotsbs/VFPb6xBiFGX/oq3Of3/EhrEX8H7M4nsJSiafmjN6/6zOe8hZ1p9FUYAZACSD9J5CVBJvDVIdxWlkKGYvwCugV6I+4JF2BynsYobETOdxugbD9xE1OqjBOJqxhGqcxI6sidiN0xbHS6jjNa5gAzqxlkN88/h37xXz70RidoNwELYynpROh1W30Nygy8tXkF2qEepCymKTTG8Q7dFA0d81njLy9295dpe9MUeptIRv/BCP7JZ3Nh4krB6ldtgV9aAznHoYGjmVHF8i2piWgz0bkH2i/YRstXJACKQwCKRCOABFgdBZdKODrgKLO4rYsibce6lO4ajdBfR1ePIaYm0DEu8gqgS0PosMxaI/g53xwhJDSES4eQueRVYV8w6/xc/YhHl6z6cXvNN7N+U77FMK2caQVCOUgdEKqazjJ/aRjszCg8V3FcNQiw04GVq436x4sG0JHJPoRuuP30ilNYwanyNYuRC1eR37/NuSZh6lP/oNcvpqCrV4eLQh3eqP9nvk7+Y+LJ57ONbNrFmQpsQ15vsJ1HCTCKusDaCXJYdmICqfILlj8GPo5B50OUeluo3jaJ8cFDJ4uIjOKbm4AnzL5/kasKBJLQyZpi1j7CHGRKZ0YwLEGE1lhn3fvi447l3Dxms37Ng5jPv5L7HUws8g0Y1WqBNo4OMKSsTOk3pdY2XicfuCxrH16+Txuej6bZif7xdkXw/RmHHOEuHQXrR2H6edd3MxLKc+eS66+ndxdicltyIz2jrbMfif3ttfzDt4gJr+3WTxNANtn+nOe+vyyjUBrF4TGYjQkIJIOqCZpZoH2phwRg3gdh4xROFEbsilaLNEfDJDtraiZgG4hR+ScT3Y1QAU1YhXj6HEbcxUsjCHSrnJyZqRQv/vHdvk8ukc+8e3tmozMyRtfnKZKzKN1KtI0dbDNIrbrY9xICHNEaPtJqpfMipl1A6LutlBhgGar3RhdZccXryCzvJ7Qjel176S1eRWvMIccfTXDD9ZRl1/E4Dc2nOnJk+oiW918D0elMju+zrOm6HvqQc4nKUq10VZjrLYYRxjjRYjmLNZbJKRNJzeGv+LhmRDjubg9D9sXGCFxlMWv7MRdKaO1RfVb2HCRfrNihfsymznp0SkZ0oZnlcLxBtj5Ks1IZU0/iK/ecadkRH7HiZMo0Npm0HIEp7eJzOwW6yW+VTxCkvmUTHbWkMrDZlxWlaGTTJBbehWFxy7BW7wUdbhM2moStho01SDdJE84p4k2l097/+nA4n1y/mVtrk40+lk0fOipB7lcTpCqJTSRZ2XqIFLfChKkfwrpPIAe66DDHF67h6kE2MjH0y7WTCEXh8i0NdlkHqeSQPwAcflRkrESZuSF+LMb8aMycqlDctyYZEjG3DJRHoiZ3LhmB5DYHSviFY/8IpVx7itaGVVwFi02B44zhVe/mtyJS3Fag8jet3Q+t8d6VhMHEkWXJdnFMsVA+yWMHNpG4O5GakFaSUk3Z1CVYfzueQyfeAmj8+J9Xx0JdYk3nYjt4EfOgvyD9fxtMUrNS4z2UG0fgQMGSJrI6DjSP4AeaWDcCmLVQZsKopmBsIquZFHxCpaTmGAV6T1GOqhwm5cSrJyLaqfYJMZVCWJHLNPe9SuD3/jVyz7L3/JZ+YRnI9bez+URnx3vfw2FdU41QC1moGCxpoEWESZ/JdnjV5M9cS5Oc4BAn4TsKj3doSAKuKaIShV5t4m74YUUjr+U0okrGdl/BSP7BhnOXMbkzAAFfxi/MvnYsa3uZaO8Y1fWrsm1ejpB/n17gViySGsRpDOCQM4ZEjKIZIRMLY/pe5hcIPBBJg9jhx+iOejguD0ceYJ4Z49AKPL1FRj3MJ084kQNm2mh5ZX4j4/T1w59P4uzci/9jR1k0THqu1/hSPt93GjewlvX8EgonxMf2836F7yhYZy0DjZ0sFGXfjaCdJBSPEFF72DgxI8j712HFI8QjbVZSYdw2xBnNZoa7VIBa9czyQSuXCaZCFF6Eq9QYqlRohtujpLSHy5ci8XK/9+l92dBluz756rhmmsNlYFDYGUG1ZrEj7aSDUdwu088INGaoR+fJhqaQfcDyt1LmTyUJxcFBOEEwWIXVbqP7sYq/XA37pkMfVGkV0/ox/OEgyE2AnkmoPCwfPruvHzGJPDtB17VIf+aNyWO4XsW6/hI1ccVTaL1GdJomFxDkjdXM7D0Roa+rpBBA5tJgR7aSbBWY00X4xqs8FG0CYuSnpvSHYzpDpcQuaumiwOv2fdhB+Ctbc6C/AO1d4/gogvuxorUgpgkOLWbfG0KPx60juqRdiTGzhKW5khKS8QcoT7QoxfXaduDVEdn6OUX0CqHak/hmSza76FLEYIQFaeoqkHKPG43IPhnHtaocmZOnJz4W3Hd0Gt1xRQejDHFDCJ1EG6MbiRYr0Sm00NmSygzhK8lslnDiD6O6GDyGUTkQL+L9RXSekhlSXVM6OfQDuhgDEdO2fwO4y27nddGbGs9Te/lM3i/3tNY7A3AZz+zbKV8oEs60iAOBnHaW/CXh/BWBghyZZTwpI4CDHeycGGHXhJhMm1MJUHUZ0n0ELnmZvJyCLeZJeP7ZEJJ3kTk+nWcSReV8dFORO/7i7Zm8713iHfzEu6yvzQMfYaPhmjHRbtlYhmiWcAplXEij16s0XEeGRdwawrHDBD0AmSswfORicF6CilLKA1JaDDC4jgRjsmiVQG5udoL/LnrquLVd58t9n6QgQ1LXaiGlkLuaAdjW+ikS5yp4CQj+N08ys8h9ZBRcoZWcQz/dA/pFcjJ8xg+1SPjJPhmkILaTXlBYMUA2VZEHo9i5BKYEDviIZqC/pX6PT8rePdPw0c+smYj8kX8Pe9tXgIg5LrzZ1IhulIYf9xJu6EwQzWsA9YEpDpFksWzHjI7gJ9sJujkcWKLdTfjzbawOYVUHtK2MAWDIxQZOji+BBOih5pxJ1gNUgZ+s3G22Pvf9X6BHRP/NLH+7z8BH/7dFCUP6yDoLaPXtYniPlR2kz9TQCQTZOZbwvS7CK+PCFKM8jH1u6huXaATr6PQCvDjiG5nhF7kI7rzeIWAoNqjP9akHWegOIgnbT8p8Csvgte9dM0+hLcJa6f+x/9r3tLF7phb6UvrHkqF0xv2rDMgovgRVrZV0TbF906ghhSeGMapQSp8iIeQPYUWwyhdI7UCD4FJNW7cJchk8dMuaSXGxdBvnn9PO/flN5TNr3zwaZkH97TNmn5mU4tmA37/QzA1umoq2SQWtlLCra9HHRQYOYlXH8TJTtlMZ5hMWkC1NbrzIO3KMWJvGrutRLI8RHs1pTcuiMUKrSmHdGCZlEdpF8H1NzH4eBcxzOycw34Hpnau6YiiPjjM57NIrp7QBdRyYkW/0Fezu0yuMU+cPUZbh4SlGJ3J4fSLuGGAmzg46Qy6YpBJBsfUMaOG1CpSQJdDorxLYstYC0aOIeoHTycTrzzwOm655Nlz9/rT8UY+YYNtGz6KMDUQURE/lZArYpMJVLuCI9YTMI7fzuDETbTaS2+8irEF5HyT7tgwYXMY2k1MeRB70sM099G+cIbIzeF1xykuS5yETNbgrAgWlta+eQGwYSOg2rGV3U2meOAGineB7N9Lb7fA6C6JdSAGR+bxQ4GbpoiwiREDOF0fm/ZIhMDKPAJJrFwiW8aqFqmv0OnjTXvhi+9+O5v4ytnU4sl+XsaDpRN0w0Jb6vgEvW2auFsjHMpi4wBrLyJ3fBCv0yItL5JO9tBOCdEdwoSKWEmcYISBZkohmsfN9JD1JdJMBifxob7C6u4xxDz794wjs5bBtT3IuvcGrAR7//aQNqYXQW4Gdo6Srqwje2oro0dyuLUQHWuMaZLmOwhX4PTn0AMnSYddXKuQ4hT9oRQhhvFXNCgXq9fjVE/RLT5Gf2dbMHFw/wecNxy492xEfjItfGp/Vyh7vBHAIv3F+2hvqZFkGkTrMui4SrLVoL2E2BdYU0I0QG/YiO2VoFchu2oJknncoE6QtnGjLsYUcLUgHhrDrPpEjjvbHf7N++7g4ukDYq0a/BYrgi/BRrCLl0zYlhufjtFpD5scJRregHd6gf7u7ZQOnqA/VsMyQW5ugTjfx6hN5I7HaLtCUpzAPROS6hqm5INpkgYJKIGSq0RBikkntFh8pLMsR894Z0F+Mp20VljyXzKp7jwMnWVy8z75bu6JXVtqCNs9H+a3Qu0y8ivXEMxeiX9gMwPVFpn0fnobb2b5vH3Eag921ypmXCEbLp4uQfdCckt1jB3uFLyX37RdXbNjWgAyftHag1kgrLBwUgh7yytGbOpK3XSQy0jfp5woGnKVxdY6SsshrlwhY3YwvjpDz63SKsWY8grdMdANgWvnaQd12t4ANl2m4y0QZqtEuTa6lCfrXhKWS3PbJwulCz59tiHyZNr8xa5gautjGHc4Ee5IH8et4xRKFLuDFNNRinqcXJjFy+0kX91IGU1Wf51o5GvE275JnDuAyR4j2tzHrRukGsKPi3h+hGOOYVqPZFW/M1Fsr3/ThLnKNuzHjmLcu9d2t+qxsUMC1ycR5KskTgmnnsN3e9gpsN0ssrVCr9glVIvExRUiZ5hoZQC72ELn+hBEkOuRqgL51SY+x+nlT1EfHaTUHKTQHrIFZ/7Ro8V3XvC9Z01Eftr6u3/9/FfxIeLF/TJpxkJPtG26J0uuE8I6H1IHs3qMaH0V0/saq+Vp4vFj6LFlpMri90qYkoNatRjRoFUA4cY4Kk8mcnDlaZJc7MhMfPWFq0cuMfbco/vwnwUDRy6pZUCGHaS0dcHctI2HriB3bJl+xYO+QuoAEfUI3YhYpDj94yTDGiVjnMIYmRVJEs0Qbc8haCKclFgHwjZT6xY3UDqWovPFU/kKtU/N/NCK2qfYnnvaInK7uSSGrxN79rS5AAAgAElEQVRNHHlKC11YpT+akiQ+dvoAPXUT7S2PkspHSIdupbvhKH26xLPDcPwy/PmtOOkUiizENcLyImF5magoIc5B39KrC9Mf5KoXNie+3pH5oMAXLnvqF+gZz5eD8yyOrCNUvYPd9Bi9iTyyPoTTyKG0hkxC7C3Rm9CYTBeZ6+C5PTJmCVHeQ3/3KnE5wAldEh8ix8e1k7bSKWOXm4SjIzhucFSNfnH+wA8L4rUTkaenP25ydw8k8LpjVtQuDrEjp3GsxGsfp+9I1LLFCzL4MxV68XZUkIdmhFUV3MIKdGaxW0IIuqg0RboutuijW4JUL6tmw/ruCJaodTClW57gE0X4xBrfmnjRxilLtXCGargcw+QsUbCH7roQGUiEl2DciCS4lPzJgzjFRfREF8UI3uI8vZ2TsFpGVfsIr4LplkjcAvlIkRlw6Z+JiKkQJBXhetfd1Hmm1+ppG93wtEXky7/6G+Llf/hJw9uv/ktkXG+SujVMsoIub6Z4t0QuxCS+i85uwJkbpPOoATtCwQziL51CZ0KcqibtC9LAolou2ikTBlvJHzoyUolxpM/NfyGv+vpvpetLv26tWLtHnb6vWxoPCHKlFWy6NVJptEq8wSL6y8RegpEewiwRjwlwA6yOiEwe05mjvk3Q6WxHnIqIM2DieaKshzARnX6bFpvJNFdAWZAQjRff8NgPY+vr09L1e9pA9sYtnzk+bnnjtdPk3MOh0t4i3Y0TuPti9MYyiueTvXkKZ+8qyeAcdnIzwQGFaCwQ+QukK2dgnyIwFXIdB2l8jNlM5kSIWi+1O4XKHSI7EPKHN8i1nlJ8X3mvBNdcOI+SLes7UxFOoUi5l+LLOXS2jJpvkAQKxTC5eAvBYgEdnIc3PYDbD/EG6qjhDqnTRxbK+M02avhKsnvzWGcQUe+jVdFmsjOX3+ifdS2eRK/7g/tMdCy2TJ3f58JzP4hv2zOqJx6lVlgiEj3MUA1zySS5usQ1myjM7Ce5fIHeeB7bruC4PaxXwE8lFhedLYJbRhmwSRiZbSj/Tq66KuaKc541HSqt+/DRf+ySy95BRnVjoap3El3SRfY6REzizkvsYooUBTImwa28gvzRC8nWdpOf205xZSfFaY1Rl1I6lCGwGby4SGCHcHtZZLpAlC3hD3wy/5WBsyD/G3TwA79tTXyz+fZfyIcHdpifafm431Ttlz9Ke6iPeHCY3MkJCu0xcvUm7vpzKB9VCNmlN3kxTjSKuWoQRECiLyHYtwP/sCJShu5KKLrjmLjDdestL/qDZw3IYdKFo7dLce6mv8JJDi056cgDtMeW6DerdNyU1DlOuDHCihxet4XNLcI6jcoaRDGHFHWSsTHUSoVAD5CrR0jl4QGuToElomAC6Tc2PTB6FuR/a5n6x4EY+2hLvO+d+mGVUXdFjlOalumWu6m/5tvU191B45wuJn8BldPPZ2hRIouaRAXo8m7kqfWIxk6c5gQMFJFeAbtwQrbOM4Q7gs7iPrpFy12/9Kwx9i93rrXcdq9427tfeSDnxo93XR2dpDN5gvC8I4STKdJI1HKENC7S9NHOOJlVBykHkL2E1NuMMx9higppJTKxOEYjyOD1p9FbFbQzCM92OlMA+/iWAPjVqhVrtcZ42s8JiY//3wYwlQImzZduw/Su064JqpEZuTeplx+l3ZvAi4ZwWxvx4xFyJ3OQbiXX3M/s6y4iOHI5xdVPMH/FOM4jtyIv3ZPVFYJsNb9D7Akve7P9Z29nDTsW/zTF/rzpcy3vJo0fyund16a/+8jn5aU1xxuqpJnSIs7YFHI2IAibpCJPbAboh5aiKSBMgq4kJAvD+OFD9ItLtM/koZpDNlNEmkWqy8kfWiLtQZBma3b0Pe/5Q2f7HQfMLX80zaezgIMgXXv1xjM1AFDU2hgu23ArjrodJS2u8lLHhj3S6Azt4t8xc+WfcvSCkHS+jp+vMNYdJT+dwS4dpTmZyHjpbpJzHyUejkvFk+T8o7d+Z6zPs1QP39rlhv9E3R22d1tr2gq1Z5HOJmhJQb/SojtYRqYBTiBRrodjtxEsFxBpm7A0gTzzPVrnH6Q7uUrfXSRKJcQ+JCfpnzNHNDjYcZ17n/egc9v7vyquu/ab4q/eDxeHZ1OLJ/cP376rhWf34sgFPBEhhdCk/b6rzxxX3eBeqpffS/0FWZL+KP04A+3DQET2wVPGlXOIYFWp02hV8q29+xJ+2j5bQT7629hdAfaK5/FnYHxDnA1JknEGqi9i3d4clVCTFxsYWF4hzVuQWUSaEjoOoQlwzSD29CL9oRYmc5B+7g5q66v0kg3Y0waTG9elzS998KbyZ4OmdHk7mTOIvQ7qLMhPAnNpizCMOSeQViDFAZWmvSIizoLvS3oDqPuLqOMrtO1Xmd9yhp48QF/8A+3XLyCGXAiNsCMYcUCk7l281hU8ixU8vN7+0WfsPIXcf2/R227Ryyn5pEypn+D2qyR6kdi36E4PywnC4aO0RhdoDzi43iLpeBaiTbgnlkgr80TOKj2/TjQEum1wK2e+Ia5+yWteJf5yT0sG9yFemf4PcxbkJ9GWwWULaYyxTdJ0KWNEOoV/cyWVcyNaHbqckTsnKcwska3eB94+9NQRuts7dLOBSOYUacP4cj+Kgf5Lt4ev+bktz2aOOWf9NnPiUYQ3uP3bPXQhD8ceYXH3XmbWt6m2fZpnqtTUPFF+iTiXYJMV9NASejCCsoMxfUy+hRkZwakO4nY0Mn8+zmOLdKImkRhdZHCoWpWPrysIMwb/cLRqz4L8JNod3w7EIX3zgGinSRn5lZj0uufZoa+4Jtc7RuzfRX/jN+he82WWLj9BUonwxrNkH83aTNvF/SaBs4xONkm1uf6Tr5l8VoO86Y1ftbe96Nr0V941PZOgZg/jbj1KrdxhuZfitttUjMVLeeL21LCGKL6UTUc2Mr7SJcqAUD3ibpPu8gHqw3tpFAbwGj5+v4c1eXRvc+IV9nz6o6XX//JB/ZZ7sfxKVZwF+Un0qWHMWFO3wAjr0FglvS4g+MZJlN+A3oPMv+04Sxe36LQEYlki2z7e8QxqroMurHpyiGw2g5LaXam7b+KFz2qQ7SsE/zXy7CMvf2Pal/6Np+heofGOHoHyHSxeeJTl3AL9dJ5QPkxnW520vEoyDsJfxbKL8qNbGT1sKCc5yjPnou58jHD9g4RbNuGfzuL08t18Lrhfll78n0P7tRz2tz9349mI/GT6xesvFBmnsog1W1Bckir7yEmiFx2j9TNzhNv6xCe1jPb5Ij2WRc1kycxmCap9IJJWmXx+hGKxi7Yl0+3Yr/PHz+ocmZbDluwtbPq1vBBXDX6tK+PaPfQvPYjdMoQ5uY3k+BJWbiQ4MUXmOBCXYQlMp4nIj1DpXs7m2TxD4nlMnjqAOXeZpFzGXf0u0auWYNQjn9l7p3zZj19/ByvXIT41vDZHNz2jID/W32FPvfDVdaSYxGXVWDEVEa9LRHjEyrRnoWOM62dtZmmEzNwQ+aURCvMj5Fc0jJItHcDPnsSI1Kyc8q7jF8yzleGHdEV89cv3gwGvbMT2axcaDNh75pxkVxvVkOhMDqVSgriHtEM4S11SN8VYTaJTRNvgIpEqJcqNknQ2kG2txztkcXLrCWZrmHKKr3stZ9OX950M3ONGXr5GDc1nFOQHb/yg4JOfauGwKjPcKYWNXSGqvmPX+QqdxZuVZFxBpjxE0HRRjJGrO5BkraqKMHYYyk3jcsqcmH2joPistd8ukT/LDaNbpEDYH1+90lz/EqWzw+wzBXFKkTnUQI9bvFyOfHsWY8u4S2Xc1SxKZZBylbRQoy8WaQeWfvc2Zi92Uf4ITjVFlS9n8OQiZvAw0dA06Rv1x/ZttjktJiLOphZPqr8YtnxvP+5Y+lHX6GElWMjazJ2lJH9vLglOd6DYR88WyDbbeHqBdiGhL8YoLO2yw/+z3JgvEM9McfXQ161jXzH88Rs8MvLZmV6ID1nEhAZ4zTdey1fe1U4z6+yXg3x4+KCovuF+0hFBVniI+HmsP+OStxYruySui4zHyLc1abbKan4KfcBHVAWivYf6jt0U5lJych/9/J8y94ZZdKHwyCPZ/3L34fSOIulZkJ9M7RY8NkPxJ8Zujo1oxan78jr6mirRZIzYpzETDqJ8huZlEXHUJj32HRauPE1omrQ3uEJLHNqozApu1l35tr+B0jDPdrXR4she7PYbOZPmxckoJ+uPi87Wb9OdCJBdTZir0gq6RKGH7biQxvRljqi3C3cmgcwp9PY8A3GBQvUDnLn2HRx45166m3tY10Bj1y+avb/1QcVRtTbX6JkF+VfXwQVX2F3P+8meuuqn/psV3mOJYHdfpC/vEv2yQKRD+AdHUXtCWjs2U5xJodchnhjDXTWOPUPdjHKiuxOhKjiew9KS5dkvAzDVRV+5i886aRR0pVw6hCnO0ttkiZxZOuWYpBZDzyDDHomXYNJHCLecwEwNkj1xFB19m/ja7xKO7RWR0ojEYFPh8NUHfpakqDKwRqeaPrMgXwRcUTH33PAhe8HsQwI3dlB6VVox5yDSLE7PRXrDyOMeJldBjg2R7fZIBusidOqBt4mWvZqucUiSI7Kx0uS5I/vFsTb/V/ju2bdfaa/vCPpnkJ15QjtHL9fABE1ETuKvLODYLZT3dsk4w+SXx8gstbDe51m8eprI66PIWzfKIY2DiHZslX/zvv3Iwh9secZntq1NkP9Jncur4rxNdU+qRCqlqzn8fSUye8sEB0YJpk+L3q6G6HdG8edGKX2nSeJNi/hy7QbnEqa7Wai90de9O6c/dN8izyWVs+L+n3ml/fV3js6YjaOfvZPFnz9Ia91RovIowUyRbNUj14zJNNczOJshHwcESRfh1EiHmsSFJtqUcasjuGckuplBxW7XaVa7f8ZmWxPCrk0j6Jn1DIWw1iJgSHTfTta11HL4dxQoZisU+inh2Ao9E9pCq4/K/CPT/yUVcZggupHnZ7CiRLuV0I9VcduOv/+t3S+x8LHnDsieMn9sbfTHYt7ewDV//RV5x3sbQmz9W10d6zP4hRQG5+DQILnWMRaKI2Tri6TZeXqZI7QHO4RDjrD+JVbNrdBzPRAaEZ+RG/x9W94moWDexu185mxE/rcpSWGyRGwsTpImQx4mbdMYcRELM/TfVKPzAkOYK1K6y7P5U7Jov6A26s+xzf8YQyM34Q+srAzmB+/VbclzVG/lxzWB84XYkck+Ny7dyOKb76FVrtKLBqF7mt55HXyhKbYbpE5MzxZwei+zpQNvoXDfDvTiW3E+N0iyemV4NOOIrkYI+xmuPVvsPZlaLcTf/R1qfg7x15/mvCTiBbG2b67T/qke4aWWWPv4X1eIUz5mdZyhxw0yE/lIu9POEzhZhspNMpk8jx35sP/pv3efqyC/nN2WfPY+rHC1dfQSsv8Y4bl/wMm3PcyqCnCqXZS/jmJL4Qzvxtt3PZUbX07+yPmQbhDJ4vMFtQFsI1uw6g8/+RJhfStcY75f8K2pou8ZTS0+9CHEa1+L/b3fQzYavB+UVngPu3gOJFMrtF7voFYcHOvhRJpaQahw1mQyQ8zndpHPLNNuXM1QcDtLnYkD373ahdv7z0WQF4nA885A55hK7RaJk61D93v0Np3h1Dsup3g4ZXVggmbmQjL7lxjqeqh8m3Yzwg270hTutmYsY/16+4Ry/UsfMFiIlURw9oTIv6qD3cvFkcVN4nsPbiqD2gAirxEXevhnAsmDm5A35bBJFqeukEqL2niQT1aZyB9nauvD9DzNhsLtyKbDQHAbn7m9/VwD+NP7n/h7hKOCC7cv4jqP60DpSOgwVaJcc6R/SKRDt9K6+C4Wzu1SC0/R2yDJMoVqPyDqW2qi1RwU9sH7HYoRfnjMjtszX9iviIHl/+es/favqn+raL10G5+7O2HlgBoXOGWBbEtSt0b99TUVXj9N8kaNaGma9R7180ZkurfuOL7IRQNBZy8UmydZXPKZLH6XfrjjuRiJf/q8J4bQvJ53WX7yRXUSY9Gy76u4WVDhgjRJEksnXSJU99Oz3yHatIP80VXaO6eI2zs8U5/O9EqT0i44eaNtpnmob6dv+IMbX5gKhBUj//3sxvp/VZnr7Q3VL8pjn59/c5qc+XAZ5/ERnPlXM/TJd7Pub3422faNMYYbg0h3HTrvOalsTRDFL9v2Zbr+UnbKHGagKxEE4JQxztU8/7KNPJf15t/TOOZBJ46POKkfZOJcNGTEmbLupUZ4/hJiyz1E224n2t3HX35Y1HYMutT3Gba7sWtHeujCsJ1pOOlVn7jsxc6GNXyB5NPXkNy9WVCti4/wy+LL/Lr4NkeGP/fV+feXm2r9pTaYGUA8PIjLJM6GdzG2dyND7WkMCTXzaje+Z2mAcOUF3kPLmZGicGzDOd0YjYSXA18RFBQ90WSxOkS3+wAgnivs/ja/LQB+h9+Br/9PyXfuk0aGu2U6+N2scdZdQ+6Lm4lnh8h0c8Q0RTSwKDqVKr2xTUF/T9elsKCxC9hlp0ijvYP6XIddN6XLrdyrhk+s+7MHWKF3NiL/L73nfXDtS8QMVl3CWy7bw77bROqWLzBDh19P5X6j2tu2yfDoFbiPnKDq/T2PX9FhPnuOE919Ok+2WsTOts05LNYyA27ndGm7mGZRj+GoFXzZgjhD0is9pyPyzEkR7Bw9Kn3h9kvJRatO1FkkzA7izl2P+trPEfz1Fcp+ueSmB7uqX3oAu6kQytnVyBF3O3ZKXMCxY30uLO/gi4npXV5+6HfVL/OepyMoPO0uyNMHcm0POD3vT/jo+w7R+7gDvoPcWkPu/DKNn5qUzF7lpCfXE8/9uTzzuseL1czVudrtUwNp7W7Fzpag3TtPHKbQnp+orPYpZ3oMFfcSG8mRxWspqAPE8TqkEM+liPx/PLty2X7gZ7KtrU58E7p3RVw0F95VSDYdUOnDR4myG8i1K2k+c3mc++7FuvTppb4X7IynTg/acqdpRaE6iKzs4IzcyIytc07jS7uKg7vEmlzLp/Sf3vPiSH5s6++It3xC2JeW//RiwuSXUemmLOn+VwZ8fG9D/Fxi5OWXEEz/FuOfrkL8MTn/kka262wSPHxl16t/e31cuHWHKNe1dE0rs5OLx77G/s7zONV5FX6mQWwj3P4ZOs4rSdxZaqvX8FzXG38ly60ffwhHbgFdk0X1Sxev9Htv7leEhh2nSQaPkOr/r70zDY+rOu/4/5y7zNxZJI00MxrtkkeyJLzItrzJJgRj4wBJII6BJIYkzUYI4QkhTWgTQ1JoaEIKoUkDlIYsLTQNJY3bOJhgjDHgDfAWy5KwNmuXZiSNZrtz5y7nnHxgaZOnaUtqasee3/PcD/PhPrM8v/Oe933n3HMm4Y8okMI55KjlSvqbK/Fi6RLs3meiZLhLvZJklPhfX771q+nHKthd5GNcQNDdOyHWXwoCQs7qIvC09ZHv63bIsoY+gu9YJY80/N2nIbOliHimwJy8YRg1e+Bc7ApiD53jpZtt7Se9MLy/Iun54ySfbgjj4HZCw9sS9qYMlLAVVxUo9mHIcgpT1gJwxUZLaBvGjAvhEAvZ/CIQJQZGFRRA5cdfYRM7+RDAqyFTxnPs7pMBcteAlujGBPEpeSVbCTVwEokVQXhGvBCoMOWB5lExF4j5cz1tycRwsRyHZbx737zbH9mGmUEAQJSLm9dT4I+gr0xOw/0E124EfvxXFDfffQFePnAFZjIfhSYPoETrhkLziGcvgiQOg6E+RK0D66atZN4gjZ0qL455ZNOS6BLH59VBSQ4+56QcxQvEzjAsVCbtIW8FDop3IE9qoLi9cEQYLOeH7DuKhLkI+mzH6ykSPx8lXvI0SKYEroHL6V+AkT+BV+qFoM1w2Jim2c8vD2CXdorMd6fVKj+Iuw0lfX2wK5ZCOUHAvMSVnHnYa6/q00hOB6WyYPVXfKDs81ddN6u/FAd/tf1h/nxeFaj72Fkts3RaBsJ71npxz0OX4kT3rajwplDn2w4/HQcRGvxyHCYPwsEqFCnTRpXcZckGF8VienKRsjdNPMu5T8tjQeQXCHuOIDGXkUnOQlL2S4RJTFf9GJOWgbriCLiGEPD3wcjUQlW7kLXrwewfvX4smTgfRb6tZg15N68X+w4PT+hz5Fp41VGUaU9CzxdzRyycA6TKJuwRKQa/RUPtkHsFHMcHJooIob+k+qZGW5pYlZG7mtK0SzZFUc947pMnJ5Gsu5KM7VZbmfGJU8DAoXNX5Aa5UkquXyVhx667YJkbURs4ComomM5EkTSKkc5H4aED8Ekp+NRumPacNJpsViLoogsxkEryMjOpLEd7yb9hMOFBwJ1Hkm9i3Eu4rMkOdfkxLi4E9YSRs5fDytXDsKrBbB9M24+8SMM2//V8jcYA8PTeUWzWviav7ps/uyNz8DoIsgSc6EW+/I7KErygKchOhmDNhTFHLKaXuPPxftOsjQjKvfDS1Sz84loWmK7iqpak2epLG9nR6Tp4xwaxuGsPSGvLoeFNwW32wR33nVupxb6dGpV0m9ZF/eK6XbfR3Y8+uhncrEeJysD0IqRzEXARwrzQT1DCDbw8dDUq0Y0UqUVL5W7y6lhjmduWKOCbmVby/NLlL6E71gGvcgJ9c6tg8BVQJYA5xZCRhsVD8GmnIEvHwVkAeUdBUp8HxhPgYh/S5v3gggJg56XJ/Amyxm6V9rsWOsSr9QmXKHNZ5nDEK3raLWxvA+nrbBTVE03QrWmI1RRT/Xtx2VV6UXIFSvVuJPyGZDoXeKSxGR3ukFTknKqIZZ4Ki+aXNZQKDT0HHqt7+pbxo85PffvE5kYFL2A94pDf3EH0LXgmzpqIvOHRH8JxfxVfW8vJM9/50VoxMX0D6kgX9LQXeioIrzOIRv8unEivRixXD01MQXFyUMWwNJVsVSrZSG6SRHOLgju5WuQBJwT92Xeid2YdEpnVMPKNMPJVyJsqDCsP5vRANyyYRjGS+gIk9JWw7TwRzol5C7V/Sk1Yc4Kfn2kFAFx8WRe5YUcXkXtWqV3Oq1+BhGeDOTtX4ULCFGgJKTDq4yR9qltaF9bEZBNHLppHWujcMyjkpg40jIwEJiKjYasqaLiniTmfHnPG2tqa0R+ej5mpacx7ck9KuWb1PYl31Wacb524Q+iVFFvwPDrv/PEZ6Y6dljf4JAbps0u+6D/FX1qDueSNqFSHiGpOqFbOLm3FnnQfmvUhaROKpW6pgk/SPFNpRjQGOnBAP4QrWD3dnotUTWDQHcXwTAdS9mLkSBD5vK5wW3cp6PL4cBIaRkuKkJNcYLIMUwNy5SmkfCXQPRfAuOQSZNRiiI9eDSeXe3tH+9mO+eEPSk27D0VHrOmjxM3vXT6ZyZe70FznxuCrJtqW5dSflfGy2QPq1MWLXTg4H8LIZeUqR7grmqgrPgMTk7LkNew865C8/X0iXXo04hQHN+DYQCMyz+/ExSHAu3aj5x+72dbZsdYSdlXLF8i320x2tkTktyyyTw6GslJ+B/zcQEjpgUfkiGqOa8RMsVGsZHk0sHK6X24VR5QpUcXKyTA7hnX+i7HD6FFa8oamIe/UYcZaBkfYxOYxRVLvbm9Xpi5s1ee+9XXChl4lsAbfh6iHQWrdIKBGgWEDmEwBgSHgnSMAJgH3CAjpOm8FfoMf3LJavvuB/ncNBuyH4RbHliH9UBtHy/iU1Bzk/tEBkW+vJHyHKpSoDdsVAo+tgzSoUaLtk83VK63IS3Uonx4mo+5XfbPV0Sw9cczPfZ1h+NXVGHK1IDG0H62jvbisNESeveG+6m0/fq6cHdl6yP7jbb956SIwbIdbciOivgjCYrAci5jCRcvwBAh3cRPvhYsYIqaUwl16EFAocnolOKmGQrJgcxf5w86T0Upsf/i9OBwMAdNBiF8anxVfv/A7AiWyWA9BPgXgEgAhALHbgMg9b3xqct7L+waRwW+Q+ZM+2vvOOz4xVczvRMi1P7TAfLAyka5aeDAwscxoIXvQ2z6sJJZEbM8pjVhTaTj11SDZZrgmNorA6AEabw4rPFtjesZyCJDd/tGGljBG4m6QfQSNRfMwwWpwyB2A7/ghLKUe9NRu/eJLP2u/l/E8CCFAIgWMjwCLl5+ZmfEti7yjH/KN78f7YyP4JLPQKggkRikgqxYIcwDGicQ5iGQIoamwJQUO1wHzOLGsMk0m3U2t4r4Hf4CZ5YshFAFBJRTE/APJlUyQXZUPyFcq990BEY7AS2cIH+WhBezZCjd85CQpt2PCZ4wjoVrYXOxCpwLYWQeLA4LMLswUn2oHprLIBsohzwThmXFU29kfyC4qE2LYVYLkz21cV7kCT0TWYurELIqO7UfT2k9hZ3wbyJUfwCxXQHY9iNpAI2Y9YcQevh38dbfEWSvy478ADbeD3nmPy733uBp1DueugSPWg5A8kcQEVfisqxiDzCPPmukiN3RehJylUM3+9dIL2JH2BTz5kY/AWbAAoqTktbyJkILIfygWjpOHNn5fueXI3z+F+ughzKYWoyz7olScGmp8ByalHpRn+1GtZ0BRjtHiHGT/LGqQQ4gZCPsNai8VePlSjglVKGo/dSIrw2JAnoraRysG66xyRrRZnPy5hna5FvHKd+HogTi8fdvxnsqL8NzMGAK5GdJmmjIhpvD5b1/0pfT1R/nbnROfjmrytXtu+hzB3V8GAhW/1cMVAmQOoAGsFYTs42ci8T9Ds9oZ+z4NK2srTvVMHkOoeidyxkrIRj9ZpX9LGXY6/HUYzU+TWksjI9zhCJYhpumQnTE0OBSSyMMfMYDmFKQNfhwMSqC9CVQv9brSEcNO7hUkMuRmRfMi6NyTQ32iCmNHSmDN9kkfKqtme+Z0jfIxeQuC6iHkrQSWux7Bj2bss17kN46vevMEpTcWY/9O3ip2PUPw6UuAX1/32iNgHY8K0qmei5H3zA/M8uA6GKnvQSsSmBd5APnRkJxLJ5if5tmzBGsAAAVgSURBVES1fxaTWAJVmZHmZtweB0wtw1R2kRSzhVYUHMqGxTRKwipGeA5rmvzoa8thIG1jRduY3NOYKR1PLolrT4wjMqCjKu7C7IBLWSECGgCzCwn3dSCSB6ZOGt5jfbQ6guMvflNwvE1H9f4+Tt8yTiHIf77IhksFro8Bnv0E3sfJO46fs7P7Gd+dh159TQ8IZ2BmHuOjV8jpbLNiERlZRcGQtxXBhjHE5csY8ZYzmeaaymhvcD+vL35JX+Kbgy86D/vkOoxnJYgeILq3HvUpE78+XOQEXqiLz58blJIyRXLEwIXjc/icUFzj0NQZ5OgWhLQxVLheUZbxh7NHxc2Dz4jSIv97yXe/0XCWdy0KnHU8jr30bz94vbf71NAl+gQ28zxabVkehKL0AnIIDIsgEIYb3dCdenjkg6j29aOmbATjfeXucTPqE2BqAKPmQpxIHaMrpQz3N2o4QpKotFJoty1YFRbdfgpi5bRfFDvNrgkkipthWo3wiB7U2H1Ezo/TQRGa5ynv/e7d0acndv452VO21vmHOxpBSOLNgf921EQFkc8B3o8vSz+/U+VN7x6RkxWMKLc/V+Z9bKIlS9g8pkB3VUvH/B3lcyNduYqsLiphO/OQYR1gQkBhqqo5R4NudCZlquem6RZc5N6DE8YKqvARj1/EeAxr6ATWS8BTQkLMCCJjBzQ3YvIWuFkSPrZLW+x0OcO8QhPE7bF4gMz4D2/51APPEOun/N6tO6zfqaMoIad3fUxB5HOAKrSQ8Q9xYOshIN1DkUvx0e/fQCPz0+LpCoW2Xa5xI5MjcykNtQv94rmeGJkcMunTE9XyriedIrzQu5aDfAyqXA2/1CW1mLs8ZRiWfcKU8vBTCfLsXmxWSnEEFejOp6V6pNQlEEoAvtx4+GpnG38BS50YKhU/3LNZpa+8xh51urBRrvv4Xd+8hqX6v/KX9H3TYd4OtxACMgD2P0Tmt1R7FEQ+R/mQyNKFmBNJeOGA4X4SEuLCGYJVAuS+kACABw8+Q7Krv0dvw78zbFwoo2+6Brq5Rk0nP0wUlLpKsD0YwTF3DeYGT2KBFEbaSWCxKUtzSMnLEFJeloP6pCchlhAPRvQZKqktGHZN8Y6sIw+zuEfV7HTLpg24v/mCtqHg5/+M3Si2cLy2xqcgcoH/qtZ+8wFPAkAEwEWSUPFGp+m3zukWggIga4yk2PYvd+HJk0/QCe8YQhJEg/pxvvFPfyi0Km9UWPr1xMBq2QXDU4Ff2QIBpRWd02lazC2XD4JnXGmzxRtGTAcxrYwbEs8rpKY845hJj5xhVTTrSBVpMf+GW/G5QC2mP3MFhHAWSUTuZP9LNwsiF/i/Ub0ONHUEHomiQ3PjVt1EuePCtCMjg3o8hQwWKgSDZU14JTGJqKmTdjtU0okMK0dCXyH52KCnGp1RD2j95eTZX1TcOck23MHxAR3kcd9pLfgKIhf4bzt7APCVm0A/eBPkG29BUzqBungKRakMah0N1SSDRRKHzSQIppJSwSQKcIloolNyCU5UJFZeiQe1L3Sc2tX/N0x0rORI3ARS+lBB5AL/b7w5vR89CRobAKTuL6Om3oWpOEXgM18VbQTikcehHhuB8rO+Ss07GSs2hlgDYfBSCaLuWvJK79VfiseDt4qbn4vhe9cu4W9H16JAgbfM7M3/sbWWsJdRIUDF8D0UACz9Gurom6ijX03txGeJkfwEsddwYi0XhaBZ4MzDBMijAnSrWEMvEZ+hUfHPVECQ10WWxeC3X3v9+67stUSI1/9JFgWpCxQoUKBAgQJvRyF52lIMWvg9C5wLFEQuUKBAgQIFChQoUKBAgQIFCpyd/AYI9sRaX6tv0wAAAABJRU5ErkJggg==;" vertex="1" parent="1">
          <mxGeometry x="70" y="-760" width="144.17" height="260" as="geometry" />
        </mxCell>
      </root>
    </mxGraphModel>
  </diagram>
</mxfile>
